<svg width="316" height="313" viewBox="0 0 316 313" fill="none" xmlns="http://www.w3.org/2000/svg">
<path d="M315.5 186.5C315.5 256.364 252.82 313 175.5 313C98.1801 313 15 283.864 15 214C15 144.136 112.18 40 189.5 40C266.82 40 315.5 116.636 315.5 186.5Z" fill="#23384B"/>
<path d="M171.001 168.418C151.016 168.719 133.396 157.063 124.296 147.663C106.296 129.069 111.019 98.6625 124.296 82.6625C143.796 59.1625 191.496 59.0625 212.296 82.6625C233.096 106.263 220.962 135.829 212.296 147.663C198.696 162.702 184.323 168.217 171.001 168.418ZM171.001 168.418V272M171.001 168.418L78.501 161L63.001 106L43.501 98.5L42.001 91.5M171.001 168.418L244.001 233.5H256.001" stroke="#0BCAF4" stroke-width="6" stroke-linecap="round" stroke-linejoin="round"/>
<path d="M68.3717 56.9705C56.1503 71.5127 42.1914 63.0298 36.7396 56.9705C30.2695 49.7794 31.9674 38.0193 36.7396 31.8312C43.749 22.7423 60.8951 22.7036 68.3717 31.8312C75.8484 40.9587 71.487 52.3939 68.3717 56.9705Z" stroke="#FFE603" stroke-width="6" stroke-linecap="round" stroke-linejoin="round"/>
<path d="M145.5 140C154.166 146.667 175.4 156 191 140" stroke="#0BCAF4" stroke-width="6" stroke-linecap="round" stroke-linejoin="round"/>
<path d="M82.9995 56L86.9995 60C87.3995 69.6 77.4995 73.6667 72.4995 74.5L67.9995 72M82.9995 56L67.9995 72M82.9995 56L89.4995 48.5L82.9995 42.5L55.9995 74.5L60.4995 79L67.9995 72" stroke="#FFE603" stroke-width="6" stroke-linecap="round" stroke-linejoin="round"/>
<path d="M67.4995 16.5V4.5" stroke="#FFE603" stroke-width="6" stroke-linecap="round" stroke-linejoin="round"/>
<path d="M17 41.5L3 36.5" stroke="#FFE603" stroke-width="6" stroke-linecap="round" stroke-linejoin="round"/>
<path d="M28.5 70L21 80.5" stroke="#FFE603" stroke-width="6" stroke-linecap="round" stroke-linejoin="round"/>
<path d="M36.5 16.5L32 3" stroke="#FFE603" stroke-width="6" stroke-linecap="round" stroke-linejoin="round"/>
<path d="M149.5 98V105" stroke="#0BCAF4" stroke-width="6" stroke-linecap="round" stroke-linejoin="round"/>
<path d="M185 96.5V106" stroke="#0BCAF4" stroke-width="6" stroke-linecap="round" stroke-linejoin="round"/>
<path d="M235.699 209.437C238.699 215.438 246.866 216.937 252.199 216.937C265.399 218.537 270.033 211.271 270.699 207.438C271.899 191.038 263.199 184.937 258.699 183.937C252.866 182.437 240.099 181.637 235.699 190.437C230.199 201.437 232.871 203.781 235.699 209.437Z" fill="#D9D9D9" fill-opacity="0.34"/>
<path d="M252.199 249.437V216.937M252.199 216.937C246.866 216.937 238.699 215.438 235.699 209.437C232.871 203.781 230.199 201.437 235.699 190.437C240.099 181.637 252.866 182.437 258.699 183.937C263.199 184.937 271.899 191.038 270.699 207.438C270.033 211.271 265.399 218.537 252.199 216.937Z" stroke="#FFE817" stroke-width="6" stroke-linecap="round" stroke-linejoin="round"/>
<path d="M256 190L250 197.5" stroke="white" stroke-width="4" stroke-linecap="round" stroke-linejoin="round"/>
<path d="M262 193L258 198.5" stroke="white" stroke-width="4" stroke-linecap="round" stroke-linejoin="round"/>
</svg>
