<svg width="1512" height="225" viewBox="0 0 1512 225" fill="none" xmlns="http://www.w3.org/2000/svg">
<rect width="1512" height="223" fill="url(#paint0_linear_283_60)"/>
<path d="M953.358 78.6279L912.482 93.2907L836.407 110.491L784.744 103.16L758.629 116.413H689.366L636 153.352L649.625 223H1512V65.375L1484.18 60.5814L1396.18 83.4215C1389.75 81.8236 1374.5 79.5866 1364.96 83.4215C1355.42 87.2564 1314.81 91.5988 1295.7 93.2907L1257.66 73.5523H1209.97L1150.36 29L1097.56 44.5087L1065.77 78.6279L1041.36 73.5523H1029.43L993.099 65.375L965.281 83.4215L953.358 78.6279Z" fill="#2A3351"/>
<path d="M986.229 109.753L964.142 116.191L931.57 139.392L841.328 134.747L813.028 153.123L737.77 139.392L679 147.543L700.367 223H1512V99.3568L1485.82 95.5966L1410.54 121.254L1348.07 139.392L1308.42 121.254L1254.09 118.582L1245.55 95.5966L1171.32 41L1146.76 47.3766L1116.86 139.392L1091.23 87.2307L1070.4 81.6511L1057.05 83.2453L1023.63 99.3568L997.449 113.513L986.229 109.753Z" fill="#20252C"/>
<path d="M64.4377 110.611C48.9105 109.91 15.0096 132.525 0 143.92V225H729V171.093V156.361H660.799L547.332 143.92L483.671 121.13L430.102 99.6543L361.783 90.8889L334.61 54.0741L273.278 44.4321L240.671 18.5741L202.629 12L173.904 29.5309V35.6667L149.061 44.4321L121.888 80.3704H107.137C99.3738 90.7428 79.9649 111.312 64.4377 110.611Z" fill="#2A3351"/>
<path d="M115.822 135.777C104.4 139.586 14.051 146.744 0 157.886V225H729V172.291V151.5L665.155 157.886L558.934 145.722L499.338 123.438L449.191 102.44L385.234 93.8691L359.797 57.8724L302.382 48.4447L271.857 23.1613L236.245 16.7333L207.799 12L224.264 44.8967L209.502 57.8724L190.766 86.55L151.023 93.8691C143.756 104.011 121.5 133.883 115.822 135.777Z" fill="#20252C"/>
<path d="M208.482 130.233L239.143 116.812L261.508 117.817L232.971 137.008L238.925 153.557L171.74 157.195L202.979 148.24L208.482 130.233Z" fill="#2A3351"/>
<defs>
<linearGradient id="paint0_linear_283_60" x1="756" y1="0" x2="756" y2="223" gradientUnits="userSpaceOnUse">
<stop stop-color="#20252C"/>
<stop offset="1" stop-color="#2D4171"/>
</linearGradient>
</defs>
</svg>
