<svg width="1512" height="2120" viewBox="0 0 1512 2120" fill="none" xmlns="http://www.w3.org/2000/svg">
<rect width="1512" height="2120" fill="url(#paint0_radial_254_58)"/>
<path d="M1278.5 1296.5L1249 1277.5L1399.5 1234L1332 1323.5L1330.7 1322.82L1295 1304L1288 1328.5L1278.5 1296.5Z" fill="#0BCAF4"/>
<path d="M1278.5 1296.5L1249 1277.5L1399.5 1234M1278.5 1296.5L1288 1328.5L1295 1304M1278.5 1296.5L1399.5 1234M1399.5 1234L1332 1323.5L1330.7 1322.82L1295 1304M1399.5 1234L1295 1304" stroke="#1F6F81" stroke-width="4" stroke-linecap="round" stroke-linejoin="round"/>
<path d="M76.0003 172.063L190.28 166.036L198.725 198.315L187.989 208.791L203.467 215.345L207.285 250.042L76.0003 172.063Z" fill="#F47500"/>
<path d="M76.0003 172.063L190.28 166.036L198.725 198.315M76.0003 172.063L207.285 250.042L203.467 215.345L187.989 208.791M76.0003 172.063L187.989 208.791M76.0003 172.063L198.725 198.315M198.725 198.315L187.989 208.791" stroke="#924D0E" stroke-width="4"/>
<path d="M210.671 1486L157.774 1608.09L131.762 1578.32L119.509 1589.36L110.36 1572.14L93.3606 1590.23L99.3332 1551.38L210.671 1486Z" fill="#17FF21"/>
<path d="M210.671 1486L157.774 1608.09L131.762 1578.32M210.671 1486L99.3332 1551.38M210.671 1486L121.398 1566.27M99.3332 1551.38L93.3606 1590.23L110.36 1572.14M99.3332 1551.38L110.36 1572.14M110.36 1572.14L119.509 1589.36M119.509 1589.36L131.762 1578.32M119.509 1589.36L121.398 1566.27M131.762 1578.32L121.398 1566.27" stroke="#08980F" stroke-width="4"/>
<path d="M1192 149.117L1324.55 160.707L1304.53 194.798L1318.87 202.932L1305.43 217.056L1327.97 227.465L1289.23 234.077L1192 149.117Z" fill="#FFE817"/>
<path d="M1192 149.117L1324.55 160.707L1304.53 194.798M1192 149.117L1289.23 234.077M1192 149.117L1296.38 208.437M1289.23 234.077L1327.97 227.465L1305.43 217.056M1289.23 234.077L1305.43 217.056M1305.43 217.056L1318.87 202.932M1318.87 202.932L1304.53 194.798M1318.87 202.932L1296.38 208.437M1304.53 194.798L1296.38 208.437" stroke="#AC9C0A" stroke-width="4"/>
<path d="M619 770.117L751.554 781.707L731.527 815.798L745.874 823.932L732.429 838.056L754.966 848.465L716.226 855.077L619 770.117Z" fill="#FFE817"/>
<path d="M619 770.117L751.554 781.707L731.527 815.798M619 770.117L716.226 855.077M619 770.117L723.375 829.437M716.226 855.077L754.966 848.465L732.429 838.056M716.226 855.077L732.429 838.056M732.429 838.056L745.874 823.932M745.874 823.932L731.527 815.798M745.874 823.932L723.375 829.437M731.527 815.798L723.375 829.437" stroke="#AC9C0A" stroke-width="4"/>
<defs>
<radialGradient id="paint0_radial_254_58" cx="0" cy="0" r="1" gradientUnits="userSpaceOnUse" gradientTransform="translate(812 1060) rotate(91.2766) scale(1413.85 1008.37)">
<stop stop-color="#3A5070"/>
<stop offset="1" stop-color="#141A23"/>
</radialGradient>
</defs>
</svg>
