<svg width="286" height="273" viewBox="0 0 286 273" fill="none" xmlns="http://www.w3.org/2000/svg">
<path d="M0 146.5C0 216.364 59.6556 273 133.245 273C206.834 273 286 243.864 286 174C286 104.136 193.509 0 119.92 0C46.3312 0 0 76.636 0 146.5Z" fill="#464B23"/>
<path d="M105.695 67.5C108.029 70.5 114.195 74.7 120.195 67.5" stroke="#FFE817" stroke-width="5" stroke-linecap="round" stroke-linejoin="round"/>
<path d="M128.938 127.797C146.343 128.079 161.69 117.169 169.615 108.371C185.292 90.9678 181.178 62.5075 169.615 47.5318C152.632 25.5362 111.089 25.4426 92.9738 47.5318C74.8586 69.621 85.4258 97.2949 92.9738 108.371C104.818 122.447 117.336 127.609 128.938 127.797ZM128.938 127.797V202.753M128.938 127.797C142.121 137.71 169.462 153.62 186.195 148.868M128.938 127.797C112.357 132.865 76.9953 142.1 68.1953 138.5M128.938 202.753C128.938 202.753 76.2474 172.801 72.3282 182.161C68.4091 191.521 152.454 243 152.454 243M128.938 202.753C128.938 202.753 188.597 221.94 181.629 229.428C174.662 236.916 84.0859 209.305 84.0859 209.305M186.195 148.868C188.822 148.122 191.187 146.867 193.195 145L190.695 138.5C185.529 137.579 177.395 138.363 186.195 148.868ZM68.1953 138.5C59.3953 134.9 61.862 129.865 64.1953 127.797C68.5286 126.865 75.3953 127.7 68.1953 138.5Z" stroke="#FFE817" stroke-width="6" stroke-linecap="round" stroke-linejoin="round"/>
<path d="M136.695 67.5C139.862 71 145.595 74.9 151.195 66.5" stroke="#FFE817" stroke-width="5" stroke-linecap="round" stroke-linejoin="round"/>
</svg>
