<svg width="353" height="360" viewBox="0 0 353 360" fill="none" xmlns="http://www.w3.org/2000/svg">
<ellipse cx="134.499" cy="343" rx="90.5" ry="17" fill="#353B44"/>
<rect x="105.77" y="141.751" width="29.9605" height="16.9402" fill="#E1AA87"/>
<rect width="19.3761" height="83.1593" rx="9.68807" transform="matrix(-0.249915 -0.968268 -0.970185 0.242364 221.521 168.761)" fill="#FFCEAF"/>
<path d="M149.878 188.243C143.043 188.752 136.956 184.231 135.512 177.573V177.573C133.791 169.629 139.267 161.766 147.367 160.551L161.218 158.475C169.936 157.168 177.629 163.85 177.524 172.638V172.638C177.434 180.264 171.439 186.638 163.823 187.205L149.878 188.243Z" fill="#F47500"/>
<path d="M97.9326 275.458L115.081 274.853L112.124 286.953L97.3413 285.138L97.9326 275.458Z" fill="#E3AC89"/>
<path d="M136.203 332.53L160.022 328.093L156.924 287.759L146.896 251.056H126.908L132.524 290.784L136.203 332.53Z" fill="#3C3C3C"/>
<path d="M102.751 251.056H125.726L116.559 292.302L112.658 329.707H88.6692L92.3748 290.887L102.751 251.056Z" fill="#3C3C3C"/>
<path d="M111.631 341V328.031C105.357 328.974 99.4309 330.389 97.2523 328.424V325.673H87.2309V331.961C80.9566 331.018 78.8071 337.594 78.5166 341H111.631Z" fill="white"/>
<path d="M136.467 341V328.372C142.89 329.291 148.957 330.668 151.188 328.755V326.076H161.448V332.199C167.871 331.281 170.072 337.684 170.369 341H136.467Z" fill="white"/>
<path d="M89.5946 184.628L96.6503 253.542L156.571 254.686C150.264 220.194 154.056 149.272 146.389 150.893C144.701 153.544 107.823 151.998 89.5946 150.893V184.628Z" fill="#F47500"/>
<path d="M140.606 153.582C175.752 134.266 115.49 91.0752 99.6262 66.3696C98.4058 64.6851 104.507 61.0916 138.676 60.1932C172.845 59.2948 165.927 99.0968 168.574 122.519C170.514 139.683 178.45 170.154 153.068 169.705C127.685 169.256 136.742 155.64 140.606 153.582Z" fill="#242424"/>
<path d="M66.6028 110.772C66.6028 133.494 79.0642 146.354 131.402 146.354C158.931 146.354 166.294 129.839 166.294 107.117C166.294 84.3954 143.977 65.9756 116.448 65.9756C88.9194 65.9756 66.6028 88.0495 66.6028 110.772Z" fill="#FFCEAF"/>
<path d="M105.768 134.007C116.558 142.208 132.726 144.811 140.312 145.665L131.342 148.102L122.754 147.352L105.768 145.44V134.007Z" fill="#E1AA87"/>
<ellipse cx="4.52217" cy="4.20891" rx="4.52217" ry="4.20891" transform="matrix(-1 0 0 1 158.043 103)" fill="#F49300"/>
<ellipse cx="4.52217" cy="4.20891" rx="4.52217" ry="4.20891" transform="matrix(-1 0 0 1 132.043 104)" fill="#F49300"/>
<path d="M126.273 166.939C90.3837 147.813 113.811 94.1064 130.011 69.6437C131.257 67.9758 125.026 64.4176 90.1345 63.5281C55.2426 62.6385 55.2426 104.299 59.6041 125.241C64.1732 141.549 79.7915 174.055 105.711 173.61C131.631 173.165 130.219 168.977 126.273 166.939Z" fill="#242424"/>
<path d="M129.555 69.3915C131.217 61.9785 136.978 48.8962 128.401 51.2879C118.432 54.0677 126.44 65.685 129.555 69.3915C125.194 64.7584 107.599 55.3718 107.125 61.0519C106.593 67.411 121.871 68.4649 129.555 69.3915Z" fill="#4D4D4D"/>
<path d="M156.859 121.808C149.291 121.825 143.324 115.463 143.307 107.829C143.29 100.196 149.228 93.8081 156.797 93.7917C164.365 93.7753 170.332 100.137 170.349 107.771C170.366 115.404 164.428 121.792 156.859 121.808Z" stroke="#1C2026" stroke-width="5"/>
<path d="M142.701 109.354C141.97 108.08 138.632 106.759 138.004 110.207" stroke="#1C2026" stroke-width="5" stroke-linecap="round"/>
<path d="M124.861 120.849C117.293 120.866 111.326 114.504 111.309 106.87C111.292 99.2368 117.23 92.8491 124.799 92.8327C132.367 92.8163 138.334 99.1782 138.351 106.812C138.368 114.445 132.43 120.833 124.861 120.849Z" stroke="#1C2026" stroke-width="5"/>
<path d="M148.901 88.5103C150.389 87.6787 154.186 86.6785 157.472 89.3304" stroke="black" stroke-width="3" stroke-linecap="round" stroke-linejoin="round"/>
<path d="M124.091 88.8853C125.578 88.0537 129.375 87.0535 132.662 89.7054" stroke="black" stroke-width="3" stroke-linecap="round" stroke-linejoin="round"/>
<path d="M145.671 124.95C144.402 126.079 137.617 126.84 133.824 124.95" stroke="black" stroke-width="3" stroke-linecap="round" stroke-linejoin="round"/>
<rect width="20.2429" height="78.3618" rx="10.1215" transform="matrix(0.256173 -0.966631 -0.97176 -0.235974 76.1489 180.059)" fill="#FFCEAF"/>
<path d="M84.1421 189.395C91.4687 190.964 98.8433 186.537 100.912 179.328V179.328C102.642 173.299 100.161 166.926 94.8278 163.701L83.7164 156.983C74.1636 151.206 61.5841 156.83 59.4293 167.84L59.3375 168.309C57.6842 176.756 63.0462 184.877 71.4685 186.68L84.1421 189.395Z" fill="#F47500"/>
<path d="M205.803 69.4546C203.258 69.3036 200.602 76.7194 199.592 80.4462L203.007 77.4381M205.803 69.4546L203.784 73.5329L206.033 76.3828L208.281 72.0055M205.803 69.4546C206.706 69.5081 207.544 70.532 208.281 72.0055M207.429 77.4535L211.075 81.3742C210.625 78.8513 209.621 74.685 208.281 72.0055" stroke="white"/>
<path d="M214.343 56.8723L220.237 63.6428L213.086 97.5456L210.678 103.577L205.311 344.782C203.137 347.617 203.009 344.893 203.217 343.176L200.631 101.499M214.343 56.8723L213.569 50.6525L210.777 48.5112L209.46 43L207.286 45.8345L200.222 55.0468L194.245 62.8418L198.731 98.9167L200.631 101.499M214.343 56.8723L212.864 70.3672M202.531 104.081L200.631 101.499M208.12 98.2389L209.056 85.4526L204.713 80.9967M204.713 80.9967L201.452 85.2485L201.916 88.9804M204.713 80.9967L205.641 88.4605M209.456 53.125L212.169 59.7068L210.071 68.2259L207.279 66.0846C208.703 62.3 210.775 54.5862 207.671 54.007C204.568 53.4277 204.823 61.576 205.339 65.7225M200.532 57.5348C201.255 59.9649 202.763 65.3228 203.011 67.3131M198.124 63.5659L199.362 73.5176" stroke="white"/>
<path d="M84.3267 78.2549L77.3964 65.8466L72.9791 57.841C74.1694 51.8829 76.4343 39.0442 75.9719 35.3544C75.5094 31.6645 84.4018 22.7636 88.9057 18.7744L98.4399 16.9914L101.701 15.7724L105.727 17.7603C108.487 21.386 114.43 22.2236 117.057 22.1892C117.944 25.556 108.449 25.3725 103.591 24.8598C101.677 27.2988 98.2269 32.5628 99.7376 34.1076C101.248 35.6523 102.657 41.4289 103.172 44.1242L106.824 48.9229L110.195 52.2515L111.819 54.3843L118.935 58.2307C127.473 51.3959 145.566 51.5754 153.545 52.5194C128.366 56.8628 87.2987 91.1496 69.9124 107.75C67.4775 104.551 78.5074 86.7537 84.3267 78.2549ZM84.3267 78.2549C84.7526 73.8609 85.9757 64.7903 87.4611 63.6598C88.9465 62.5293 89.4207 54.3094 89.4722 50.3408M84.3267 78.2549L100.726 67.8791L112.927 58.5928M84.3267 78.2549L99.5717 72.9676L106.733 67.5169L115.565 62.0586L117.078 59.6438" stroke="white"/>
<path d="M150.222 100.615C149.266 103.365 151.356 104.185 152.521 104.251C157.014 104.505 156.176 100.615 154.743 100.37C154.25 100.285 151.719 100.7 152.501 95.7358C153.126 91.7648 152.228 91.714 151.7 92.1849C150.46 93.4503 148.263 96.2974 149.393 97.5632C150.523 98.8291 150.417 100.125 150.222 100.615Z" fill="url(#paint0_linear_152_145)"/>
<path d="M124.562 102.79C123.605 105.541 125.696 106.36 126.861 106.426C131.354 106.68 129.22 103.026 129.083 102.545C128.5 100.5 126.059 102.875 126.841 97.9112C127.466 93.9402 126.568 93.8894 126.04 94.3604C124.8 95.6257 122.602 98.4728 123.733 99.7386C124.863 101.004 124.757 102.301 124.562 102.79Z" fill="url(#paint1_linear_152_145)"/>
<defs>
<linearGradient id="paint0_linear_152_145" x1="152.625" y1="92.0098" x2="152.5" y2="104" gradientUnits="userSpaceOnUse">
<stop stop-color="#FFDC60"/>
<stop offset="1" stop-color="#F49300"/>
</linearGradient>
<linearGradient id="paint1_linear_152_145" x1="126.965" y1="94.1852" x2="126.84" y2="106.175" gradientUnits="userSpaceOnUse">
<stop stop-color="#FFDC60"/>
<stop offset="1" stop-color="#F49300"/>
</linearGradient>
</defs>
</svg>
