<svg width="306" height="266" viewBox="0 0 306 266" fill="none" xmlns="http://www.w3.org/2000/svg">
<path d="M0 155.718C0 216.625 52.9809 266 118.336 266C183.691 266 254 240.599 254 179.692C254 118.785 171.858 28 106.503 28C41.1473 28 0 94.8109 0 155.718Z" fill="#4B3123"/>
<path d="M189.218 105.252C203.702 117.253 219.352 110.35 231.389 109.049C238.5 108.28 278.354 99.5001 273 76.0001C265.845 44.5954 260.756 43.2945 251.028 41.5001C222.445 36.2279 199.5 54.5001 187.5 69.0001C176.741 82.0001 179.562 97.2521 189.218 105.252ZM189.218 105.252L130.12 178.736M189.218 105.252L121 125.5L108 121.5M189.218 105.252L212.358 160.909L251.028 134.338L262.48 135.391M130.12 178.736L215.5 174.5L168 213.5M130.12 178.736L92.9998 208.5L69.4998 195" stroke="#F47500" stroke-width="6" stroke-linecap="round" stroke-linejoin="round"/>
<path d="M258.095 80.5106L249.405 86.4894" stroke="#F47500" stroke-width="5" stroke-linecap="round" stroke-linejoin="round"/>
<path d="M232 107.5C230 104.5 226.6 96.9 229 90.5" stroke="#F47500" stroke-width="5" stroke-linecap="round" stroke-linejoin="round"/>
<path d="M70.5 73H137.5" stroke="#F47500" stroke-width="5" stroke-linecap="round" stroke-linejoin="round"/>
<path d="M91.5 84H148" stroke="#F47500" stroke-width="5" stroke-linecap="round" stroke-linejoin="round"/>
<path d="M31 145H98" stroke="#F47500" stroke-width="5" stroke-linecap="round" stroke-linejoin="round"/>
<path d="M52 156H108.5" stroke="#F47500" stroke-width="5" stroke-linecap="round" stroke-linejoin="round"/>
<path d="M40 109H81" stroke="#F47500" stroke-width="5" stroke-linecap="round" stroke-linejoin="round"/>
<path d="M53 120H88" stroke="#F47500" stroke-width="5" stroke-linecap="round" stroke-linejoin="round"/>
</svg>
