<svg width="253" height="1709" viewBox="0 0 253 1709" fill="none" xmlns="http://www.w3.org/2000/svg">
<path d="M16 3C7.77217 19.196 -3.7468 60.7658 16 97.4767C35.7468 134.188 24.2278 173.358 16 188.354C8.24685 201.551 -2.60755 240.002 16 288.23C34.6076 336.458 23.7531 381.507 16 398.003C6.18989 418.098 -7.54425 469.265 16 513.174C39.5443 557.084 25.8101 612.45 16 634.645C6.66457 651.44 -6.40503 697.809 16 748.916C38.405 800.024 25.3354 861.389 16 885.683C8.72153 903.378 -1.46833 951.906 16 1004.45C33.4683 1057 23.2785 1115.13 16 1137.62C9.03798 1158.62 -0.708836 1211.76 16 1256.39C32.7088 1301.02 22.962 1349.37 16 1367.96C7.13925 1388.96 -5.26579 1443.37 16 1493.03C37.2658 1542.7 24.8607 1603.71 16 1628C11.5 1638.67 5.2 1663 16 1675C21.5 1681.67 46.7336 1706.33 61 1675C75.2664 1643.67 106.968 1623.99 118.5 1675C132.053 1734.96 165.891 1690.23 179.5 1675C200.5 1651.5 223 1640.5 249.5 1651.5" stroke="#F47500" stroke-width="6" stroke-linecap="round"/>
</svg>
