<svg width="292" height="242" viewBox="0 0 292 242" fill="none" xmlns="http://www.w3.org/2000/svg">
<path d="M271 129.864C271 191.795 214.473 242 144.744 242C75.0144 242 0 216.173 0 154.242C0 92.311 87.64 0 157.369 0C227.099 0 271 67.9337 271 129.864Z" fill="#304B23"/>
<path d="M156.449 131.797C173.854 132.079 189.2 121.169 197.126 112.371C212.802 94.9678 208.689 66.5075 197.126 51.5318C180.143 29.5362 138.6 29.4426 120.485 51.5318C102.369 73.621 112.937 101.295 120.485 112.371C132.329 126.447 144.846 131.609 156.449 131.797ZM156.449 131.797V206.753M156.449 131.797C169.632 141.71 258.278 103.251 275.011 98.5C278.011 97.5 284.911 98.2 288.511 109M156.449 131.797C139.868 136.865 97.0107 157.062 86.0107 166C78.0107 172.5 69.0107 187.3 97.0107 194.5" stroke="#17FF21" stroke-width="6" stroke-linecap="round" stroke-linejoin="round"/>
<path d="M185.511 71.9999C182.196 69.0588 180.239 68.8598 176.511 71.9999" stroke="#17FF21" stroke-width="5" stroke-linecap="round" stroke-linejoin="round"/>
<path d="M159.511 65V78" stroke="#17FF21" stroke-width="5" stroke-linecap="round" stroke-linejoin="round"/>
<path d="M149.011 99.5C156.344 105 174.311 112.7 187.511 99.5" stroke="#17FF21" stroke-width="5" stroke-linecap="round" stroke-linejoin="round"/>
</svg>
