<svg width="307" height="295" viewBox="0 0 307 295" fill="none" xmlns="http://www.w3.org/2000/svg">
<path d="M113.173 85.6012C36.2817 96.7275 58.8645 209.4 120.867 209.51L228.114 209.701C245.173 209.732 243.69 201.116 239.166 199.12C229.471 195.569 214.429 186.62 231.824 179.231C249.219 171.841 238.757 162.017 231.351 158.029C227.111 155.371 221.835 147.544 234.656 137.496C247.476 127.448 239.702 120.058 234.212 117.619C227.896 115.62 217.848 109.374 228.183 100.382C238.519 91.3898 232.273 86.9175 227.858 85.8054L113.173 85.6012Z" fill="white"/>
<ellipse cx="8.57448" cy="8.86793" rx="8.57448" ry="8.86793" transform="matrix(-0.0218834 -0.980762 1.0187 0.00181388 102.111 186.428)" fill="black"/>
<ellipse cx="8.57448" cy="8.86793" rx="8.57448" ry="8.86793" transform="matrix(-0.0218834 -0.980762 1.0187 0.00181388 104.747 146.876)" fill="black"/>
<path d="M115.804 85.6053C71.9941 87.6999 61.7717 128.501 64.0765 147.381L66.1847 160.162C65.6183 134.777 89.5988 101.676 106.015 100.416L227.388 99.4126C231.262 99.3806 234.313 96.3511 234.23 92.6207C234.146 88.8625 230.914 85.8103 227.01 85.8034L115.804 85.6053Z" fill="#C2C2C2"/>
</svg>
