<svg width="271" height="242" viewBox="0 0 271 242" fill="none" xmlns="http://www.w3.org/2000/svg">
<path d="M271 129.864C271 191.795 214.473 242 144.744 242C75.0144 242 0 216.173 0 154.242C0 92.311 87.64 0 157.369 0C227.099 0 271 67.9337 271 129.864Z" fill="#48234B"/>
<path d="M151.791 104H199.5L172 165H111L151.791 104Z" fill="#DADADA"/>
<path d="M220.024 53.3098L210.163 110.973L173.929 165.647L169 164.804L181.98 88.9062L220.024 53.3098Z" fill="#706E6E"/>
<path d="M78.9669 117.797C96.372 118.079 111.718 107.169 119.644 98.3707C135.32 80.9678 131.206 52.5075 119.644 37.5318C102.661 15.5362 61.1176 15.4426 43.0024 37.5318C24.8872 59.621 35.4544 87.2949 43.0024 98.3707C54.8466 112.447 67.3642 117.609 78.9669 117.797ZM78.9669 117.797V220.5M78.9669 117.797C41.8421 143.84 67.0281 158.283 132.5 143.5M78.9669 117.797C109.82 122.303 127.949 127.591 154.5 117.797" stroke="#FF17CC" stroke-width="6" stroke-linecap="round" stroke-linejoin="round"/>
<path d="M115 71L111 81" stroke="#FF17CC" stroke-width="5" stroke-linecap="round" stroke-linejoin="round"/>
</svg>
