<svg width="759" height="405" viewBox="0 0 759 405" fill="none" xmlns="http://www.w3.org/2000/svg">
<g clip-path="url(#clip0_297_691)">
<rect width="759" height="405" fill="white"/>
<rect width="759" height="405" fill="url(#paint0_radial_297_691)"/>
<path opacity="0.4" d="M594.048 390.775C594.849 375.324 612.677 383.688 621.933 394.822C631.189 405.957 625.956 383.184 608.381 365.449C590.807 347.714 616.329 336.092 637.477 353.81C658.625 371.528 646.538 348.436 632.009 331.977C617.481 315.519 638.063 301.562 660.675 318.542C683.288 335.521 642.378 282.517 684.753 278.151C718.437 274.674 662.296 332.565 695.375 318.004C728.455 303.443 734.645 315.519 711.798 331.96C688.951 348.402 665.206 371.478 695.317 353.793C725.428 336.109 745.053 347.714 718.554 365.432C692.056 383.15 687.135 397.677 702.015 386.526C716.894 375.374 727.088 375.307 720.097 390.758C717.884 395.149 714.546 399.052 710.333 402.178C707.957 404.01 704.873 405.016 701.683 405H597.348C594.879 400.571 593.744 395.679 594.048 390.775Z" fill="black"/>
<path opacity="0.4" d="M141.959 390.775C141.287 375.324 126.322 383.688 118.552 394.822C110.783 405.957 115.176 383.184 129.928 365.449C144.68 347.714 123.257 336.092 105.505 353.81C87.7527 371.528 97.8991 348.436 110.094 331.977C122.29 315.519 105.013 301.562 86.0316 318.542C67.0503 335.521 101.39 282.517 65.8209 278.151C37.5455 274.674 84.6711 332.565 56.9039 318.004C29.1367 303.443 23.9406 315.519 43.1187 331.96C62.2967 348.402 82.2288 371.478 56.9531 353.793C31.6774 336.109 15.2039 347.714 37.4472 365.432C59.6905 383.15 63.8211 397.677 51.3308 386.526C38.8405 375.374 30.2841 375.307 36.1523 390.758C38.01 395.149 40.8117 399.052 44.348 402.178C46.3426 404.01 48.931 405.016 51.6095 405H139.189C141.262 400.571 142.215 395.679 141.959 390.775Z" fill="black"/>
<path opacity="0.4" d="M255.027 9.40874C255.471 19.6283 265.361 14.0964 270.496 6.73167C275.631 -0.633057 272.727 14.4297 262.978 26.1599C253.229 37.8901 267.387 45.577 279.119 33.8579C290.85 22.1387 284.145 37.4125 276.085 48.2985C268.026 59.1845 279.444 68.4154 291.988 57.185C304.532 45.9547 281.838 81.0121 305.344 83.9002C324.031 86.1996 292.887 47.9097 311.237 57.5405C329.588 67.1713 333.022 59.1845 320.348 48.3096C307.673 37.4347 294.501 22.1721 311.205 33.869C327.909 45.5659 338.796 37.8901 324.096 26.171C309.396 14.4519 306.666 4.84328 314.921 12.2191C323.175 19.5949 328.83 19.6394 324.952 9.41986C323.724 6.51591 321.872 3.93382 319.535 1.86632C318.217 0.654808 316.506 -0.010437 314.736 0.000114441H256.858C255.488 2.92931 254.858 6.16474 255.027 9.40874Z" fill="black"/>
<path d="M463 -11C543.333 70.3333 723.7 224.9 802.5 192.5" stroke="black" stroke-opacity="0.36" stroke-width="5"/>
<path d="M677.436 -20C678.936 26.8333 674.936 114.1 646.936 88.5C611.936 56.5 655.436 33 688.936 67C722.436 101 780.936 215.5 778.436 286" stroke="black" stroke-opacity="0.36" stroke-width="5"/>
<path d="M-7.5 170C13.8333 147.5 69.3 128.1 120.5 230.5C184.5 358.5 180 374 240 370C288 366.8 324 405.333 336 425" stroke="black" stroke-opacity="0.36" stroke-width="5"/>
</g>
<defs>
<radialGradient id="paint0_radial_297_691" cx="0" cy="0" r="1" gradientUnits="userSpaceOnUse" gradientTransform="translate(379.5 202.5) rotate(90) scale(202.5 379.5)">
<stop stop-color="#92E3A9"/>
<stop offset="1" stop-color="#4D9E64"/>
</radialGradient>
<clipPath id="clip0_297_691">
<rect width="759" height="405" fill="white"/>
</clipPath>
</defs>
</svg>
