<svg width="1335" height="551" viewBox="0 0 1335 551" fill="none" xmlns="http://www.w3.org/2000/svg">
<g clip-path="url(#clip0_123_408)">
<rect width="1335" height="551" fill="url(#paint0_radial_123_408)"/>
<path d="M56.2173 293.222C42.6709 291.642 13.0948 342.605 0 368.284V551H636V429.518V396.32H576.5L477.508 368.284L421.968 316.926L375.233 268.531L315.629 248.778L291.923 165.815L238.415 144.086L209.968 85.8148L176.78 71L151.719 110.506V124.333L130.045 144.086L106.339 225.074H93.4697C86.6965 248.449 69.7636 294.802 56.2173 293.222Z" fill="#2A3351"/>
<path d="M96 349.933C85.9404 358.518 6.37416 374.649 -6 399.757V551H636V432.218V399.757H579.774L486.23 372.344L433.747 322.128L389.584 274.808L333.26 255.494L310.858 174.374L260.295 153.129L233.413 96.1523L202.051 81.6667L177 71L191.5 145.133L178.5 174.374L162 239L127 255.494C120.6 278.349 101 345.667 96 349.933Z" fill="#20252C"/>
<path d="M842.319 277.628L806.342 305.291L739.386 337.741L693.915 323.91L670.93 348.913H609.97L563 418.602L574.992 550H1334V252.625L1309.52 243.581L1232.07 286.672C1226.4 283.657 1212.98 279.437 1204.58 286.672C1196.19 293.906 1160.45 302.099 1143.62 305.291L1110.15 268.052H1068.17L1015.71 184L969.237 213.259L941.255 277.628L919.769 268.052H909.275L877.296 252.625L852.812 286.672L842.319 277.628Z" fill="#2A3351"/>
<path d="M842.681 323.883L822 336.796L791.5 383.324L707 374.008L680.5 410.861L610.03 383.324L555 399.672L575.008 551H1335V303.034L1310.48 295.493L1240 346.949L1181.5 383.324L1144.38 346.949L1093.5 341.591L1085.5 295.493L1016 186L993 198.788L965 383.324L941 278.715L921.5 267.526L909 270.723L877.704 303.034L853.188 331.424L842.681 323.883Z" fill="#20252C"/>
<path d="M177.362 303.424L204.367 272.609L224.065 274.918L198.93 318.979L204.175 356.973L145 365.327L172.515 344.766L177.362 303.424Z" fill="#2A3351"/>
<path d="M823.41 383.011L800.136 415.5L803.136 418.5L834.572 393.032L850.728 384.018L878.485 380.044L880.168 358.709L845.744 350.65L845.744 370L823.41 383.011Z" fill="#2A3351"/>
<path d="M8.02326 137.5C-2.37674 127.5 -12.9767 133.333 -16.9767 137.5C-25.9767 140.5 -23.9767 185 -16.9767 198.5C-11.3767 209.3 -6.97674 203 -5.47674 198.5C-5.87674 173.7 27.3566 170.167 44.0233 171.5C58.5233 174.833 95.3233 180.1 126.523 174.5C157.723 168.9 234.857 123.167 269.523 101C249.357 103.5 201.723 113.2 172.523 132C143.323 150.8 125.357 146.167 120.023 141.5C104.023 129.5 76.0233 140.833 64.0233 148C63.2233 127.2 40.0233 135 28.5233 141.5C25.5233 143.196 18.4233 147.5 8.02326 137.5Z" fill="white" fill-opacity="0.4"/>
<path d="M8.02326 137.5C-2.37674 127.5 -12.9767 133.333 -16.9767 137.5C-25.9767 140.5 -23.9767 185 -16.9767 198.5C-11.3767 209.3 -6.97674 203 -5.47674 198.5C-5.87674 173.7 27.3566 170.167 44.0233 171.5C58.5233 174.833 95.3233 180.1 126.523 174.5C157.723 168.9 234.857 123.167 269.523 101C249.357 103.5 201.723 113.2 172.523 132C143.323 150.8 125.357 146.167 120.023 141.5C104.023 129.5 76.0233 140.833 64.0233 148C63.2233 127.2 40.0233 135 28.5233 141.5C25.5233 143.196 18.4233 147.5 8.02326 137.5Z" fill="white" fill-opacity="0.4"/>
<path d="M1104.65 282.655C1065.53 272.284 1047.36 286.976 1043.17 295.618C1026.4 327.307 1081.04 312.156 1092.98 314.343C1103.74 316.312 1133.46 304.541 1135.99 298.936C1147.17 279.346 1217.36 310.022 1255.56 314.343C1315.17 321.065 1432.45 327.307 1424.63 298.499C1416.8 269.691 1376.3 323.039 1389.7 272.572C1395.94 249.048 1344.42 278.909 1336.6 263.929C1328.77 248.949 1310.98 250.966 1303.06 253.847C1306.42 244.628 1304.21 231.671 1300.27 226.479C1278.28 197.478 1263.99 203.247 1234.64 207.568C1211.17 211.025 1192.27 238.398 1203.66 259.698C1180.18 243.565 1167.99 264.409 1154.95 271.131C1118.06 261.913 1106.05 274.973 1104.65 282.655Z" fill="white" fill-opacity="0.6"/>
</g>
<defs>
<radialGradient id="paint0_radial_123_408" cx="0" cy="0" r="1" gradientUnits="userSpaceOnUse" gradientTransform="translate(667.5 275.5) rotate(90) scale(275.5 667.5)">
<stop stop-color="#415076"/>
<stop offset="1" stop-color="#263B70"/>
</radialGradient>
<clipPath id="clip0_123_408">
<rect width="1335" height="551" fill="white"/>
</clipPath>
</defs>
</svg>
