<svg width="66" height="53" viewBox="0 0 66 53" fill="none" xmlns="http://www.w3.org/2000/svg">
<ellipse cx="50.2701" cy="49.0617" rx="3.27013" ry="3.06172" fill="#1D2025"/>
<path fill-rule="evenodd" clip-rule="evenodd" d="M1.64003e-07 16.2144L1.6112e-07 15.9293L13.7209 46.4892L13.7209 52.0008L5.25972e-07 52.0008L1.64003e-07 16.2144ZM26.0878 52.0008L24.3891 48.4705L4.77878 4.7935L25.014 25.091L25.014 30.3531L32.7394 43.9773L32.7394 0.027832L27.0807 0.027832L27.0807 -2.65006e-07L40.8919 -4.00159e-07L40.8919 52.0008L26.0878 52.0008Z" fill="#1D2025"/>
<path d="M47.9462 35.0026L43.7939 35.0026L43.7939 52.0013L28.6287 52.0013L28.6287 0.000488281L46.9533 0.000488102C53.3925 0.000488039 58.1767 1.3682 61.3061 4.10361C64.4354 6.83902 66.0001 11.3329 66.0001 17.5853C66.0001 23.8377 64.5257 28.3036 61.5769 30.9832C58.6281 33.6628 54.0845 35.0026 47.9462 35.0026ZM50.7514 23.8898C51.293 22.9407 52.6857 20.9629 52.6857 18.5067C52.6857 16.0504 51.3532 14.1284 50.7514 13.1236C50.1496 12.1187 47.7657 11.8912 45.9603 11.8912L42.3693 11.9273L42.3693 25.086L46.3214 25.1216C48.0064 25.1216 50.2098 24.8388 50.7514 23.8898Z" fill="#1D2025"/>
</svg>
