<svg width="365" height="241" viewBox="0 0 365 241" fill="none" xmlns="http://www.w3.org/2000/svg">
<g filter="url(#filter0_d_122_220)">
<path d="M285.134 226.568C285.187 227.25 285.575 227.798 286.11 228.219C286.642 228.636 287.351 228.956 288.144 229.199C289.733 229.685 291.78 229.896 293.761 229.868C295.741 229.839 297.707 229.571 299.133 229.066C299.84 228.816 300.463 228.49 300.878 228.066C301.315 227.619 301.535 227.042 301.346 226.389C300.904 224.867 298.43 218.759 295.722 212.212C293.005 205.645 290.03 198.582 288.564 195.112C288.038 193.865 288.099 192.463 288.723 191.257C290.618 187.592 294.622 179.715 297.914 172.326C299.56 168.634 301.033 165.05 301.977 162.171C302.448 160.733 302.792 159.454 302.957 158.417C303.039 157.899 303.079 157.427 303.063 157.017C303.047 156.615 302.976 156.232 302.802 155.922C302.151 154.763 300.88 153.984 299.419 153.5C297.946 153.013 296.206 152.799 294.503 152.828C292.801 152.856 291.105 153.127 289.722 153.63C288.361 154.125 287.195 154.885 286.724 155.967C286.02 157.585 284.091 163.632 282.18 169.796C280.262 175.979 278.347 182.334 277.664 184.608C277.531 185.05 277.236 185.412 276.826 185.64C275.56 186.343 274.028 185.321 274.192 183.881L276.962 159.573C277.215 157.355 276.099 155.151 273.979 154.286C271.969 153.466 269.239 152.562 266.823 152.503C265.611 152.474 264.434 152.655 263.459 153.207C262.468 153.768 261.729 154.688 261.373 156.04C261.124 156.987 260.947 158.756 260.819 161.081C260.691 163.422 260.61 166.375 260.566 169.722C260.478 176.416 260.536 184.701 260.654 192.858C260.812 203.901 261.078 214.693 261.233 221.006C261.308 224.029 261.357 226.024 261.357 226.529C261.357 227.149 261.737 227.616 262.218 227.946C262.698 228.275 263.349 228.52 264.077 228.704C265.54 229.074 267.461 229.228 269.359 229.2C271.258 229.171 273.175 228.96 274.632 228.578C275.356 228.388 275.999 228.147 276.472 227.845C276.93 227.552 277.347 227.122 277.347 226.529C277.347 225.428 276.996 220.911 276.582 215.94C276.166 210.952 275.682 205.466 275.409 202.398C275.318 201.384 276.116 200.515 277.139 200.515C277.913 200.515 278.588 201.021 278.799 201.761C279.543 204.37 281.065 209.754 282.433 214.903C283.117 217.479 283.762 219.992 284.252 222.07C284.745 224.163 285.072 225.774 285.134 226.568Z" fill="white" stroke="white" stroke-linejoin="round"/>
<path d="M237.955 229.527H237.968H237.981H237.994H238.007H238.021H238.034H238.048H238.062H238.075H238.089H238.104H238.118H238.132H238.147H238.162H238.176H238.191H238.207H238.222H238.237H238.253H238.268H238.284H238.3H238.316H238.332H238.348H238.364H238.381H238.397H238.414H238.431H238.448H238.465H238.482H238.5H238.517H238.535H238.552H238.57H238.588H238.606H238.624H238.643H238.661H238.679H238.698H238.717H238.736H238.755H238.774H238.793H238.812H238.831H238.851H238.871H238.89H238.91H238.93H238.95H238.97H238.991H239.011H239.031H239.052H239.073H239.093H239.114H239.135H239.156H239.178H239.199H239.22H239.242H239.263H239.285H239.307H239.329H239.351H239.373H239.395H239.417H239.44H239.462H239.485H239.507H239.53H239.553H239.576H239.599H239.622H239.645H239.668H239.692H239.715H239.739H239.762H239.786H239.81H239.834H239.858H239.882H239.906H239.93H239.955H239.979H240.003H240.028H240.053H240.077H240.102H240.127H240.152H240.177H240.202H240.227H240.253H240.278H240.303H240.329H240.354H240.38H240.406H240.432H240.457H240.483H240.509H240.535H240.562H240.588H240.614H240.64H240.667H240.693H240.72H240.747H240.773H240.8H240.827H240.854H240.881H240.908H240.935H240.962H240.989H241.016H241.044H241.071H241.098H241.126H241.153H241.181H241.209H241.236H241.264H241.292H241.32H241.348H241.376H241.404H241.432H241.46H241.488H241.517H241.545H241.573H241.602H241.63H241.659H241.687H241.716H241.744H241.773H241.802H241.831H241.859H241.888H241.917H241.946H241.975H242.004H242.033H242.062H242.092H242.121H242.15H242.179H242.209H242.238H242.267H242.297H242.326H242.356H242.385H242.415H242.444H242.474H242.504H242.533H242.563H242.593H242.623H242.653H242.682H242.712H242.742H242.772H242.802H242.832H242.862H242.892H242.922H242.952H242.983H243.013H243.043H243.073H243.103H243.134H243.164H243.194H243.224H243.255H243.285H243.315H243.346H243.376H243.407H243.437H243.467H243.498H243.528H243.559H243.589H243.62H243.65H243.681H243.711H243.742H243.773H243.803H243.834H243.864H243.895H243.926H243.956H243.987H244.017H244.048H244.079H244.109H244.14H244.171H244.201H244.232H244.263H244.293H244.324H244.355H244.385H244.416H244.446H244.477H244.508H244.538H244.569H244.6H244.63H244.661H244.692H244.722H244.753H244.783H244.814H244.845H244.875H244.906H244.936H244.967H244.997H245.028H245.058H245.089H245.119H245.15H245.18H245.211H245.241H245.272H245.302H245.332H245.363H245.393H245.423H245.454H245.484H245.514H245.544H245.575H245.605H245.635H245.665H245.695H245.725H245.755H245.785H245.816H245.846H245.875H245.905H245.935H245.965H245.995H246.025H246.055H246.084H246.114H246.144H246.174H246.203H246.233H246.262H246.292H246.321H246.351H246.38H246.41H246.439H246.468H246.498H246.527H246.556H246.585H246.614H246.643H246.673H246.701H246.73H246.759H246.788H246.817H246.846H246.875H246.903H246.932H246.96H246.989H247.018H247.046H247.074H247.103H247.131H247.159H247.187H247.216H247.244H247.272H247.3H247.328H247.356H247.383H247.411H247.439H247.467H247.494H247.522H247.549H247.577H247.604H247.631H247.659H247.686H247.713H247.74H247.767H247.794H247.821H247.848H247.874H247.901H247.928H247.954H247.981H248.007H248.033H248.06H248.086H248.112H248.138H248.164H248.19H248.216H248.242H248.267H248.293H248.318H248.344H248.369H248.395H248.42H248.445H248.47H248.495H248.52H248.545H248.57H248.595H248.619H248.644H248.668H248.693H248.717H248.741H248.765H248.789H248.813H248.837H248.861H248.885H248.908H248.932H248.955H248.979H249.002H249.025H249.048H249.071H249.094H249.117H249.14H249.163H249.185H249.208H249.23H249.252H249.274H249.296H249.318H249.34H249.362H249.384H249.405H249.427H249.448H249.469H249.491H249.512H249.533H249.554H249.574H249.595H249.616H249.636H249.656H249.677H249.697H249.717H249.737H249.757H249.776H249.796H249.815H249.835H249.854H249.873H249.892H249.911H249.93H249.949H249.967H249.986H250.004H250.023H250.041H250.059H250.077H250.094H250.112H250.13H250.147H250.164H250.182H250.199H250.216H250.233H250.249H250.266H250.282H250.299H250.315H250.331H250.347H250.363H250.378H250.394H250.41H250.425H250.44H250.455H250.47H250.485H250.5H250.514H250.529H250.543H250.557H250.571H250.585H250.599H250.612H250.626H250.639C250.858 229.527 251.02 229.413 251.118 229.297C251.205 229.192 251.254 229.072 251.284 228.977C251.345 228.784 251.374 228.538 251.388 228.272C251.417 227.729 251.389 226.954 251.314 225.997C251.165 224.074 250.826 221.334 250.352 218.05C249.403 211.478 247.907 202.687 246.288 193.8C244.669 184.912 242.924 175.922 241.476 168.952C240.752 165.467 240.101 162.484 239.577 160.27C239.315 159.163 239.084 158.245 238.89 157.55C238.702 156.877 238.535 156.36 238.396 156.1C238.117 155.583 237.629 155.172 237.047 154.845C236.46 154.515 235.74 154.25 234.943 154.042C233.348 153.626 231.38 153.422 229.397 153.422C227.414 153.422 225.389 153.626 223.678 154.04C221.995 154.447 220.512 155.081 219.727 156.016C219.599 156.168 219.482 156.381 219.374 156.615C219.261 156.857 219.143 157.155 219.019 157.501C218.772 158.193 218.493 159.103 218.19 160.195C217.583 162.379 216.871 165.318 216.105 168.751C214.572 175.617 212.818 184.48 211.255 193.285C209.693 202.088 208.32 210.84 207.55 217.482C207.165 220.801 206.93 223.606 206.898 225.631C206.882 226.641 206.917 227.479 207.016 228.097C207.065 228.405 207.134 228.683 207.234 228.909C207.329 229.122 207.49 229.374 207.775 229.49C209.594 230.228 211.997 230.215 214.239 230.043C215.144 229.973 216.041 229.875 216.878 229.784C217.087 229.762 217.293 229.739 217.494 229.718C218.508 229.61 219.4 229.527 220.109 229.527C220.626 229.527 221.043 229.323 221.304 228.916C221.537 228.554 221.607 228.088 221.618 227.63C221.635 226.903 221.501 225.967 221.362 225C221.326 224.75 221.29 224.499 221.256 224.248C221.085 222.986 220.96 221.697 221.116 220.568C221.27 219.45 221.689 218.549 222.559 217.972C226.519 215.35 231.767 215.359 235.495 217.965C236.324 218.545 236.767 219.459 236.971 220.588C237.176 221.723 237.127 223.016 237.02 224.272C236.987 224.658 236.947 225.046 236.909 225.424C236.826 226.24 236.747 227.01 236.748 227.618C236.748 228.062 236.787 228.504 236.941 228.849C237.022 229.031 237.144 229.207 237.327 229.336C237.515 229.469 237.731 229.527 237.955 229.527ZM225.429 180.824C226.232 179.58 227.266 178.724 228.57 178.428C228.923 178.417 229.36 178.4 229.891 178.374C231.677 178.289 232.91 178.975 233.768 180.121C234.646 181.296 235.149 182.985 235.354 184.903C235.763 188.741 234.954 193.257 233.938 195.711C232.981 198.022 231.023 198.923 229.065 198.802C227.079 198.68 225.134 197.506 224.277 195.689C223.843 194.769 223.517 193.274 223.388 191.502C223.259 189.74 223.328 187.746 223.654 185.849C223.98 183.947 224.559 182.172 225.429 180.824Z" fill="white" stroke="white" stroke-linejoin="round"/>
<path d="M136.779 202.051C136.783 202.051 136.788 202.051 136.793 202.051C136.798 202.051 136.804 202.05 136.81 202.05C137.751 201.99 138.581 201.947 139.323 201.909L139.473 201.901C140.153 201.866 140.76 201.834 141.306 201.798C142.473 201.721 143.395 201.621 144.206 201.403C145.869 200.956 146.989 200.029 148.843 198.08C150.791 196.031 151.759 193.29 152.248 189.971C152.737 186.657 152.756 182.7 152.756 178.178C152.756 169.011 149.846 162.345 145.817 158.27C143.737 156.166 140.951 155.306 137.769 155.263C134.595 155.221 130.986 155.992 127.191 157.191C127.181 157.194 127.17 157.197 127.16 157.201L127.341 157.667C127.16 157.201 127.16 157.201 127.16 157.201L127.159 157.202L127.158 157.202L127.153 157.204L127.136 157.211C127.122 157.217 127.101 157.225 127.074 157.236C127.02 157.258 126.943 157.291 126.843 157.334C126.645 157.421 126.36 157.551 126.01 157.725C125.31 158.073 124.346 158.6 123.286 159.316C121.172 160.745 118.643 162.949 117.08 166.027C116.86 166.461 116.681 167.086 116.53 167.84C116.377 168.604 116.245 169.536 116.131 170.606C115.904 172.747 115.747 175.469 115.646 178.559C115.445 184.738 115.469 192.416 115.611 199.907C115.752 207.399 116.012 214.712 116.284 220.164C116.419 222.889 116.558 225.153 116.687 226.744C116.752 227.538 116.814 228.171 116.873 228.612C116.902 228.83 116.932 229.014 116.964 229.151C116.98 229.216 117 229.291 117.028 229.359C117.042 229.392 117.066 229.445 117.105 229.498C117.136 229.54 117.232 229.661 117.41 229.703C117.498 229.724 117.624 229.738 117.75 229.749C117.888 229.762 118.064 229.774 118.27 229.785C118.682 229.808 119.227 229.829 119.862 229.845C121.131 229.876 122.767 229.885 124.428 229.844C126.087 229.802 127.781 229.71 129.161 229.537C129.851 229.45 130.475 229.342 130.983 229.205C131.467 229.074 131.929 228.897 132.215 228.626C132.336 228.511 132.411 228.37 132.46 228.245C132.512 228.116 132.549 227.971 132.578 227.82C132.635 227.518 132.664 227.143 132.675 226.717C132.696 225.862 132.641 224.736 132.535 223.444C132.321 220.857 131.895 217.551 131.422 214.298C130.95 211.044 130.43 207.835 130.029 205.441C129.828 204.243 129.657 203.249 129.536 202.554C129.502 202.363 129.473 202.195 129.448 202.051H136.779ZM137.764 168.162L137.768 168.164C140.253 168.976 141.404 171.248 142.183 172.784C142.249 172.916 142.313 173.042 142.375 173.161C142.711 173.811 142.985 174.878 143.172 176.264C143.357 177.636 143.451 179.276 143.451 181.04C143.451 184.528 142.636 187.148 141.993 188.451C141.393 189.666 140.327 190.594 138.186 191.045L138.186 191.045L138.18 191.046L138.18 191.046L138.18 191.046L138.18 191.046L138.178 191.046L138.167 191.049C138.156 191.051 138.14 191.055 138.118 191.059C138.073 191.068 138.007 191.081 137.92 191.096C137.747 191.127 137.494 191.167 137.18 191.204C136.551 191.279 135.683 191.341 134.728 191.293C132.796 191.196 130.613 190.655 129.237 188.987C128.556 188.163 128.036 186.862 127.695 185.257C127.356 183.662 127.205 181.814 127.228 179.939C127.275 176.162 128.027 172.394 129.275 170.395C130.469 168.484 132.529 167.9 134.394 167.82C135.319 167.781 136.169 167.868 136.79 167.965C137.099 168.014 137.349 168.065 137.521 168.104C137.607 168.123 137.673 168.139 137.716 168.15C137.738 168.156 137.754 168.16 137.764 168.162Z" fill="white" stroke="white" stroke-linejoin="round"/>
<path d="M201.352 177.365C201.352 182.001 200.699 185.971 199.355 189.035C198.012 192.098 195.811 195.176 192.966 197.66C192.966 197.66 202.949 228.102 199.355 228.609C195.762 229.116 194.564 228.609 187.775 228.609C180.987 228.609 182.584 200.792 182.584 200.792H174.597C174.597 200.792 176.939 227.595 173.799 228.609C170.659 229.624 166.212 229.624 162.218 228.609C158.225 227.595 158.225 163.667 161.02 158.086C163.816 152.505 177.338 153.012 177.338 153.012C185.239 153.012 191.328 155.209 194.963 159.1C198.677 162.991 201.352 168.838 201.352 177.365ZM182.091 189.035C184.146 189.035 184.621 187.654 185.49 186.412C186.359 185.17 186.623 182.481 186.623 179.252C186.623 175.941 186.359 172.857 185.49 171.615C184.621 170.291 183.311 168.274 181.336 168.274C181.336 168.274 174.063 167.208 172.601 170.366C171.139 173.524 170.604 185.274 172.601 187.752C174.597 190.23 182.091 189.035 182.091 189.035Z" fill="white"/>
<path d="M210.416 221.088C207.681 225.386 200.239 222.985 196.82 222.008C195.807 224.287 184.8 225.184 186.623 227.529C188.447 229.873 212.406 231.132 216.459 229.829L210.416 221.088Z" fill="white" stroke="white"/>
<path d="M265.187 220.565C262.625 225.02 252.392 224.163 248.938 223.389C248.017 225.725 239.763 226.166 241.677 228.4C243.592 230.635 267.573 230.48 271.569 228.94L265.187 220.565Z" fill="white" stroke="white"/>
<path d="M163.232 220.815C160.726 225.316 134.194 222.659 130.731 221.949C129.838 224.302 120.639 226.185 122.581 228.384C124.523 230.583 162.152 230.944 166.129 229.331L163.232 220.815Z" fill="white" stroke="white"/>
<path d="M287.679 229.424L287.46 229.371L295.769 220.629C298.286 221.243 299.923 222.102 313.519 220.629C330.514 218.789 324.471 211.428 335.046 198.546C343.505 188.241 350.656 189.192 357.706 193.486C362.993 197.166 362.389 211.336 352.418 203.607C342.504 195.921 337.867 206.706 335.092 213.16L335.046 213.268C323.318 238.179 303.259 233.251 287.679 229.424Z" fill="white"/>
</g>
<g filter="url(#filter1_d_122_220)">
<path d="M345.687 125.915C346.303 129.039 343.923 131.979 340.716 131.979H336.902C334.061 131.979 331.776 129.64 331.965 126.824C332.859 113.518 335.087 105.641 332.729 89.62C332.273 86.5159 334.639 83.6582 337.798 83.6582H339.211C342.851 83.6582 345.328 87.4142 344.473 90.9273C341.927 101.392 343.128 112.947 345.687 125.915Z" fill="white"/>
<path fill-rule="evenodd" clip-rule="evenodd" d="M340.716 132.693H336.902C333.661 132.693 331.03 130.02 331.248 126.778C331.482 123.289 331.806 120.185 332.114 117.22C332.992 108.795 333.752 101.501 332.018 89.7238C331.502 86.2122 334.177 82.9453 337.798 82.9453H339.211C343.404 82.9453 346.114 87.2223 345.172 91.0955C342.664 101.402 343.837 112.83 346.392 125.779C347.093 129.333 344.386 132.693 340.716 132.693ZM340.716 131.979C343.923 131.979 346.303 129.04 345.687 125.916C343.128 112.948 341.928 101.393 344.473 90.928C345.328 87.4148 342.851 83.6589 339.211 83.6589H337.798C334.639 83.6589 332.273 86.5165 332.729 89.6207C334.477 101.492 333.706 108.892 332.825 117.343C332.518 120.297 332.197 123.379 331.965 126.825C331.776 129.64 334.061 131.979 336.902 131.979H340.716Z" fill="white"/>
<path d="M255.531 81.0651C259.378 75.8959 264.105 75.0039 272.792 75.0039C281.48 75.0039 285.871 75.9648 289.585 81.0651C293.365 86.1653 294.593 90.163 294.593 101.673C294.593 113.114 292.096 119.914 288.25 125.428C284.403 130.942 281.414 131.979 272.792 131.979C264.171 131.979 260.313 129.342 256.533 123.897C252.753 118.452 250.189 111.333 250.189 99.8923C250.189 88.3823 251.751 86.2342 255.531 81.0651ZM282.24 99.8923C282.24 93.5515 280.564 89.2783 279.569 87.0728C278.641 84.7984 275.777 83.6611 272.792 83.6611C269.874 83.6611 267.55 84.7018 266.215 87.0728C265.353 89.2783 263.878 93.1874 263.21 99.8923V103.201C263.21 109.886 265.286 113.47 266.215 115.607C267.209 117.674 270.173 118.605 273.091 118.605C276.075 118.605 278.707 117.605 279.569 115.607C280.431 113.608 282.24 109.473 282.24 103.201V99.8923Z" fill="white"/>
<path d="M243.563 93.4114C243.563 96.914 242.989 99.9132 241.811 102.227C240.632 104.542 238.7 106.867 236.205 108.744C236.205 108.744 244.964 131.742 241.811 132.125C238.657 132.508 237.606 132.125 231.65 132.125C225.693 132.125 227.095 111.11 227.095 111.11H220.087C220.087 111.11 222.142 131.359 219.387 132.125C216.632 132.892 212.73 132.892 209.226 132.125C205.722 131.359 205.722 83.0623 208.175 78.8459C210.627 74.6296 222.492 75.013 222.492 75.013C229.425 75.013 234.767 76.6728 237.957 79.6124C241.215 82.5521 243.563 86.9691 243.563 93.4114ZM225.196 101.259C226.998 101.259 228.281 100.789 229.044 99.8512C229.806 98.913 230.187 97.2243 230.187 94.785C230.187 92.2831 229.806 90.5631 229.044 89.6249C228.281 88.6241 227.033 88.1238 225.3 88.1238H218.336V101.259H225.196Z" fill="white"/>
<path d="M198 132.842H162.42C162.42 132.842 159.017 81.0074 162.746 78.3196C166.475 75.6319 187.492 76.7838 193.254 78.3196C199.017 79.8555 196.981 89.1023 196.981 89.1023C196.981 89.1023 177.661 82.5432 174.949 89.1023C172.238 95.6614 174.272 96.9188 178 97.7941C181.729 98.6695 194.74 97.7941 194.74 97.7941V110.131C194.74 110.131 179.356 106.349 176.983 110.131C174.61 113.913 176.237 118.192 180.169 119.757C184.102 121.323 198 119.757 198 119.757V132.842ZM193.254 58.3537C193.051 59.5056 183.43 68.7206 183.43 68.7206L174.271 68.7207L179.456 58.3538C179.456 58.3538 193.458 57.2018 193.254 58.3537Z" fill="white"/>
<path d="M93.7953 116.988C93.7953 120.374 85.902 121.095 77.6679 109.802C64.3076 91.4772 43.818 77.8229 25.2613 92.6075C16.6459 101.623 27.102 102.764 46.1377 98.0165C62.0434 94.0499 75.6755 137.464 93.7953 134.504C105.529 132.588 108.81 127.586 108.81 116.988V51.1105C116.411 72.6705 132.946 117.587 138.285 124.774C143.623 131.961 148.665 127.369 150.519 124.175V30.1494C151.182 19.0451 154.041 15.5764 156.636 15.1772C172.058 15.1772 165.099 27.6994 167.419 38.1569C170.732 46.4506 176.315 42.2232 177.36 38.1569C179.77 28.7742 177.546 7.75045 163.31 2.00111C149.073 -3.74823 137.264 3.89972 136.616 12.1825V85.2467C129.943 73.748 118.045 25.8964 107.698 12.1825C96.5759 -0.274438 93.7953 5.70272 93.7953 12.1825V116.988Z" fill="white"/>
<path d="M140 125.842C140.331 129.675 156.094 132.203 162.5 132.842L163.847 122.626C156.557 124.159 147.278 118.792 147.941 114.576C148.604 110.359 140 125.842 140 125.842Z" fill="white"/>
<path d="M211.038 123.324C208.638 126.693 198.5 124.608 195.5 123.842C194.611 125.628 185.103 129.144 186.704 130.981C188.304 132.819 214.823 133 218.379 131.979L211.038 123.324Z" fill="white"/>
<path fill-rule="evenodd" clip-rule="evenodd" d="M211.013 122.742L219.01 132.17L218.479 132.322C217.996 132.461 217.159 132.572 216.093 132.661C215.016 132.751 213.675 132.821 212.166 132.87C209.148 132.968 205.443 132.983 201.8 132.91C198.159 132.836 194.573 132.673 191.794 132.412C190.405 132.282 189.21 132.127 188.306 131.944C187.855 131.853 187.467 131.753 187.161 131.643C186.87 131.538 186.596 131.405 186.431 131.216C186.284 131.046 186.194 130.841 186.21 130.611C186.225 130.39 186.333 130.202 186.465 130.049C186.722 129.752 187.163 129.485 187.674 129.24C188.714 128.741 190.249 128.241 191.83 127.751C192.173 127.645 192.518 127.539 192.862 127.434C194.119 127.049 195.357 126.67 196.387 126.297C197.043 126.06 197.601 125.83 198.018 125.609C198.226 125.499 198.39 125.395 198.511 125.299C198.635 125.201 198.693 125.127 198.715 125.082L198.845 124.822L199.127 124.894C200.599 125.27 202.96 125.627 205.239 125.477C207.535 125.326 209.642 124.668 210.745 123.119L211.013 122.742ZM211.048 123.891C209.705 125.444 207.479 126.045 205.287 126.189C203.036 126.337 200.724 126.011 199.189 125.644C199.12 125.721 199.041 125.792 198.959 125.857C198.792 125.99 198.587 126.116 198.356 126.239C197.895 126.483 197.3 126.726 196.633 126.967C195.584 127.347 194.322 127.734 193.063 128.119C192.722 128.224 192.381 128.328 192.044 128.432C190.453 128.925 188.971 129.411 187.987 129.882C187.486 130.122 187.163 130.336 187.01 130.514C186.937 130.598 186.928 130.645 186.927 130.658C186.927 130.659 186.927 130.658 186.927 130.658C186.926 130.663 186.924 130.691 186.975 130.749C187.011 130.79 187.131 130.873 187.406 130.972C187.666 131.066 188.015 131.157 188.449 131.245C189.316 131.42 190.483 131.573 191.861 131.702C194.616 131.96 198.182 132.123 201.815 132.196C205.447 132.27 209.139 132.254 212.143 132.156C213.645 132.108 214.972 132.038 216.032 131.95C216.727 131.892 217.295 131.826 217.719 131.756L211.048 123.891Z" fill="white"/>
<path d="M264.107 126.57C261.231 132.72 243.136 132.552 236.272 131.647V126.57C242.7 126.269 256.155 127.652 259.8 121.161C267.09 114.67 281.736 105.439 282.001 94.4766L286.972 98.0826C281.78 107.098 269.94 125.416 264.107 126.57Z" fill="white"/>
<path fill-rule="evenodd" clip-rule="evenodd" d="M281.659 93.7871L287.443 97.9838L287.284 98.2607C284.684 102.776 280.418 109.622 276.069 115.487C273.895 118.419 271.695 121.114 269.666 123.152C268.652 124.171 267.674 125.031 266.759 125.676C265.915 126.271 265.106 126.697 264.355 126.882C263.539 128.463 261.802 129.601 259.638 130.42C257.389 131.27 254.609 131.801 251.724 132.11C245.951 132.727 239.683 132.458 236.225 132.002L235.913 131.961V126.231L236.255 126.215C237.399 126.161 238.765 126.16 240.249 126.16C240.864 126.159 241.498 126.159 242.145 126.155C244.364 126.141 246.748 126.083 249.04 125.833C251.335 125.583 253.521 125.143 255.35 124.375C257.177 123.607 258.625 122.52 259.486 120.988L259.515 120.936L259.56 120.896C260.975 119.637 262.666 118.273 264.468 116.822C264.997 116.395 265.536 115.961 266.079 115.52C268.48 113.571 270.992 111.475 273.283 109.242C277.88 104.762 281.513 99.8004 281.642 94.4691L281.659 93.7871ZM264.248 126.172C264.859 126.009 265.561 125.646 266.343 125.095C267.213 124.482 268.158 123.652 269.155 122.65C271.149 120.647 273.326 117.983 275.491 115.064C279.73 109.346 283.896 102.682 286.5 98.1833L282.327 95.1558C281.919 100.525 278.219 105.432 273.787 109.751C271.471 112.008 268.938 114.121 266.534 116.072C265.985 116.518 265.442 116.955 264.911 117.384C263.219 118.747 261.639 120.02 260.292 121.205L264.248 126.172ZM259.838 121.786C258.86 123.258 257.378 124.297 255.63 125.032C253.71 125.839 251.447 126.289 249.119 126.542C246.788 126.796 244.375 126.854 242.15 126.868C241.49 126.873 240.848 126.873 240.23 126.873C238.902 126.874 237.683 126.875 236.632 126.913V131.334C240.095 131.759 246.107 131.993 251.647 131.4C254.502 131.095 257.214 130.572 259.382 129.753C261.46 128.967 262.976 127.932 263.684 126.615L259.838 121.786Z" fill="white"/>
<path fill-rule="evenodd" clip-rule="evenodd" d="M327.884 130.511C344.631 129.936 339.846 131.231 341.507 124.397C341.839 119.722 341.839 105.695 337.852 108.572C336.8 109.332 340.178 122.718 337.852 124.397C341.175 130.511 345.363 127.288 335.526 127.634C329.851 127.834 330.21 127.634 316.254 127.634C315.031 127.634 311.603 125.476 310.551 122.595C310.092 121.336 308.47 102.568 308.28 84.4151C318.58 73.8013 326.914 63.2998 328.216 59.6583C332.204 48.509 315.258 36.9998 308.612 41.3155C301.635 46.7104 303.926 61.1622 304.041 78.2574L282.695 101.739C283.648 104.25 289.9 94.42 304.041 84.4151C304.199 90.2644 304.613 99.9778 304.821 105.082C305.074 111.28 305.289 116.57 305.289 120.081C305.289 120.264 305.282 120.465 305.275 120.682C305.206 122.609 305.094 125.749 309.609 127.634C312.587 128.878 320.091 130.779 327.884 130.511ZM304.041 84.4151C305.065 76.0653 307.781 67.3267 309.331 56.781C310.882 46.2353 324.561 44.5525 323.564 56.781C322.568 69.0094 304.041 84.4151 304.041 84.4151Z" fill="white"/>
<path fill-rule="evenodd" clip-rule="evenodd" d="M324 42.7596C328.9 46.7619 333.108 53.4469 330.587 60.4948C330.148 61.7224 329.227 63.2829 328.088 64.9642C326.914 66.6996 325.384 68.7416 323.591 70.9784C320.167 75.2483 315.722 80.3022 310.808 85.4079C310.924 94.0952 311.359 102.855 311.825 109.672C312.067 113.213 312.317 116.219 312.533 118.408C312.642 119.504 312.74 120.382 312.824 121.013C312.866 121.33 312.902 121.566 312.93 121.729C312.938 121.774 312.945 121.807 312.949 121.831C313.28 122.663 314.009 123.535 314.903 124.24C315.347 124.59 315.771 124.849 316.1 125.009C316.254 125.084 316.354 125.121 316.404 125.138C322.505 125.138 325.837 125.176 328.126 125.203C331.056 125.236 332.274 125.25 335.398 125.141L334.595 123.662L336.048 122.613C336.11 122.341 336.16 121.905 336.171 121.28C336.194 119.956 336.042 118.245 335.831 116.426C335.755 115.768 335.669 115.081 335.585 114.405C335.448 113.307 335.315 112.238 335.231 111.365C335.163 110.652 335.114 109.933 335.131 109.33C335.14 109.036 335.167 108.659 335.258 108.279C335.32 108.018 335.541 107.153 336.374 106.553C337.251 105.92 338.51 105.418 339.913 105.85C341.192 106.244 341.937 107.227 342.347 107.953C343.164 109.4 343.566 111.464 343.797 113.352C344.28 117.294 344.19 122.14 344.017 124.574L344.002 124.782L343.953 124.984C343.797 125.626 343.709 126.172 343.655 126.66C343.76 126.8 343.912 127.029 344.022 127.343C344.141 127.681 344.233 128.181 344.094 128.755C344.026 129.038 343.91 129.3 343.758 129.533C343.607 129.763 343.435 129.944 343.268 130.084C343.249 130.1 343.231 130.115 343.212 130.13C342.91 130.901 342.366 131.553 341.564 131.991C340.866 132.372 340.091 132.52 339.437 132.604C338.746 132.692 337.907 132.738 336.931 132.771C336.133 132.798 335.184 132.819 334.076 132.844C333.815 132.849 333.545 132.855 333.266 132.861C331.796 132.894 330.05 132.937 327.971 133.008C319.805 133.289 311.94 131.317 308.634 129.937C305.858 128.778 304.218 127.086 303.4 125.133C302.66 123.363 302.723 121.633 302.758 120.683C302.759 120.653 302.76 120.623 302.761 120.594C302.769 120.366 302.775 120.212 302.775 120.082C302.775 116.635 302.562 111.407 302.308 105.184C302.279 104.469 302.246 103.662 302.21 102.787C302.051 98.9363 301.838 93.7675 301.68 89.2911C296.72 93.1629 292.955 96.8287 290.194 99.5452C290.063 99.6733 289.934 99.8004 289.807 99.9262C288.311 101.399 286.995 102.695 285.986 103.472C285.569 103.793 284.893 104.283 284.081 104.51C283.536 105.398 282.875 106.307 282.196 107.182C280.991 108.736 279.55 110.406 278.166 111.994C277.97 112.218 277.777 112.44 277.585 112.66C276.394 114.024 275.272 115.308 274.342 116.454C273.198 117.861 272.585 118.774 272.403 119.217C271.881 120.495 270.414 121.11 269.126 120.591C267.839 120.072 267.219 118.616 267.742 117.338C268.244 116.11 269.339 114.655 270.426 113.317C271.418 112.097 272.606 110.736 273.791 109.379C273.982 109.161 274.172 108.943 274.362 108.725C275.751 107.131 277.104 105.561 278.21 104.134C279.357 102.656 280.073 101.539 280.353 100.829L280.521 100.404L301.517 77.3076C301.483 74.3505 301.385 71.4021 301.291 68.5448C301.132 63.7375 300.981 59.1882 301.154 55.2898C301.44 48.8586 302.599 42.8008 307.067 39.3459L307.149 39.2826L307.236 39.2263C309.742 37.599 312.884 37.6442 315.683 38.3794C318.545 39.131 321.48 40.7015 324 42.7596ZM307.776 121.195C307.76 121.99 307.798 122.622 308.046 123.216C308.096 123.335 308.16 123.465 308.245 123.603C308.225 123.551 308.206 123.499 308.187 123.447C308.074 123.136 308.01 122.787 307.975 122.589C307.929 122.33 307.883 122.016 307.836 121.664C307.817 121.518 307.797 121.361 307.776 121.195ZM337.896 110.3C337.897 110.299 337.902 110.305 337.912 110.32C337.901 110.307 337.896 110.3 337.896 110.3ZM307.744 77.5668C308.935 76.3744 310.233 75.0139 311.539 73.5371C313.856 70.9162 316.157 67.9737 317.926 64.991C319.713 61.9795 320.852 59.1024 321.058 56.5804C321.272 53.9521 320.667 52.4814 320.043 51.7339C319.447 51.0196 318.595 50.6717 317.556 50.7344C315.399 50.8645 312.445 52.8939 311.821 57.1426C311.043 62.4308 309.979 67.2651 308.994 71.741L308.946 71.9556C308.52 73.8926 308.111 75.7555 307.744 77.5668ZM306.115 60.8276C306.376 59.3914 306.622 57.9246 306.843 56.4211C307.769 50.124 312.43 46.0393 317.251 45.7487C318.202 45.6914 319.156 45.7865 320.07 46.0458C318.217 44.6713 316.214 43.6856 314.397 43.2083C312.342 42.6685 310.9 42.8624 310.069 43.3571C307.621 45.3194 306.462 49.169 306.18 55.5096C306.105 57.2014 306.092 58.9729 306.115 60.8276ZM325.785 58.9821C325.92 58.3159 326.018 57.6489 326.072 56.9833C326.146 56.0795 326.151 55.2148 326.089 54.394C326.415 55.8876 326.359 57.3887 325.846 58.8235C325.829 58.8727 325.808 58.9256 325.785 58.9821ZM335.989 122.814C335.988 122.813 335.992 122.803 336.001 122.784C335.994 122.805 335.989 122.815 335.989 122.814Z" fill="white"/>
<circle cx="339" cy="70.8418" r="6" fill="white"/>
<path d="M5.21136 131.661C6.85961 112.631 21.007 96.4414 27.8747 90.725C44.3571 82.4259 43.327 98.469 36.631 99.5759C21.1787 103.448 14.9978 131.661 9.33198 134.427C4.7993 136.64 4.69628 133.505 5.21136 131.661Z" fill="white" stroke="white"/>
</g>
<defs>
<filter id="filter0_d_122_220" x="111" y="152" width="254" height="88.5688" filterUnits="userSpaceOnUse" color-interpolation-filters="sRGB">
<feFlood flood-opacity="0" result="BackgroundImageFix"/>
<feColorMatrix in="SourceAlpha" type="matrix" values="0 0 0 0 0 0 0 0 0 0 0 0 0 0 0 0 0 0 127 0" result="hardAlpha"/>
<feOffset dy="4"/>
<feGaussianBlur stdDeviation="2"/>
<feComposite in2="hardAlpha" operator="out"/>
<feColorMatrix type="matrix" values="0 0 0 0 0 0 0 0 0 0.0501984 0 0 0 0 0.0958333 0 0 0 1 0"/>
<feBlend mode="normal" in2="BackgroundImageFix" result="effect1_dropShadow_122_220"/>
<feBlend mode="normal" in="SourceGraphic" in2="effect1_dropShadow_122_220" result="shape"/>
</filter>
<filter id="filter1_d_122_220" x="0.5" y="0" width="350.003" height="143.688" filterUnits="userSpaceOnUse" color-interpolation-filters="sRGB">
<feFlood flood-opacity="0" result="BackgroundImageFix"/>
<feColorMatrix in="SourceAlpha" type="matrix" values="0 0 0 0 0 0 0 0 0 0 0 0 0 0 0 0 0 0 127 0" result="hardAlpha"/>
<feOffset dy="4"/>
<feGaussianBlur stdDeviation="2"/>
<feComposite in2="hardAlpha" operator="out"/>
<feColorMatrix type="matrix" values="0 0 0 0 0 0 0 0 0 0.0501984 0 0 0 0 0.0958333 0 0 0 1 0"/>
<feBlend mode="normal" in2="BackgroundImageFix" result="effect1_dropShadow_122_220"/>
<feBlend mode="normal" in="SourceGraphic" in2="effect1_dropShadow_122_220" result="shape"/>
</filter>
</defs>
</svg>
