<svg width="178" height="174" viewBox="0 0 178 174" fill="none" xmlns="http://www.w3.org/2000/svg">
<path d="M130.82 113.045L131.658 111.352L133.14 111.669L135.792 112.004L137.327 109.059L138.594 106.345L136.793 104.501L135.545 103.504L136.363 101.852L147.266 112.987L146.315 114.907L130.82 113.045ZM137.429 112.216L145.052 113.164L145.124 113.02L139.75 107.528L138.563 109.821L137.429 112.216Z" fill="white"/>
<path d="M129.074 126.038L127.817 124.974C126.408 123.855 125.635 122.601 125.498 121.211C125.362 119.822 125.885 118.435 127.066 117.051C128.198 115.725 129.44 115.01 130.792 114.905C132.135 114.811 133.474 115.333 134.808 116.47L136.329 117.751L141.997 122.381L140.81 123.771L133.843 117.952C132.793 117.069 131.792 116.645 130.84 116.68C129.899 116.725 129.024 117.223 128.212 118.173C127.401 119.123 127.039 120.053 127.125 120.961C127.21 121.87 127.759 122.731 128.77 123.542L136.019 129.383L134.817 130.79L129.074 126.038Z" fill="white"/>
<path d="M126.233 137.651C124.491 138.856 122.812 139.297 121.196 138.973C119.58 138.648 118.129 137.582 116.841 135.773C115.351 133.68 114.711 131.728 114.921 129.918C115.132 128.108 116.178 126.552 118.059 125.251C118.581 124.89 119.225 124.462 119.993 123.968C120.739 123.471 121.443 123.02 122.105 122.618L122.124 122.604L124.582 126.257L130.604 134.516L130.585 134.529L126.233 137.651ZM118.698 126.667C117.401 127.564 116.701 128.659 116.596 129.952C116.488 131.266 117.016 132.74 118.18 134.375C120.402 137.497 122.829 138.148 125.461 136.327C126.262 135.773 127.166 135.11 128.173 134.34L123.302 127.337L121.485 124.905C121.065 125.141 120.572 125.435 120.008 125.788C119.44 126.163 119.003 126.456 118.698 126.667Z" fill="white"/>
<path d="M110.681 134.672L108.713 130.557L110.43 129.793L112.142 133.847L116.467 143.102L114.729 143.875L110.681 134.672Z" fill="white"/>
<path d="M104.427 147.417C102.446 147.903 100.783 147.676 99.4382 146.737C98.0786 145.802 97.123 144.212 96.5714 141.967C95.9764 139.544 96.0802 137.537 96.883 135.947C97.6895 134.371 99.1359 133.328 101.222 132.816C103.174 132.338 104.835 132.589 106.205 133.568C107.561 134.552 108.52 136.188 109.082 138.478C109.663 140.841 109.553 142.794 108.755 144.337C107.941 145.883 106.499 146.91 104.427 147.417ZM104.186 145.95C107.188 145.214 108.221 142.94 107.285 139.129C106.788 137.106 106.059 135.695 105.099 134.896C104.124 134.102 102.901 133.885 101.43 134.245C98.4281 134.981 97.4042 137.291 98.3586 141.176C98.8448 143.156 99.5736 144.535 100.545 145.315C101.501 146.099 102.715 146.31 104.186 145.95Z" fill="white"/>
<path d="M88.4642 134.471L90.6147 134.45L95.585 149.063L93.6889 149.081L93.3398 147.598L89.5538 136.313L89.415 136.314L85.2693 147.585L84.9017 149.167L83.0517 149.185L88.4642 134.471Z" fill="white"/>
<path d="M79.2758 138.178L79.9754 133.645L81.82 133.942L80.9431 138.284L79.2857 148.422L77.4184 148.121L79.2758 138.178Z" fill="white"/>
<path d="M67.9464 145.828C66.9383 145.505 65.9674 144.954 65.0337 144.173L65.8862 142.587L66.2225 142.598C66.5381 143.053 66.9074 143.444 67.3306 143.772C67.7392 144.096 68.1772 144.333 68.6447 144.482C69.1853 144.655 69.697 144.698 70.1798 144.611C70.648 144.519 71.0507 144.334 71.3878 144.055C71.7103 143.772 71.9354 143.442 72.0632 143.064C72.1959 142.672 72.197 142.287 72.0664 141.907C71.9163 141.537 71.6955 141.185 71.404 140.851C71.1124 140.516 70.7041 140.096 70.1791 139.59C69.513 138.975 68.9929 138.431 68.6189 137.957C68.24 137.498 67.9636 136.976 67.7897 136.389C67.6012 135.798 67.6225 135.161 67.8535 134.479C68.0992 133.753 68.5225 133.148 69.1234 132.664C69.7243 132.181 70.4441 131.872 71.2829 131.737C72.1217 131.603 73.0013 131.683 73.9217 131.977C74.5354 132.173 75.1512 132.459 75.7692 132.833C76.3677 133.218 76.8978 133.661 77.3595 134.162L76.5358 135.878L76.2579 135.91C75.9136 135.253 75.4765 134.703 74.9464 134.26C74.3968 133.827 73.837 133.519 73.2672 133.337C72.712 133.16 72.1857 133.112 71.6883 133.194C71.1763 133.272 70.7493 133.457 70.4072 133.75C70.0506 134.039 69.8035 134.386 69.6659 134.793C69.4595 135.402 69.5286 135.963 69.8733 136.476C70.213 137.003 70.784 137.636 71.5863 138.375C72.2328 139 72.7407 139.532 73.11 139.972C73.4743 140.426 73.7459 140.939 73.9246 141.511C74.0985 142.098 74.0699 142.732 73.839 143.415C73.5981 144.126 73.1871 144.719 72.6057 145.193C72.0097 145.662 71.3119 145.954 70.5121 146.068C69.6929 146.193 68.8377 146.112 67.9464 145.828Z" fill="white"/>
<path d="M54.757 130.907L55.6409 129.499C56.5587 127.933 57.7041 126.963 59.0772 126.588C60.4503 126.213 61.9158 126.48 63.4737 127.388C64.9657 128.257 65.8623 129.341 66.1636 130.638C66.4516 131.927 66.1224 133.32 65.1758 134.816L64.1118 136.519L60.291 142.839L58.7264 141.927L63.5507 134.136C64.284 132.961 64.564 131.913 64.3908 130.993C64.2095 130.087 63.5842 129.321 62.5148 128.698C61.4453 128.075 60.4613 127.884 59.5627 128.126C58.6642 128.368 57.8814 129.051 57.2145 130.176L52.4088 138.245L50.8245 137.322L54.757 130.907Z" fill="white"/>
<path d="M49.9343 118.621L51.033 117.684L57.0427 123.301L53.851 126.432L46.7194 133.961L40.6931 128.328L40.7551 128.132L41.8538 127.195L44.3262 129.601L46.4785 131.549L49.8939 128.088L47.9229 126.183L46.1051 124.579L46.1176 124.369L47.233 123.447L49.0705 125.228L50.9896 126.99L52.5363 125.425L54.6282 123.167L52.5242 121.169L49.889 118.832L49.9343 118.621Z" fill="white"/>
<path d="M44.7757 111.49L45.9997 110.805L50.294 116.596L46.5949 119.119L38.2341 125.282L37.1198 123.779L45.4848 117.895L47.9463 116.038L44.7256 111.695L44.7757 111.49Z" fill="white"/>
<path d="M36.7004 106.966C36.5648 106.644 36.5588 106.351 36.6822 106.086C36.7855 105.813 37.0087 105.606 37.3517 105.464C37.6947 105.322 38.0177 105.312 38.3205 105.433C38.6174 105.541 38.8366 105.763 38.978 106.099C39.1136 106.421 39.1268 106.712 39.0176 106.971C38.8942 107.236 38.6538 107.442 38.2964 107.59C37.9534 107.731 37.6406 107.746 37.358 107.632C37.0611 107.525 36.8419 107.303 36.7004 106.966Z" fill="white"/>
<path d="M24.6436 92.5204C24.4335 90.4445 24.8711 88.7901 25.9565 87.5571C27.0418 86.3241 28.7049 85.5889 30.9459 85.3515C33.5399 85.0766 35.5882 85.4645 37.0908 86.5152C38.5934 87.5659 39.4581 89.2125 39.685 91.455C39.7479 92.0763 39.8092 92.8355 39.869 93.7328C39.9426 94.6132 39.9946 95.4347 40.0253 96.1972L40.0276 96.2199L35.5725 96.5771L25.2693 97.7836L25.267 97.7609L24.6436 92.5204ZM38.1125 91.323C37.9561 89.7775 37.33 88.6492 36.2342 87.9384C35.1214 87.2139 33.552 86.9591 31.5259 87.1737C27.6579 87.5836 25.8826 89.3568 26.2 92.4933C26.2966 93.4479 26.4384 94.5432 26.6256 95.7792L35.2457 94.9577L38.301 94.5651C38.2995 94.0905 38.2811 93.5258 38.2459 92.871C38.1938 92.2027 38.1493 91.6867 38.1125 91.323Z" fill="white"/>
<path d="M38.9803 74.8009L40.3804 75.1187L39.2288 83.2893L34.8267 82.6102L24.5553 81.4109L25.7101 73.2177L25.9061 73.1504L27.3061 73.4682L26.7544 76.8865L26.394 79.7748L31.1948 80.4355L31.6244 77.7179L31.8948 75.3033L32.0743 75.1876L33.4712 75.5282L33.0671 78.0643L32.7253 80.6546L34.8968 80.9556L37.951 81.2773L38.3801 78.3978L38.7812 74.8909L38.9803 74.8009Z" fill="white"/>
<path d="M28.2772 64.9185C28.6395 63.9244 29.2324 62.9692 30.0557 62.053L31.6275 62.9112L31.6042 63.2438C31.1331 63.5516 30.7239 63.9133 30.3767 64.3288C30.0347 64.7298 29.7797 65.1609 29.6117 65.6219C29.4174 66.155 29.3555 66.6607 29.4259 67.1391C29.5015 67.6031 29.6739 68.0031 29.943 68.3391C30.2174 68.6608 30.543 68.8866 30.9199 69.0165C31.3113 69.1515 31.7011 69.1562 32.0895 69.0306C32.4687 68.8856 32.8326 68.6705 33.1813 68.3853C33.53 68.1001 33.9694 67.7002 34.4996 67.1856C35.1455 66.5326 35.7145 66.0233 36.2067 65.6578C36.6844 65.2873 37.2228 65.0189 37.8218 64.8524C38.4262 64.6716 39.069 64.6986 39.7503 64.9335C40.475 65.1834 41.0709 65.6078 41.5379 66.2067C42.0049 66.8056 42.291 67.5205 42.396 68.3514C42.5011 69.1824 42.3883 70.0516 42.0575 70.9593C41.837 71.5644 41.5262 72.1709 41.1252 72.7786C40.715 73.367 40.2481 73.8871 39.7244 74.3391L38.0203 73.5082L37.9982 73.233C38.6748 72.8987 39.2466 72.4714 39.7135 71.9513C40.1712 71.4117 40.5025 70.861 40.7072 70.2991C40.9068 69.7516 40.974 69.2315 40.9088 68.7387C40.8489 68.2315 40.6771 67.8074 40.3935 67.4664C40.1152 67.1109 39.7731 66.8632 39.3672 66.7233C38.7584 66.5133 38.1888 66.5764 37.6584 66.9125C37.1136 67.2436 36.453 67.8024 35.6769 68.589C35.0217 69.2226 34.4652 69.72 34.0073 70.0811C33.5349 70.4372 33.0064 70.7009 32.4218 70.8724C31.8227 71.0388 31.1825 71.0046 30.5012 70.7697C29.791 70.5248 29.207 70.1126 28.7492 69.5331C28.2967 68.9392 28.0271 68.2462 27.9405 67.4541C27.8447 66.6425 27.9569 65.7974 28.2772 64.9185Z" fill="white"/>
<path d="M41.6257 60.6023L45.7148 62.6871L44.8016 64.317L40.9556 62.1269L31.8406 57.3773L32.7651 55.7273L41.6257 60.6023Z" fill="white"/>
<path d="M39.1131 46.5598C40.1016 45.3565 41.2907 44.4495 42.6805 43.8387L43.8093 45.2029L43.6984 45.4099C42.8697 45.698 42.177 46.0248 41.6203 46.3903C41.0733 46.7438 40.5796 47.1887 40.1392 47.7248C38.0154 50.3099 38.5564 52.8699 41.7622 55.4047C43.3053 56.6248 44.6864 57.2255 45.9054 57.2068C47.1223 57.1667 48.2494 56.5153 49.2868 55.2525C49.5609 54.9189 49.805 54.5617 50.0192 54.1809C50.2432 53.7881 50.4917 53.2575 50.7647 52.5889L49.4483 51.4892L47.7111 50.145L48.7045 48.7197L50.3079 50.0465L52.8787 51.9612C52.4817 52.9247 52.0924 53.7469 51.7108 54.4277C51.3291 55.1085 50.9082 55.7288 50.4482 56.2887C49.0487 57.9923 47.5121 58.8899 45.8386 58.9815C44.1748 59.0612 42.4278 58.3776 40.5976 56.9304C38.6238 55.3698 37.519 53.7003 37.283 51.922C37.035 50.1341 37.6451 48.3467 39.1131 46.5598Z" fill="white"/>
<path d="M60.8606 41.493L63.4758 44.8936L61.9029 46.0421L48.6521 41.2274L48.5584 41.2958L52.6806 46.8161L55.5925 50.6497L54.2443 51.6341L51.6952 48.1287L45.4739 39.9326L47.0281 38.7978L60.2602 43.6262L60.3912 43.5304L53.3933 34.2631L54.7154 33.1283L60.8606 41.493Z" fill="white"/>
<path d="M69.1093 35.4165C69.4438 35.2955 69.7422 35.3006 70.0046 35.432C70.2762 35.5438 70.475 35.771 70.6008 36.1135C70.7265 36.4559 70.7197 36.7737 70.5802 37.0667C70.4552 37.3544 70.2183 37.5614 69.8693 37.6877C69.5349 37.8088 69.2391 37.8108 68.9819 37.6937C68.7196 37.5623 68.5229 37.3182 68.3918 36.9615C68.2661 36.619 68.2683 36.311 68.3985 36.0376C68.5234 35.7498 68.7604 35.5428 69.1093 35.4165Z" fill="white"/>
<path d="M84.2543 24.0583C86.3631 23.915 88.016 24.3982 89.213 25.5081C90.41 26.6179 91.0771 28.2829 91.2144 30.5032C91.3733 33.0733 90.887 35.084 89.7555 36.5353C88.6241 37.9867 86.9193 38.7898 84.6412 38.9446C84.0101 38.9875 83.2395 39.0246 82.3294 39.0559C81.4357 39.1014 80.6026 39.1275 79.8301 39.1342L79.807 39.1358L79.6503 34.7253L78.9032 24.5137L78.9263 24.5121L84.2543 24.0583ZM84.8469 37.3959C86.4169 37.2891 87.5865 36.7057 88.3557 35.6455C89.1393 34.569 89.4691 33.0271 89.345 31.0197C89.1081 27.1874 87.3965 25.3795 84.2102 25.5961C83.2405 25.662 82.1264 25.7683 80.8679 25.9149L81.3029 34.4526L81.5597 37.4818C82.0397 37.495 82.6116 37.4943 83.2754 37.4798C83.9536 37.4489 84.4774 37.421 84.8469 37.3959Z" fill="white"/>
<path d="M101.573 38.6344L101.196 40.0143L92.9927 38.7247L93.853 34.3802L95.4716 24.2363L103.698 25.5295L103.758 25.7247L103.382 27.1046L99.9523 26.4958L97.0505 26.0861L96.1929 30.8255L98.9197 31.3006L101.347 31.6125L101.456 31.7922L101.057 33.1685L98.5126 32.7221L95.911 32.3363L95.5208 34.48L95.0748 37.4969L97.965 37.9744L101.49 38.4357L101.573 38.6344Z" fill="white"/>
<path d="M107.637 42.3346L105.641 41.5699L106.572 26.1308L108.332 26.805L108.094 28.3155L107.327 40.2195L107.455 40.2688L115.55 31.2703L116.488 29.9293L118.205 30.587L107.637 42.3346Z" fill="white"/>
<path d="M122.628 43.0026C122.911 43.2101 123.067 43.4582 123.096 43.7471C123.147 44.0326 123.06 44.3225 122.836 44.6165C122.612 44.9106 122.337 45.0819 122.012 45.1304C121.7 45.1879 121.396 45.1084 121.101 44.8919C120.818 44.6845 120.657 44.4425 120.619 44.1659C120.589 43.8771 120.692 43.5795 120.925 43.2732C121.15 42.9791 121.413 42.8094 121.716 42.7642C122.029 42.7067 122.333 42.7861 122.628 43.0026Z" fill="white"/>
<path d="M140.272 48.7276C141.24 49.9201 141.789 51.1828 141.916 52.5156L140.357 53.2794L140.191 53.1487C140.228 51.8221 139.829 50.6451 138.994 49.6179C138.083 48.4963 136.982 47.95 135.691 47.979C134.413 47.9985 133.009 48.6108 131.48 49.8158C129.938 51.0304 129.006 52.2592 128.682 53.5021C128.358 54.745 128.642 55.9155 129.534 57.0136C129.956 57.5331 130.471 57.9702 131.077 58.3249C131.694 58.6914 132.351 58.9485 133.048 59.0962L133.101 59.345L131.616 60.3113C130.199 59.7431 129.059 58.9277 128.195 57.8651C126.958 56.342 126.502 54.7644 126.828 53.1323C127.167 51.4907 128.277 49.9286 130.158 48.4462C132.088 46.9256 133.93 46.1909 135.684 46.2421C137.437 46.2934 138.967 47.1219 140.272 48.7276Z" fill="white"/>
<path d="M147.112 59.638C147.998 61.4381 148.112 63.0873 147.453 64.5857C146.801 66.0977 145.417 67.364 143.299 68.3845C141.014 69.4856 139 69.8236 137.256 69.3984C135.527 68.9665 134.195 67.8028 133.262 65.9073C132.389 64.1346 132.3 62.4821 132.993 60.9499C133.694 59.4314 135.124 58.1518 137.283 57.1111C139.513 56.0368 141.475 55.7156 143.17 56.1473C144.871 56.5926 146.186 57.7562 147.112 59.638ZM145.703 60.1904C144.361 57.4631 141.892 56.9655 138.297 58.6978C136.388 59.6176 135.135 60.6263 134.538 61.724C133.948 62.8353 133.981 64.0592 134.639 65.3956C135.982 68.1229 138.485 68.6036 142.15 66.8378C144.017 65.9382 145.238 64.936 145.815 63.8314C146.398 62.7404 146.361 61.5268 145.703 60.1904Z" fill="white"/>
<path d="M139.045 86.4003L138.768 84.7802L143.162 83.6709L150.313 81.6434L150.286 81.4859L139.556 79.222L139.302 77.7368L148.695 72.1927L148.664 72.0127L141.388 72.4864L136.735 72.8993L136.473 71.3692L151.363 70.34L151.714 72.3876L149.604 73.518L141.807 78.0903L141.83 78.2253L150.861 80.0423L153.089 80.4207L153.435 82.4459L139.045 86.4003Z" fill="white"/>
<path d="M144.548 94.8333C144.494 95.1806 144.345 95.4371 144.101 95.6028C143.869 95.7857 143.571 95.851 143.206 95.7985C142.84 95.746 142.561 95.5902 142.368 95.3309C142.173 95.0867 142.104 94.7834 142.161 94.4211C142.215 94.0738 142.357 93.8162 142.586 93.6483C142.83 93.4827 143.142 93.4272 143.523 93.4818C143.888 93.5343 144.161 93.6815 144.341 93.9235C144.536 94.1677 144.605 94.471 144.548 94.8333Z" fill="white"/>
</svg>
