<svg width="307" height="355" viewBox="0 0 307 355" fill="none" xmlns="http://www.w3.org/2000/svg">
<rect x="207" y="91" width="54" height="177" rx="10" fill="#776787"/>
<path d="M227.545 41.3396C231.52 36.8926 238.48 36.8926 242.455 41.3396L282.456 86.0853C288.216 92.528 283.643 102.75 275.001 102.75H194.999C186.357 102.75 181.784 92.528 187.544 86.0853L227.545 41.3396Z" fill="#776787"/>
<rect x="18.417" y="14.4722" width="21.375" height="65.5277" rx="10" fill="#776787"/>
<path d="M25.6084 3.0252C27.1838 1.37699 29.8162 1.37699 31.3916 3.0252L46.7166 19.0585C49.149 21.6032 47.3453 25.8223 43.8251 25.8223H13.1749C9.65469 25.8223 7.85101 21.6032 10.2833 19.0585L25.6084 3.0252Z" fill="#776787"/>
<rect x="57" y="269" width="10" height="26" rx="5" fill="#776787"/>
<path d="M61.1736 258.175C61.9306 257.505 63.0694 257.505 63.8264 258.175L77.1735 270.003C78.551 271.224 77.6876 273.5 75.8471 273.5H49.1529C47.3124 273.5 46.449 271.224 47.8265 270.003L61.1736 258.175Z" fill="#776787"/>
<ellipse cx="132.5" cy="338.5" rx="109.5" ry="16.5" fill="#382E44"/>
<path d="M281.385 315.409C282.027 319.501 256.102 331.907 216 338.2C175.898 344.494 136.805 342.292 136.163 338.2C135.521 334.108 167.509 325.689 207.611 319.395C247.713 313.102 280.743 311.317 281.385 315.409Z" fill="#382E44"/>
<path d="M298.586 330.466C300.171 340.565 288.263 338.722 286.96 350.427C273.022 352.614 268.72 346.677 267.135 336.577C265.55 326.477 262.441 317.218 276.379 315.03C290.317 312.843 297.001 320.366 298.586 330.466Z" fill="#382E44"/>
<rect x="108.309" y="110.269" width="35.455" height="19.2768" fill="#E1AA87"/>
<rect width="22.5988" height="96.069" rx="11.2994" transform="matrix(-0.35703 -0.934093 -0.945864 0.324564 262.359 124.171)" fill="#FFCEAF"/>
<path d="M172.779 159.779C166.898 164.949 157.993 165.097 151.836 160.199V160.199C144.459 154.332 143.669 143.454 150.228 136.761L162.454 124.285C169.237 117.363 180.695 117.962 186.753 125.555L187.683 126.721C192.946 133.318 192.114 142.783 185.783 148.349L172.779 159.779Z" fill="#9960D1"/>
<rect width="23.7616" height="100.185" rx="11.8808" transform="matrix(-0.994326 0.106373 0.105431 0.994427 89.2607 142.616)" fill="#FFCEAF"/>
<path d="M99.0358 262.417L119.329 261.729L115.83 275.498L98.336 273.433L99.0358 262.417Z" fill="#E3AC89"/>
<path d="M144.323 327.362L172.51 322.313L168.843 276.416L156.976 234.65H133.323L139.968 279.859L144.323 327.362Z" fill="#3C3C3C"/>
<path d="M104.735 234.65H131.924L121.076 281.585L116.46 324.149H88.0716L92.4568 279.975L104.735 234.65Z" fill="#3C3C3C"/>
<path d="M115.245 337V322.242C107.82 323.316 100.808 324.926 98.2297 322.689V319.559H86.3704V326.714C78.9455 325.641 76.4018 333.124 76.058 337H115.245Z" fill="white"/>
<path d="M144.634 337V322.631C152.235 323.676 159.415 325.243 162.054 323.066V320.018H174.196V326.985C181.798 325.94 184.402 333.226 184.754 337H144.634Z" fill="white"/>
<path d="M89.1662 159.059L97.5158 237.479L168.426 238.78C160.962 199.531 165.449 118.827 156.376 120.672C154.379 123.688 110.737 121.928 89.1662 120.672V159.059Z" fill="#9960D1"/>
<path d="M149.532 123.731C191.123 101.751 119.81 52.6025 101.037 24.4892C99.5924 22.5724 106.813 18.4832 147.248 17.4609C187.683 16.4386 179.496 61.7305 182.629 88.3831C184.924 107.915 194.316 142.589 164.279 142.078C134.241 141.566 144.959 126.073 149.532 123.731Z" fill="#242424"/>
<path d="M63.5254 74.8726C63.5254 100.729 78.2721 115.363 140.208 115.363C172.786 115.363 181.499 96.5706 181.499 70.7145C181.499 44.8584 155.09 23.8979 122.512 23.8979C89.9347 23.8979 63.5254 49.0166 63.5254 74.8726Z" fill="#FFCEAF"/>
<path d="M108.308 101.456C121.077 110.788 140.21 113.751 149.188 114.723L138.572 117.496L128.409 116.642L108.308 114.467V101.456Z" fill="#E1AA87"/>
<ellipse cx="5.35149" cy="4.78945" rx="5.35149" ry="4.78945" transform="matrix(-1 0 0 1 139.786 67.1538)" fill="black"/>
<ellipse cx="5.35149" cy="4.78945" rx="5.35149" ry="4.78945" transform="matrix(-1 0 0 1 169.601 67.5806)" fill="black"/>
<path d="M132.528 137.122C90.0576 115.358 117.781 54.2437 136.952 26.4068C138.427 24.5088 131.053 20.4598 89.7627 19.4476C48.4719 18.4353 48.4719 65.8424 53.6332 89.6724C59.0404 108.23 77.5229 145.22 108.196 144.714C138.869 144.207 137.198 139.441 132.528 137.122Z" fill="#242424"/>
<path d="M136.455 27.9282C138.421 19.4928 145.239 4.60602 135.089 7.32757C123.292 10.4909 132.769 23.7105 136.455 27.9282C131.294 22.6561 110.473 11.9748 109.911 18.4384C109.282 25.6746 127.361 26.8738 136.455 27.9282Z" fill="#4D4D4D"/>
<path d="M105.61 143.434C109.337 135.76 106.353 126.585 98.8259 122.58L97.9614 122.12C91.7174 118.798 83.9797 119.95 78.9359 124.953L65.7178 138.066C57.6842 146.035 60.205 159.452 70.5704 163.894L77.1397 166.71C85.0649 170.106 94.3309 166.654 98.0966 158.901L105.61 143.434Z" fill="#9960D1"/>
<path d="M168.766 86.7308C160.45 86.7481 153.708 79.9958 153.688 71.6664C153.669 63.337 160.38 56.5567 168.695 56.5394C177.011 56.5221 183.753 63.2744 183.773 71.6038C183.792 79.9332 177.081 86.7135 168.766 86.7308Z" stroke="#1C2026" stroke-width="4"/>
<path d="M152.98 72.9367C151.89 71.4866 146.91 69.9865 145.97 73.9099" stroke="#1C2026" stroke-width="4" stroke-linecap="round"/>
<path d="M130.903 85.639C122.587 85.6563 115.845 78.904 115.825 70.5746C115.806 62.2452 122.517 55.4649 130.832 55.4476C139.147 55.4303 145.89 62.1826 145.909 70.512C145.929 78.8414 139.218 85.6217 130.903 85.639Z" stroke="#1C2026" stroke-width="4"/>
<path d="M158.846 45.746C160.607 44.7997 165.1 43.6615 168.989 46.6793" stroke="black" stroke-width="4" stroke-linecap="round" stroke-linejoin="round"/>
<path d="M129.096 44.6157C130.857 43.6693 135.35 42.5312 139.239 45.5489" stroke="black" stroke-width="4" stroke-linecap="round" stroke-linejoin="round"/>
<path d="M155.526 91.1502C154.024 92.4341 145.995 93.301 141.506 91.1502" stroke="black" stroke-width="4" stroke-linecap="round" stroke-linejoin="round"/>
<path d="M236.654 144.585V114.978C236.654 114.723 236.751 114.479 236.925 114.293L250.142 100.222C250.317 100.037 250.413 99.7919 250.413 99.5375V89.476C250.413 89.0824 250.172 88.7226 249.817 88.5532C240.522 84.1218 245.679 80.2166 249.905 78.6168C250.221 78.4972 250.464 78.2364 250.547 77.9091L251.891 72.6307C251.947 72.4107 252.074 72.2148 252.261 72.087C257.154 68.7512 267.154 70.5606 272.236 72.0765C272.652 72.2007 272.929 72.5854 272.929 73.0198V77.8421C272.929 78.207 273.134 78.5444 273.449 78.7294C280.554 82.9073 276.779 86.8247 273.504 88.5464C273.157 88.7284 272.929 89.08 272.929 89.4712V99.8183C272.929 99.8949 272.936 99.9672 272.956 100.041C273.847 103.22 282.143 110.609 286.593 114.25C286.848 114.459 286.985 114.778 286.96 115.106L284.535 146.242C284.512 146.54 284.352 146.817 284.105 146.986C264.768 160.183 244.938 151.593 237.018 145.351C236.782 145.165 236.654 144.885 236.654 144.585Z" fill="white" fill-opacity="0.24" stroke="#242424" stroke-width="3" stroke-linecap="round"/>
<path d="M239.156 116.143C257.494 124.915 275.124 120.195 284.434 116.112C285.132 115.806 285.915 116.343 285.868 117.104L284.151 144.869C284.136 145.112 284.029 145.346 283.855 145.517C268.113 160.955 247.052 151.683 238.06 144.823C237.816 144.637 237.682 144.351 237.682 144.044V117.052C237.682 116.303 238.48 115.82 239.156 116.143Z" fill="url(#paint0_radial_346_802)" stroke="#242424" stroke-width="4" stroke-linecap="round"/>
<path d="M240.791 111.992C263.962 106.786 281.112 111.431 283.088 112.007C283.216 112.045 283.331 112.109 283.433 112.196L285.799 114.21C286.357 114.686 286.236 115.574 285.556 115.849C276.266 119.598 256.237 123.969 238.845 115.801C238.253 115.523 238.104 114.754 238.536 114.263L240.26 112.306C240.399 112.149 240.586 112.038 240.791 111.992Z" fill="url(#paint1_linear_346_802)" stroke="#242424" stroke-width="3" stroke-linecap="round"/>
<path d="M278.623 98.4031C270.025 104.222 245.951 95.096 242.819 94.9111C242.75 94.907 242.693 94.9021 242.627 94.8821C240.453 94.217 242.788 87.6719 246.641 91.4757C250.552 95.3373 273.238 94.9082 277.541 94.9082C280.902 94.9082 279.812 97.0899 278.788 98.2579C278.739 98.3136 278.685 98.3615 278.623 98.4031Z" fill="#673722" stroke="#242424" stroke-width="3" stroke-linecap="round"/>
<path d="M278.623 103.426C270.025 109.245 245.951 100.119 242.819 99.934C242.75 99.93 242.693 99.9251 242.627 99.905C240.453 99.24 242.788 92.6949 246.641 96.4987C250.552 100.36 273.238 99.9312 277.541 99.9312C280.902 99.9312 279.812 102.113 278.788 103.281C278.739 103.337 278.685 103.384 278.623 103.426Z" fill="#673722" stroke="#242424" stroke-width="3" stroke-linecap="round"/>
<path d="M253.198 71.262L254 76.1591C254.072 76.5986 254.426 76.9375 254.868 76.9905L270.611 78.8769C271.153 78.9418 271.647 78.56 271.721 78.0191L272.545 71.9803C272.589 71.6544 272.47 71.3274 272.227 71.1058L264.457 64.0303C264.119 63.7224 263.615 63.6831 263.233 63.9349L253.635 70.2657C253.306 70.4828 253.135 70.8729 253.198 71.262Z" fill="#FFE24A" stroke="#242424" stroke-width="3" stroke-linecap="round"/>
<path d="M251.093 132.883L247.463 122.623H250.943L253.163 129.403H253.223L255.503 122.623H258.623L254.993 132.883L258.803 143.623H255.323L252.923 136.303H252.863L250.403 143.623H247.283L251.093 132.883ZM260.371 122.623H265.231C266.871 122.623 268.101 123.063 268.921 123.943C269.741 124.823 270.151 126.113 270.151 127.813V129.883C270.151 131.583 269.741 132.873 268.921 133.753C268.101 134.633 266.871 135.073 265.231 135.073H263.671V143.623H260.371V122.623ZM265.231 132.073C265.771 132.073 266.171 131.923 266.431 131.623C266.711 131.323 266.851 130.813 266.851 130.093V127.603C266.851 126.883 266.711 126.373 266.431 126.073C266.171 125.773 265.771 125.623 265.231 125.623H263.671V132.073H265.231Z" fill="white"/>
<defs>
<radialGradient id="paint0_radial_346_802" cx="0" cy="0" r="1" gradientUnits="userSpaceOnUse" gradientTransform="translate(261.827 134.663) rotate(90) scale(19.2542 24.1456)">
<stop stop-color="#843ACE"/>
<stop offset="1" stop-color="#2B0A4C"/>
</radialGradient>
<linearGradient id="paint1_linear_346_802" x1="262.341" y1="109.549" x2="262.341" y2="120.432" gradientUnits="userSpaceOnUse">
<stop stop-color="#C28DBD"/>
<stop offset="0.890822" stop-color="#260A42"/>
</linearGradient>
</defs>
</svg>
