<svg width="121" height="118" viewBox="0 0 121 118" fill="none" xmlns="http://www.w3.org/2000/svg">
<path d="M44.9784 14.4C44.9784 22.353 37.3074 26.4001 27.8447 26.4001C18.382 26.4001 10.7109 22.353 10.7109 14.4C10.7109 6.44712 18.382 0 27.8447 0C37.3074 0 44.9784 6.44712 44.9784 14.4ZM20.424 14.4C20.424 17.8445 23.7463 20.6368 27.8447 20.6368C31.943 20.6368 35.2654 17.8445 35.2654 14.4C35.2654 10.9556 31.943 8.16332 27.8447 8.16332C23.7463 8.16332 20.424 10.9556 20.424 14.4Z" fill="white"/>
<path d="M5.33483 48.0001C3.9175 42.1716 6.20181 33.6001 28.0122 33.6001C49.2752 33.6001 52.1178 38.4001 50.69 48.0001" stroke="white" stroke-width="10" stroke-linecap="round"/>
<path d="M109.978 14.4C109.978 22.353 102.307 26.4001 92.8447 26.4001C83.382 26.4001 75.7109 22.353 75.7109 14.4C75.7109 6.44712 83.382 0 92.8447 0C102.307 0 109.978 6.44712 109.978 14.4ZM85.424 14.4C85.424 17.8445 88.7463 20.6368 92.8447 20.6368C96.943 20.6368 100.265 17.8445 100.265 14.4C100.265 10.9556 96.943 8.16332 92.8447 8.16332C88.7463 8.16332 85.424 10.9556 85.424 14.4Z" fill="white"/>
<path d="M70.3348 48.0001C68.9175 42.1716 71.2018 33.6001 93.0122 33.6001C114.275 33.6001 117.118 38.4001 115.69 48.0001" stroke="white" stroke-width="10" stroke-linecap="round"/>
<path d="M47.9784 79.4C47.9784 87.353 40.3074 91.4001 30.8447 91.4001C21.382 91.4001 13.7109 87.353 13.7109 79.4C13.7109 71.4471 21.382 65 30.8447 65C40.3074 65 47.9784 71.4471 47.9784 79.4ZM23.424 79.4C23.424 82.8445 26.7463 85.6368 30.8447 85.6368C34.943 85.6368 38.2654 82.8445 38.2654 79.4C38.2654 75.9556 34.943 73.1633 30.8447 73.1633C26.7463 73.1633 23.424 75.9556 23.424 79.4Z" fill="white"/>
<path d="M8.33483 113C6.9175 107.172 9.20181 98.6001 31.0122 98.6001C52.2752 98.6001 55.1178 103.4 53.69 113" stroke="white" stroke-width="10" stroke-linecap="round"/>
<path d="M109.978 79.4C109.978 87.353 102.307 91.4001 92.8447 91.4001C83.382 91.4001 75.7109 87.353 75.7109 79.4C75.7109 71.4471 83.382 65 92.8447 65C102.307 65 109.978 71.4471 109.978 79.4ZM85.424 79.4C85.424 82.8445 88.7463 85.6368 92.8447 85.6368C96.943 85.6368 100.265 82.8445 100.265 79.4C100.265 75.9556 96.943 73.1633 92.8447 73.1633C88.7463 73.1633 85.424 75.9556 85.424 79.4Z" fill="white"/>
<path d="M70.3348 113C68.9175 107.172 71.2018 98.6001 93.0122 98.6001C114.275 98.6001 117.118 103.4 115.69 113" stroke="white" stroke-width="10" stroke-linecap="round"/>
</svg>
