<svg width="190" height="310" viewBox="0 0 190 310" fill="none" xmlns="http://www.w3.org/2000/svg">
<rect width="24.7277" height="76.9109" rx="12.3639" transform="matrix(-0.844243 0.535961 -0.473336 -0.880882 99.395 152.052)" fill="#FFCEAF"/>
<path d="M99.6838 167.967C107.195 169.695 115.017 165.656 118.036 158.491V158.491C121.535 150.187 117.313 140.898 108.82 138.211L96.781 134.403C87.5005 131.467 77.4934 137.493 75.6509 147.098V147.098C74.0668 155.356 79.1771 163.247 87.3533 165.129L99.6838 167.967Z" fill="#0BCAF4"/>
<path d="M179.204 184.578C167.817 216.82 165.034 234.859 165.716 266.973L101.945 266.821C105.941 229.937 97.5434 143.61 107.3 145.363C109.409 148.518 156.497 145.672 179.778 143.855L179.204 184.578Z" fill="#0BCAF4"/>
<path d="M128.243 143.911C97.8805 111.282 175.205 80.7333 199.975 57.5759C201.809 56.0393 196.618 50.1023 161.179 38.6465C125.74 27.1907 119.799 74.4187 109.276 100.159C101.565 119.021 83.177 151.135 109.873 158.38C136.568 165.624 131.603 147.425 128.243 143.911Z" fill="#242424"/>
<path d="M219.814 117.992C212.292 143.747 195.001 154.517 140.263 138.53C111.471 130.121 109.237 109.153 116.76 83.398C124.282 57.643 153.72 43.5815 182.512 51.9907C211.304 60.3999 227.336 92.2373 219.814 117.992Z" fill="#FFCEAF"/>
<path d="M219.814 117.992C212.292 143.747 195.001 154.517 140.263 138.53C111.471 130.121 109.237 109.153 116.76 83.398C124.282 57.643 153.72 43.5815 182.512 51.9907C211.304 60.3999 227.336 92.2373 219.814 117.992Z" stroke="#1C2026"/>
<path d="M170.495 128.435C156.496 134.434 140.338 133.462 132.121 132.113L139.041 134.781L148.185 137.452L166.536 141.991L170.495 128.435Z" fill="#E1AA87"/>
<ellipse cx="156.123" cy="88.1521" rx="4.92719" ry="4.97004" transform="rotate(16.2815 156.123 88.1521)" fill="black"/>
<ellipse cx="125.123" cy="80.1521" rx="4.92719" ry="4.97004" transform="rotate(16.2815 125.123 80.1521)" fill="black"/>
<path d="M138.814 163.429C182.68 152.713 175.958 84.6815 167.114 52.005C166.363 49.7338 174.057 47.6039 210.844 57.2539C247.631 66.904 233.839 114.126 222.345 136.53C212.167 153.62 185.071 185.693 158.109 177.272C131.148 168.85 134.012 164.534 138.814 163.429Z" fill="#242424"/>
<path d="M167.674 51.859C168.39 42.9491 166.696 26.3606 174.874 31.6915C184.38 37.8877 172.159 48.6094 167.674 51.859C173.769 47.9398 195.278 42.6748 193.894 49.2581C192.344 56.6283 176.017 53.1561 167.674 51.859Z" fill="#4D4D4D"/>
<rect width="26.648" height="106.725" rx="13.324" transform="matrix(-0.49707 -0.867711 0.812091 -0.583531 199.986 208.018)" fill="#FFCEAF"/>
<path d="M180.298 203.946C171.91 202.295 166.501 194.382 168.015 185.981L168.395 183.874C169.625 177.049 175.152 171.666 182.076 170.549L199.278 167.775C210.635 165.944 219.92 176.044 217.016 187.071L214.928 195.003C212.728 203.358 204.26 208.665 195.792 206.998L180.298 203.946Z" fill="#0BCAF4"/>
<path d="M126.34 99.3576C134.786 98.1748 140.753 90.0002 140.061 81.4253C139.37 72.8504 132.233 66.511 123.787 67.6939C115.341 68.8767 109.373 77.0512 110.065 85.6262C110.756 94.2011 117.893 100.54 126.34 99.3576Z" stroke="#1C2026" stroke-width="6"/>
<path d="M162.243 105.508C170.618 104.335 176.675 96.3743 175.992 87.9069C175.309 79.4395 168.119 73.3334 159.744 74.5063C151.369 75.6791 145.313 83.6403 145.995 92.1077C146.678 100.575 153.869 106.681 162.243 105.508Z" stroke="#1C2026" stroke-width="6"/>
<path d="M128 116.5C132.5 117.167 142.7 117.6 147.5 114" stroke="black" stroke-width="4" stroke-linecap="round" stroke-linejoin="round"/>
<path d="M140 86.4999C141.333 84.9999 144.3 83.0999 145.5 87.4999" stroke="#1C2026" stroke-width="5"/>
</svg>
