<svg width="1512" height="551" viewBox="0 0 1512 551" fill="none" xmlns="http://www.w3.org/2000/svg">
<g clip-path="url(#clip0_164_9)">
<path d="M0 -4H1512V547H0V-4Z" fill="url(#paint0_radial_164_9)"/>
<path d="M686 356.692C684 369.492 699.167 364.359 707 360.192C701.5 363.192 689.6 368.792 686 367.192C682.4 365.592 682 363.946 682 360.192C682 351.946 688 343.892 686 356.692Z" fill="#BAABF4"/>
<path d="M674.009 271.653C673.609 278.053 687.175 281.32 694.009 282.153C686.409 280.153 682.509 273.32 681.509 270.153C680.246 266.153 674.409 265.253 674.009 271.653Z" fill="#BAABF4"/>
<path d="M708 177.5C710.8 179.5 711.5 189.667 711.5 194.5C712.5 189.833 713.9 179 711.5 173C708.5 165.5 704.5 175 708 177.5Z" fill="#BAABF4"/>
<path d="M731.992 386.584C716.774 395.701 719.862 425.993 723.308 440H726.616V424.331C729.373 420.533 737.12 406.954 746.052 383.023C754.984 359.093 741.503 355.485 733.646 356.672C717.572 359.1 686.917 382.596 678.646 366.643C668.308 346.701 688.698 334.681 699.323 322.486C707.647 312.932 714.131 297.263 713.797 280.465C713.436 262.365 698.909 254.114 691.466 250.553C685.511 247.704 688.985 238.15 691.466 234.172C697.425 224.618 709.248 203.832 702.631 185.03C696.015 166.227 688.211 162.567 695.241 176.188C698.549 182.598 702.549 204.544 688.985 214.23C675.421 223.916 674.787 242.481 676.165 250.553C677.331 257.38 686.007 269.07 697.255 271.919C711.315 275.48 709.808 279.458 707.594 286.875C706.406 290.853 697.255 321.061 681.128 331.032C665 341.003 655.542 373.469 662.105 392.994C667.089 407.82 730.285 368.362 736.127 366.643C741.97 364.923 747.21 377.468 731.992 386.584Z" fill="#BAABF4"/>
<path d="M56.2173 477.963C42.6709 477.515 13.0948 491.955 0 499.23V551H636V516.58V507.174H576.5L477.508 499.23L421.968 484.679L375.233 470.967L315.629 465.37L291.923 441.864L238.415 435.708L209.968 419.198L176.78 415L151.719 426.193V430.111L130.045 435.708L106.339 458.654H93.4697C86.6965 465.277 69.7636 478.411 56.2173 477.963Z" fill="#2A3351"/>
<path d="M96 494.031C85.9404 496.463 6.37416 501.034 -6 508.148V551H636V517.345V508.148H579.774L486.23 500.381L433.747 486.153L389.584 472.746L333.26 467.273L310.858 444.289L260.295 438.27L233.413 422.126L202.051 418.022L177 415L191.5 436.004L178.5 444.289L162 462.6L127 467.273C120.6 473.749 101 492.822 96 494.031Z" fill="#20252C"/>
<path d="M906.805 475.837L862.522 483.471L780.108 492.426L737 474L688 468.938L620 472L563 514.74L577.761 551H1512V468.938L1481.86 466.442L1386.53 478.333C1379.56 477.501 1363.04 476.336 1352.71 478.333C1342.37 480.329 1298.38 482.59 1277.67 483.471L1236.46 473.195H1184.8L1120.22 450L1063.02 458.074L1028.58 475.837L1002.14 473.195H989.22L949.857 468.938L919.721 478.333L906.805 475.837Z" fill="#2A3351"/>
<path d="M907.963 488.776L882.588 492.314L845.167 505.061L758 488.776L709 477.5L637.5 485L555 509.54L576.5 551H1512V483.064L1481.92 480.998L1395.44 495.096L1323.67 505.061L1278.12 495.096L1215.7 493.628L1205.88 480.998L1120.61 451L1092.39 454.504L1058.04 505.061L1028.59 476.401L1004.67 473.336L989.331 474.212L950.933 483.064L920.854 490.842L907.963 488.776Z" fill="#20252C"/>
<path d="M177.361 480.98L204.366 472.265L224.065 472.918L198.93 485.379L204.175 496.125L144.999 498.487L172.514 492.672L177.361 480.98Z" fill="#2A3351"/>
<path d="M838.41 516.335L815.136 525.239L818.136 526.061L849.572 519.081L865.728 516.611L893.485 515.522L895.168 509.675L860.744 507.467L860.744 512.77L838.41 516.335Z" fill="#2A3351"/>
<ellipse cx="704.5" cy="513.5" rx="73.5" ry="28.5" fill="url(#paint1_radial_164_9)"/>
<path d="M8.02326 137.5C-2.37674 127.5 -12.9767 133.333 -16.9767 137.5C-25.9767 140.5 -23.9767 185 -16.9767 198.5C-11.3767 209.3 -6.97674 203 -5.47674 198.5C-5.87674 173.7 27.3566 170.167 44.0233 171.5C58.5233 174.833 95.3233 180.1 126.523 174.5C157.723 168.9 234.857 123.167 269.523 101C249.357 103.5 201.723 113.2 172.523 132C143.323 150.8 125.357 146.167 120.023 141.5C104.023 129.5 76.0233 140.833 64.0233 148C63.2233 127.2 40.0233 135 28.5233 141.5C25.5233 143.196 18.4233 147.5 8.02326 137.5Z" fill="white" fill-opacity="0.4"/>
<path d="M8.02326 137.5C-2.37674 127.5 -12.9767 133.333 -16.9767 137.5C-25.9767 140.5 -23.9767 185 -16.9767 198.5C-11.3767 209.3 -6.97674 203 -5.47674 198.5C-5.87674 173.7 27.3566 170.167 44.0233 171.5C58.5233 174.833 95.3233 180.1 126.523 174.5C157.723 168.9 234.857 123.167 269.523 101C249.357 103.5 201.723 113.2 172.523 132C143.323 150.8 125.357 146.167 120.023 141.5C104.023 129.5 76.0233 140.833 64.0233 148C63.2233 127.2 40.0233 135 28.5233 141.5C25.5233 143.196 18.4233 147.5 8.02326 137.5Z" fill="white" fill-opacity="0.4"/>
<path d="M8.02326 137.5C-2.37674 127.5 -12.9767 133.333 -16.9767 137.5C-25.9767 140.5 -23.9767 185 -16.9767 198.5C-11.3767 209.3 -6.97674 203 -5.47674 198.5C-5.87674 173.7 27.3566 170.167 44.0233 171.5C58.5233 174.833 95.3233 180.1 126.523 174.5C157.723 168.9 234.857 123.167 269.523 101C249.357 103.5 201.723 113.2 172.523 132C143.323 150.8 125.357 146.167 120.023 141.5C104.023 129.5 76.0233 140.833 64.0233 148C63.2233 127.2 40.0233 135 28.5233 141.5C25.5233 143.196 18.4233 147.5 8.02326 137.5Z" fill="white" fill-opacity="0.4"/>
<path d="M1160.65 222.655C1121.53 212.284 1103.36 226.976 1099.17 235.618C1082.4 267.307 1137.04 252.156 1148.98 254.343C1159.74 256.312 1189.46 244.541 1191.99 238.936C1203.17 219.346 1273.36 250.022 1311.56 254.343C1371.17 261.065 1488.45 267.307 1480.63 238.499C1472.8 209.691 1432.3 263.039 1445.7 212.572C1451.94 189.048 1400.42 218.909 1392.6 203.929C1384.77 188.949 1366.98 190.966 1359.06 193.847C1362.42 184.628 1360.21 171.671 1356.27 166.479C1334.28 137.478 1319.99 143.247 1290.64 147.568C1267.17 151.025 1248.27 178.398 1259.66 199.698C1236.18 183.565 1223.99 204.409 1210.95 211.131C1174.06 201.913 1162.05 214.973 1160.65 222.655Z" fill="white" fill-opacity="0.6"/>
<path d="M1370.66 438.53C1371.86 442.196 1364.78 505.086 1361.09 536.072C1367.13 541.964 1377.71 540 1380.22 538.036C1382.24 536.465 1379.38 471.044 1377.71 438.53V416.272L1380.22 365.21L1391.3 303.018C1395.67 284.252 1404.09 246.064 1402.88 243.446C1401.67 240.827 1400.7 242.355 1400.36 243.446L1390.8 278.797L1370.66 361.937V404.488C1365.82 397.68 1358.57 344.043 1355.55 318.075C1353.87 315.239 1350.41 312.184 1350.01 322.658C1349.51 335.751 1369.14 433.948 1370.66 438.53Z" fill="#20252C" stroke="#20252C"/>
<path d="M1265.23 414.695C1263.84 419.222 1271.99 496.884 1276.24 535.149C1269.28 542.425 1257.11 540 1254.22 537.575C1251.9 535.634 1255.18 454.846 1257.11 414.695V387.208L1254.22 324.152L1241.46 247.352C1236.44 224.177 1226.74 177.019 1228.14 173.785C1229.53 170.552 1230.65 172.438 1231.03 173.785L1242.04 217.44L1265.23 320.11V372.657C1270.79 364.249 1279.14 298.013 1282.61 265.945C1284.55 262.442 1288.53 258.67 1288.99 271.604C1289.57 287.773 1266.97 409.036 1265.23 414.695Z" fill="#20252C" stroke="#20252C"/>
<path d="M1324.43 515.362C1325.1 496.832 1325.44 456.45 1321.41 443.166C1317.39 429.882 1305.65 415.01 1300.28 409.234L1284.05 364.5H1277.13L1251.5 360L1243.5 352.199C1245 348.299 1248.7 342.3 1251.5 349.5C1254.3 356.7 1272.44 357.187 1281.15 356.531C1279.48 347.626 1276.32 327.363 1277.13 317.545C1277.93 307.726 1282.16 322.117 1284.17 330.54L1288.7 356.531C1292.73 370.007 1301.18 397.394 1302.79 399.126C1304.81 401.292 1329.97 359.419 1328.46 352.199C1327.25 346.423 1323.26 333.909 1321.41 328.374C1319.23 317.545 1314.47 243.327 1314.87 238.129C1315.27 232.931 1320.07 235.722 1321.41 235.963L1326.45 328.374L1335 352.199C1333.83 360.14 1330.47 376.89 1326.45 380.355C1322.42 383.821 1314.03 397.682 1310.34 404.18L1330.97 443.166C1332.65 465.547 1335.5 511.319 1333.49 515.362C1330.97 520.416 1327.45 522.582 1324.43 515.362Z" fill="#20252C"/>
<path d="M1281.15 356.531C1279.48 347.626 1276.32 327.363 1277.13 317.545C1277.93 307.726 1282.16 322.117 1284.17 330.54L1288.7 356.531C1292.73 370.007 1301.18 397.394 1302.79 399.126C1304.81 401.292 1329.97 359.419 1328.46 352.199C1327.25 346.423 1323.26 333.909 1321.41 328.374C1319.23 317.545 1314.47 243.327 1314.87 238.129C1315.27 232.931 1320.07 235.722 1321.41 235.963L1326.45 328.374L1335 352.199C1333.83 360.14 1330.47 376.89 1326.45 380.355C1322.42 383.821 1314.03 397.682 1310.34 404.18L1330.97 443.166C1332.65 465.547 1335.5 511.319 1333.49 515.362C1330.97 520.416 1327.45 522.582 1324.43 515.362C1325.1 496.832 1325.44 456.45 1321.41 443.166C1317.39 429.882 1305.65 415.01 1300.28 409.234L1284.05 364.5M1281.15 356.531C1272.44 357.187 1254.3 356.7 1251.5 349.5C1248.7 342.3 1245 348.299 1243.5 352.199L1251.5 360L1277.13 364.5H1284.05M1281.15 356.531L1284.05 364.5" stroke="#20252C"/>
<path d="M1231.6 583.484L1231.68 584.138C1228.03 583.219 1228.9 583.348 1231.6 583.484L1202.13 327.95L1151.42 316.343L1130.4 283.928C1130.99 281.798 1133.49 277.919 1138.8 279.445C1144.1 280.971 1151.86 298.851 1155.08 307.6L1200.35 317.6L1180.64 289.525L1162.84 269.239C1161.38 266.277 1160.34 261.348 1167.9 265.329C1175.46 269.31 1198.74 299.365 1207 313C1210 317.1 1208.5 321 1215.39 315.025C1224.83 306.835 1248.74 295.616 1246.36 288.414C1243.98 281.212 1255.79 283.248 1256.38 286.697C1256.98 290.147 1242.23 309.075 1237 312C1232.82 314.34 1221.26 323.658 1214.38 325.852C1227.06 409.918 1251.05 578.79 1245.6 581.754C1241.75 583.848 1235.12 583.66 1231.6 583.484Z" fill="#20252C"/>
<path d="M749 459.452C749 475.326 734.371 489.331 726.143 494H695.056C660.679 479.807 674.028 428.329 684.999 404.363C690.129 393.158 684.085 432.561 695.056 437.043C708.771 442.646 701.251 389.745 708.77 393.158C716.999 396.893 717.914 417.435 726.143 417.435C734.371 417.435 738.942 398.761 740.771 417.435C741.958 429.549 749 438.826 749 459.452Z" fill="url(#paint2_linear_164_9)"/>
<path d="M729 474.503C729 483.461 721.686 491.365 717.571 494H702.028C684.84 485.99 691.514 456.938 697 443.413C699.564 437.089 696.542 459.327 702.028 461.856C708.885 465.018 705.125 435.163 708.885 437.089C712.999 439.197 713.457 450.79 717.571 450.79C721.686 450.79 723.971 440.251 724.886 450.79C725.479 457.627 729 462.862 729 474.503Z" fill="#FFD68A"/>
<path d="M744.564 494H672.436C664.402 499.895 669.089 505.789 672.436 508H744.564C752.598 502.105 747.911 496.211 744.564 494Z" fill="url(#paint3_radial_164_9)"/>
<path d="M740.662 508.055L674.734 478.799C664.999 480.929 666.892 488.218 669.055 491.596L734.983 520.851C744.718 518.722 742.825 511.433 740.662 508.055Z" fill="url(#paint4_radial_164_9)"/>
<path d="M742.926 483.351L674.225 505.32C668.358 513.351 674.608 517.508 678.466 518.582L747.167 496.613C753.034 488.582 746.784 484.425 742.926 483.351Z" fill="url(#paint5_radial_164_9)"/>
<path d="M1067 459.5L1062 447L1068 458L1069.5 453V458H1068L1067 459.5Z" fill="#2A3351"/>
<path d="M1093 457.979V444.144L1095 455.212L1095.5 431L1097.5 440.685L1105.5 434.459L1101 440.685L1102 455.904L1103.5 447.603L1105 455.212L1102 455.904L1093 457.979Z" fill="#20252C"/>
<path d="M1132.5 460.747L1135 445.527L1135.5 458.671L1137 452.445V461.704L1137.1 461.725L1138.5 455.904L1139 462.13L1137.1 461.725L1137 462.13V461.704L1132.5 460.747Z" fill="#20252C"/>
<path d="M1115 445.527V452.445H1116.5L1115 445.527Z" fill="#20252C"/>
<path d="M1153.5 471.123L1150.5 457.979L1152.5 460.747L1157 454.521L1156 460.055L1155 464.482L1160 462.822L1157.5 466.015L1161 466.973L1155.12 469.048L1153.5 471.123Z" fill="#20252C"/>
<path d="M1174 480.116L1173 466.015L1176 480.116L1177 472.507L1178.5 480.116H1176H1174Z" fill="#20252C"/>
<path d="M1165.5 469.048L1164 475.966L1166 477.349L1165.5 469.048Z" fill="#20252C"/>
<path d="M1192.56 486.985L1202.5 478.041L1201.5 485.651L1206 472.507L1206.75 479.079L1210.5 477.349L1207.26 483.575L1207.5 485.651L1192.56 486.985Z" fill="#20252C"/>
<path d="M1291 488.418L1279.5 518.856L1287.5 522.315L1306 487.034L1291 507.788L1292.5 501.216L1291 488.418Z" fill="#20252C"/>
<path d="M1342 489.733L1344 513.945H1348.5L1354.5 495.267L1348.5 502.945V488.418L1344 504.26L1342 489.733Z" fill="#20252C"/>
<path d="M998 464.482L1001.5 477.349H1002.5L1004.5 472L1009.5 468L1002.5 471L1001.5 459L1001 471L998 464.482Z" fill="#20252C"/>
<path d="M973.5 471L974 480L972.5 481L967.5 477.349L972.5 478.5L973.5 471Z" fill="#20252C"/>
<path d="M981.5 474V478L988 477.349L985.5 467L986 477.349L983.5 473.5L983 477.349L981.5 474Z" fill="#20252C"/>
<path d="M279.5 449.479V435.644L281.5 446.712L282 422.5L284 432.185L292 425.959L287.5 432.185L288.5 447.404L290 439.103L291.5 446.712L288.5 447.404L279.5 449.479Z" fill="#20252C"/>
<path d="M356.5 470.205L359 454.986L359.5 468.13L361 461.904V471.163L361.098 471.184L362.5 465.363L363 471.589L361.098 471.184L361 471.589V471.163L356.5 470.205Z" fill="#20252C"/>
<path d="M341.5 463.979V470.897H343L341.5 463.979Z" fill="#20252C"/>
<path d="M397.5 478.23L394.5 465.086L396.5 467.853L401 461.627L400 467.161L399 471.589L404 469.929L401.5 473.121L405 474.079L399.125 476.155L397.5 478.23Z" fill="#20252C"/>
<path d="M418 487.223L417 473.121L420 487.223L421 479.614L422.5 487.223L429.5 480.928L428.5 488.538L433 475.394L433.75 481.966L437.5 480.236L434.263 486.462L434.5 488.538L419.555 489.872L422.5 487.223H420H418Z" fill="#20252C"/>
<path d="M409.5 476.155L408 483.072L410 484.456L409.5 476.155Z" fill="#20252C"/>
<path d="M515.5 480.236L504 510.675L512 514.133L530.5 478.853L515.5 499.606L517 493.034L515.5 480.236Z" fill="#20252C"/>
<path d="M563.5 489.921L565.5 514.133H570L576 495.455L570 503.133V488.606L565.5 504.448L563.5 489.921Z" fill="#20252C"/>
<path d="M227 411.633L230.5 424.5H231.5L233.5 419.151L238.5 415.151L231.5 418.151L230.5 406.151L230 418.151L227 411.633Z" fill="#20252C"/>
<path d="M199.5 414.5L200 423.5L198.5 424.5L193.5 420.849L198.5 422L199.5 414.5Z" fill="#20252C"/>
<path d="M207.5 417.5V421.5L214 420.849L211.5 410.5L212 420.849L209.5 417L209 420.849L207.5 417.5Z" fill="#20252C"/>
<path d="M744 406.5C747.2 408.1 748 412.167 748 414C748.833 411.5 750.2 405.9 749 403.5C747.5 400.5 740 404.5 744 406.5Z" fill="url(#paint6_linear_164_9)"/>
<path d="M671 383.5C665 385.1 665.833 392.5 667 396C668.667 399.5 669.5 404.973 669.5 397.5C669.5 390.5 669 388 671 386.5C675 383.5 677 381.9 671 383.5Z" fill="url(#paint7_linear_164_9)"/>
<path d="M712 381C711.6 379 713.5 378.833 714.5 379C718 379.583 714.5 386.5 714.5 384.5C714.5 382.5 712.5 383.5 712 381Z" fill="url(#paint8_linear_164_9)"/>
<path d="M728.5 367C728.5 364.2 724.167 363.167 722 363C723.667 360.5 728 356.7 732 361.5C737 367.5 728.5 370.5 728.5 367Z" fill="url(#paint9_linear_164_9)"/>
<path d="M659.648 148C654.648 158.5 655.648 155.5 653.148 168C649.263 187.427 694.648 200.717 687.648 206.717C680.648 212.717 668.148 204.217 653.148 187.217C638.148 170.217 641.196 156.166 649 144.5C660.852 126.783 688.971 121.131 687.648 109.717C686 95.5 685.5 69.5 702.648 102.217C715.414 126.575 670.148 125.949 659.648 148Z" fill="#BAABF4"/>
<path d="M665.5 70.5C672.7 73.7 675.833 89.8333 676.5 97.5C676.5 88.5 675.5 68.8 671.5 62C666.5 53.5 656.5 66.5 665.5 70.5Z" fill="#BAABF4"/>
<path d="M440.077 221.549C495.602 174 545.111 245.777 515.111 249.52C473.669 254.69 445.611 237.52 409.611 261.042C373.611 284.564 287.454 264.432 253.429 249.52C221.11 235.355 291.355 229.077 302.61 231.02C278.61 191.52 345.166 195.8 361.11 198.52C400.878 134.188 430.072 181.925 440.077 221.549Z" fill="white" fill-opacity="0.6"/>
<path d="M464.847 238.428C521.73 206.675 572.45 254.607 541.717 257.106C499.261 260.558 470.517 249.092 433.636 264.8C396.756 280.508 308.492 267.064 273.635 257.106C240.526 247.647 312.489 243.455 324.019 244.752C299.432 218.374 367.615 221.233 383.95 223.049C424.691 180.089 454.598 211.967 464.847 238.428Z" fill="white" fill-opacity="0.6"/>
<path d="M1443.85 233.428C1500.73 201.675 1551.45 249.607 1520.72 252.106C1478.26 255.558 1449.52 244.092 1412.64 259.8C1375.76 275.508 1287.49 262.064 1252.64 252.106C1219.53 242.647 1291.49 238.455 1303.02 239.752C1278.43 213.374 1346.62 216.233 1362.95 218.049C1403.69 175.089 1433.6 206.967 1443.85 233.428Z" fill="white" fill-opacity="0.6"/>
</g>
<defs>
<radialGradient id="paint0_radial_164_9" cx="0" cy="0" r="1" gradientUnits="userSpaceOnUse" gradientTransform="translate(-83 61.9999) rotate(16.0222) scale(1690.15 4637.96)">
<stop stop-color="#3A4A74"/>
<stop offset="0.279835" stop-color="#655A98"/>
<stop offset="0.507342" stop-color="#9080D0"/>
<stop offset="0.701305" stop-color="#655A98"/>
<stop offset="0.864583" stop-color="#685674"/>
</radialGradient>
<radialGradient id="paint1_radial_164_9" cx="0" cy="0" r="1" gradientUnits="userSpaceOnUse" gradientTransform="translate(704.5 513.5) rotate(90) scale(28.5 73.5)">
<stop stop-color="#E3DC9C" stop-opacity="0.35"/>
<stop offset="1" stop-color="#20252C" stop-opacity="0.33"/>
</radialGradient>
<linearGradient id="paint2_linear_164_9" x1="711" y1="393" x2="711" y2="494" gradientUnits="userSpaceOnUse">
<stop stop-color="#FF290C"/>
<stop offset="1" stop-color="#FFB82F"/>
</linearGradient>
<radialGradient id="paint3_radial_164_9" cx="0" cy="0" r="1" gradientUnits="userSpaceOnUse" gradientTransform="translate(708.5 501) rotate(90) scale(7 40.5)">
<stop stop-color="#7B5A44"/>
<stop offset="1" stop-color="#352A24"/>
</radialGradient>
<radialGradient id="paint4_radial_164_9" cx="0" cy="0" r="1" gradientUnits="userSpaceOnUse" gradientTransform="translate(704.858 499.825) rotate(113.929) scale(7 40.5)">
<stop stop-color="#7B5A44"/>
<stop offset="1" stop-color="#352A24"/>
</radialGradient>
<radialGradient id="paint5_radial_164_9" cx="0" cy="0" r="1" gradientUnits="userSpaceOnUse" gradientTransform="translate(710.696 500.967) rotate(72.2666) scale(6.96153 40.5)">
<stop stop-color="#7B5A44"/>
<stop offset="1" stop-color="#352A24"/>
</radialGradient>
<linearGradient id="paint6_linear_164_9" x1="694.5" y1="346" x2="712.822" y2="414" gradientUnits="userSpaceOnUse">
<stop offset="0.291662" stop-color="#FF2D0D"/>
<stop offset="1" stop-color="#FFD68A"/>
</linearGradient>
<linearGradient id="paint7_linear_164_9" x1="694.5" y1="346" x2="712.822" y2="414" gradientUnits="userSpaceOnUse">
<stop offset="0.291662" stop-color="#FF2D0D"/>
<stop offset="1" stop-color="#FFD68A"/>
</linearGradient>
<linearGradient id="paint8_linear_164_9" x1="694.5" y1="346" x2="712.822" y2="414" gradientUnits="userSpaceOnUse">
<stop offset="0.291662" stop-color="#FF2D0D"/>
<stop offset="1" stop-color="#FFD68A"/>
</linearGradient>
<linearGradient id="paint9_linear_164_9" x1="694.5" y1="346" x2="712.822" y2="414" gradientUnits="userSpaceOnUse">
<stop offset="0.291662" stop-color="#FF2D0D"/>
<stop offset="1" stop-color="#FFD68A"/>
</linearGradient>
<clipPath id="clip0_164_9">
<rect width="1512" height="551" fill="white"/>
</clipPath>
</defs>
</svg>
