<svg width="1512" height="551" viewBox="0 0 1512 551" fill="none" xmlns="http://www.w3.org/2000/svg">
<g clip-path="url(#clip0_164_23)">
<path d="M0 0H1512V551H0V0Z" fill="url(#paint0_radial_164_23)"/>
<rect y="295" width="1512" height="256" fill="#96A7C1"/>
<path d="M56.7476 223.963C43.0735 223.515 13.2183 237.955 0 245.23V297H642V262.58V253.174H581.939L482.013 245.23L425.949 230.679L378.773 216.967L318.607 211.37L294.677 187.864L240.665 181.708L211.949 165.198L178.447 161L153.15 172.193V176.111L131.272 181.708L107.342 204.654H94.3514C87.5144 211.277 70.4217 224.411 56.7476 223.963Z" fill="#2A3351"/>
<path d="M102 240.031C91.9404 242.463 12.3742 247.034 0 254.148V297H642V263.345V254.148H585.774L492.23 246.381L439.747 232.153L395.584 218.746L339.26 213.273L316.858 190.289L266.295 184.27L239.413 168.126L208.051 164.022L183 161L197.5 182.004L184.5 190.289L168 208.6L133 213.273C126.6 219.749 107 238.822 102 240.031Z" fill="#20252C"/>
<path d="M912.805 195.791L868.522 206.07L786.108 218.128L730.139 212.988L701.848 222.279H626.813L569 248.174L583.761 297H1518V186.5L1487.86 183.14L1392.53 199.151C1385.56 198.031 1369.04 196.463 1358.71 199.151C1348.37 201.84 1304.38 204.884 1283.67 206.07L1242.46 192.233H1190.8L1126.22 161L1069.02 171.872L1034.58 195.791L1008.14 192.233H995.22L955.857 186.5L925.721 199.151L912.805 195.791Z" fill="#2A3351"/>
<path d="M913.963 212.998L888.588 217.774L851.167 234.983L747.492 231.537L714.979 245.168L628.518 234.983L545.5 251.5L585.548 297H1518V205.287L1487.92 202.497L1401.44 221.529L1329.67 234.983L1284.12 221.529L1221.7 219.547L1211.88 202.497L1126.61 162L1098.39 166.73L1064.04 234.983L1034.59 196.292L1010.67 192.153L995.331 193.336L956.933 205.287L926.854 215.787L913.963 212.998Z" fill="#20252C"/>
<path d="M183.361 226.98L210.366 218.265L230.065 218.918L204.93 231.379L210.175 242.125L150.999 244.487L178.514 238.672L183.361 226.98Z" fill="#2A3351"/>
<path d="M829.41 250.963L806.136 259.867L809.136 260.689L840.572 253.709L856.728 251.239L884.485 250.15L886.168 244.303L851.744 242.095L851.744 247.397L829.41 250.963Z" fill="#2A3351"/>
<path d="M560 314C526.533 320.201 502.5 293 465.652 303.545H307.5L224 314L191 303.545L176 299.5L149 308.5L117.5 314L67 308.5L29 314L0 303.545V279H1512L1524 397C1505.27 342.225 1202.5 389.5 1210.7 377.828L1292 330.5L1301.5 305L647.5 299.5C623 303.545 593.467 307.799 560 314Z" fill="#134E53"/>
<path d="M287.156 516L219 551H1518V494L1496.05 518L1388.04 513.5L1316.42 488.5H1092.89L952.539 501.5L843.952 488.5L797.168 472L749.5 451.5H665.5H593.5H506.5L440.217 488.5L359.354 501.5L325.277 516H287.156Z" fill="#2E6F74"/>
<path d="M1227.65 345.33C1207.22 345.33 1199.16 362.908 1189.01 379.022C1177.52 397.271 1267.28 384.575 1294.45 383.303C1321.63 382.031 1335.82 384.184 1363 388C1390.18 391.816 1406.37 394.997 1445.5 388C1476.81 382.403 1512.93 389.07 1530.5 409C1532.67 359.812 1520.34 310.164 1515.12 287.775C1508.6 259.788 1445.55 258 1423.27 258C1400.98 258 1392.24 279.506 1349.85 287.775C1307.46 296.044 1283.52 316.377 1270.47 321.466C1257.43 326.554 1253.2 345.33 1227.65 345.33Z" fill="#225A5F"/>
</g>
<defs>
<radialGradient id="paint0_radial_164_23" cx="0" cy="0" r="1" gradientUnits="userSpaceOnUse" gradientTransform="translate(756 263.5) rotate(90) scale(287.5 788.929)">
<stop stop-color="#8072BB"/>
<stop offset="0.244792" stop-color="#928AB4" stop-opacity="0.885417"/>
<stop offset="0.718139" stop-color="#514683" stop-opacity="0.817958"/>
<stop offset="0.718239" stop-color="#524781" stop-opacity="0.812807"/>
<stop offset="1" stop-color="#423774" stop-opacity="0.76"/>
</radialGradient>
<clipPath id="clip0_164_23">
<rect width="1512" height="551" fill="white"/>
</clipPath>
</defs>
</svg>
