<svg width="319" height="360" viewBox="0 0 319 360" fill="none" xmlns="http://www.w3.org/2000/svg">
<ellipse cx="100.5" cy="343" rx="90.5" ry="17" fill="#353B44"/>
<rect x="71.7705" y="141.751" width="29.9605" height="16.9402" fill="#E1AA87"/>
<rect width="19.3761" height="83.1593" rx="9.68807" transform="matrix(-0.249915 -0.968268 -0.970185 0.242364 187.522 168.761)" fill="#FFCEAF"/>
<path d="M115.88 188.243C109.044 188.752 102.957 184.231 101.514 177.573V177.573C99.792 169.629 105.269 161.766 113.369 160.551L127.219 158.475C135.937 157.168 143.63 163.85 143.526 172.638V172.638C143.435 180.264 137.44 186.638 129.824 187.205L115.88 188.243Z" fill="white"/>
<path d="M63.9341 275.458L81.0825 274.853L78.1259 286.953L63.3428 285.138L63.9341 275.458Z" fill="#E3AC89"/>
<path d="M102.204 332.53L126.023 328.093L122.925 287.759L112.897 251.056H92.9092L98.5251 290.784L102.204 332.53Z" fill="#3C3C3C"/>
<path d="M68.7516 251.056H91.7266L82.56 292.302L78.6593 329.707H54.6702L58.3758 290.887L68.7516 251.056Z" fill="#3C3C3C"/>
<path d="M77.6323 341V328.031C71.358 328.974 65.4323 330.389 63.2538 328.424V325.673H53.2324V331.961C46.9581 331.018 44.8086 337.594 44.5181 341H77.6323Z" fill="white"/>
<path d="M102.468 341V328.372C108.891 329.291 114.958 330.668 117.189 328.755V326.076H127.449V332.199C133.872 331.281 136.073 337.684 136.37 341H102.468Z" fill="white"/>
<path d="M55.5961 184.628L62.6518 253.542L122.573 254.686C116.265 220.194 120.058 149.272 112.39 150.893C110.703 153.544 73.8243 151.998 55.5961 150.893V184.628Z" fill="white"/>
<path d="M106.607 153.582C141.753 134.266 81.4912 91.0752 65.6271 66.3696C64.4068 64.6851 70.5084 61.0916 104.677 60.1932C138.846 59.2948 131.928 99.0968 134.575 122.519C136.515 139.683 144.451 170.154 119.069 169.705C93.6863 169.256 102.743 155.64 106.607 153.582Z" fill="#242424"/>
<path d="M32.6042 110.772C32.6042 133.494 45.0656 146.354 97.4035 146.354C124.932 146.354 132.295 129.839 132.295 107.117C132.295 84.3954 109.979 65.9756 82.4498 65.9756C54.9209 65.9756 32.6042 88.0495 32.6042 110.772Z" fill="#FFCEAF"/>
<path d="M71.7692 134.007C82.559 142.208 98.7269 144.811 106.313 145.665L97.3434 148.102L88.755 147.352L71.7692 145.44V134.007Z" fill="#E1AA87"/>
<ellipse cx="4.52217" cy="4.20891" rx="4.52217" ry="4.20891" transform="matrix(-1 0 0 1 98.3716 103.863)" fill="black"/>
<ellipse cx="4.52217" cy="4.20891" rx="4.52217" ry="4.20891" transform="matrix(-1 0 0 1 123.564 104.237)" fill="black"/>
<path d="M92.2735 166.939C56.3847 147.813 79.8121 94.1064 96.012 69.6437C97.2581 67.9758 91.0274 64.4176 56.1355 63.5281C21.2436 62.6385 21.2436 104.299 25.605 125.241C30.1742 141.549 45.7925 174.055 71.7122 173.61C97.6319 173.165 96.2196 168.977 92.2735 166.939Z" fill="#242424"/>
<path d="M95.5561 69.3915C97.2176 61.9785 102.979 48.8962 94.4017 51.2879C84.4326 54.0677 92.4407 65.685 95.5561 69.3915C91.1946 64.7584 73.6001 55.3718 73.1255 61.0519C72.5943 67.411 87.8715 68.4649 95.5561 69.3915Z" fill="#4D4D4D"/>
<path d="M122.861 121.808C115.293 121.825 109.326 115.463 109.308 107.829C109.291 100.196 115.23 93.8081 122.798 93.7917C130.366 93.7753 136.333 100.137 136.351 107.771C136.368 115.404 130.429 121.792 122.861 121.808Z" stroke="#1C2026" stroke-width="5"/>
<path d="M108.702 109.354C107.971 108.08 104.633 106.759 104.005 110.207" stroke="#1C2026" stroke-width="5" stroke-linecap="round"/>
<path d="M90.8634 120.849C83.2951 120.866 77.328 114.504 77.3109 106.87C77.2938 99.2368 83.2322 92.8491 90.8005 92.8327C98.3688 92.8163 104.336 99.1782 104.353 106.812C104.37 114.445 98.4317 120.833 90.8634 120.849Z" stroke="#1C2026" stroke-width="5"/>
<path d="M114.902 88.5103C116.39 87.6787 120.187 86.6785 123.473 89.3304" stroke="black" stroke-width="3" stroke-linecap="round" stroke-linejoin="round"/>
<path d="M90.0915 88.8853C91.5792 88.0537 95.3762 87.0535 98.6626 89.7054" stroke="black" stroke-width="3" stroke-linecap="round" stroke-linejoin="round"/>
<path d="M111.672 124.95C110.403 126.079 103.618 126.84 99.8245 124.95" stroke="black" stroke-width="3" stroke-linecap="round" stroke-linejoin="round"/>
<rect width="20.2429" height="78.3618" rx="10.1215" transform="matrix(0.256173 -0.966631 -0.97176 -0.235974 119.149 204.059)" fill="#FFCEAF"/>
<path d="M46.9076 153.773C39.6701 151.834 32.0803 155.881 29.6485 162.975V162.975C27.6145 168.909 29.7687 175.399 34.931 178.891L45.687 186.165C54.9341 192.419 67.7829 187.441 70.494 176.555L70.6095 176.091C72.6896 167.739 67.7469 159.356 59.4271 157.127L46.9076 153.773Z" fill="white"/>
<path d="M171.805 69.4546C169.26 69.3036 166.603 76.7194 165.593 80.4462L169.008 77.4381M171.805 69.4546L169.785 73.5329L172.035 76.3828L174.283 72.0055M171.805 69.4546C172.708 69.5081 173.546 70.532 174.283 72.0055M173.431 77.4535L177.076 81.3742C176.627 78.8513 175.622 74.685 174.283 72.0055" stroke="white"/>
<path d="M180.344 56.8723L186.239 63.6428L179.088 97.5456L176.68 103.577L171.312 344.782C169.139 347.617 169.011 344.893 169.218 343.176L166.633 101.499M180.344 56.8723L179.571 50.6525L176.778 48.5112L175.461 43L173.288 45.8345L166.224 55.0468L160.246 62.8418L164.733 98.9167L166.633 101.499M180.344 56.8723L178.865 70.3672M168.533 104.081L166.633 101.499M174.121 98.2389L175.057 85.4526L170.714 80.9967M170.714 80.9967L167.454 85.2485L167.918 88.9804M170.714 80.9967L171.642 88.4605M175.458 53.125L178.171 59.7068L176.073 68.2259L173.28 66.0846C174.704 62.3 176.776 54.5862 173.673 54.007C170.569 53.4277 170.825 61.576 171.341 65.7225M166.533 57.5348C167.256 59.9649 168.765 65.3228 169.012 67.3131M164.125 63.5659L165.363 73.5176" stroke="white"/>
<path d="M50.3277 78.2549L43.3974 65.8466L38.9801 57.841C40.1704 51.8829 42.4353 39.0442 41.9729 35.3544C41.5104 31.6645 50.4027 22.7636 54.9067 18.7744L64.4409 16.9914L67.7021 15.7724L71.7284 17.7603C74.4878 21.386 80.4313 22.2236 83.058 22.1892C83.9449 25.556 74.4499 25.3725 69.5916 24.8598C67.6778 27.2988 64.2279 32.5628 65.7386 34.1076C67.2494 35.6523 68.6578 41.4289 69.1731 44.1242L72.8253 48.9229L76.1964 52.2515L77.8196 54.3843L84.9359 58.2307C93.4738 51.3959 111.567 51.5754 119.546 52.5194C94.3672 56.8628 53.2997 91.1496 35.9133 107.75C33.4785 104.551 44.5084 86.7537 50.3277 78.2549ZM50.3277 78.2549C50.7536 73.8609 51.9767 64.7903 53.4621 63.6598C54.9475 62.5293 55.4217 54.3094 55.4731 50.3408M50.3277 78.2549L66.7267 67.8791L78.9282 58.5928M50.3277 78.2549L65.5727 72.9676L72.7345 67.5169L81.5659 62.0586L83.0792 59.6438" stroke="white"/>
</svg>
