<svg width="278" height="266" viewBox="0 0 278 266" fill="none" xmlns="http://www.w3.org/2000/svg">
<path d="M161.218 104.664C175.702 116.664 191.353 109.762 203.39 108.46C210.5 107.692 250.354 98.9116 245 75.4117C237.845 44.007 232.757 42.706 223.028 40.9116C194.445 35.6395 171.5 53.9116 159.5 68.4116C148.741 81.4116 151.562 96.6636 161.218 104.664ZM161.218 104.664L102.12 178.147M161.218 104.664L93.0003 124.912L80.0003 120.912M161.218 104.664L184.358 160.321L223.028 133.75L234.48 134.803M102.12 178.147L187.5 173.912L140 212.912M102.12 178.147L65.0001 207.912L41.5001 194.412" stroke="#F47500" stroke-width="6" stroke-linecap="round" stroke-linejoin="round"/>
<path d="M230.095 79.9222L221.405 85.9009" stroke="#F47500" stroke-width="5" stroke-linecap="round" stroke-linejoin="round"/>
<path d="M204 106.912C202 103.912 198.6 96.3116 201 89.9116" stroke="#F47500" stroke-width="5" stroke-linecap="round" stroke-linejoin="round"/>
<path d="M42.5 72.4116H109.5" stroke="#F47500" stroke-width="5" stroke-linecap="round" stroke-linejoin="round"/>
<path d="M63.5 83.4116H120" stroke="#F47500" stroke-width="5" stroke-linecap="round" stroke-linejoin="round"/>
<path d="M3 144.412H70" stroke="#F47500" stroke-width="5" stroke-linecap="round" stroke-linejoin="round"/>
<path d="M24 155.412H80.5" stroke="#F47500" stroke-width="5" stroke-linecap="round" stroke-linejoin="round"/>
<path d="M12 108.412H53" stroke="#F47500" stroke-width="5" stroke-linecap="round" stroke-linejoin="round"/>
<path d="M25 119.412H60" stroke="#F47500" stroke-width="5" stroke-linecap="round" stroke-linejoin="round"/>
</svg>
