<svg width="429" height="719" viewBox="0 0 429 719" fill="none" xmlns="http://www.w3.org/2000/svg">
<rect width="73.8682" height="42" transform="matrix(-1 0 0 1 247.118 225)" fill="#E1AA87"/>
<rect width="47.8101" height="206.01" rx="23.9051" transform="matrix(0.925886 -0.377804 0.381387 0.924415 0 113.063)" fill="#FFCEAF"/>
<path d="M123.99 343.164C129.784 348.491 138.462 348.735 144.467 343.74L171.9 320.921C179.06 314.965 179.687 303.964 173.257 297.103L120.199 240.482C113.526 233.361 102.297 233.905 96.4003 241.635L71.3418 274.482C66.2261 281.188 67.0853 290.853 73.3056 296.571L123.99 343.164Z" fill="white"/>
<rect width="49.9943" height="216.22" rx="24.9971" transform="matrix(0.833112 -0.553104 0.531325 0.847168 272.466 302.652)" fill="#FFCEAF"/>
<path d="M266.439 556.5L224.159 555L231.449 585L267.897 580.5L266.439 556.5Z" fill="#E3AC89"/>
<path d="M172.083 698L113.357 687L120.996 587L145.721 496H195.001L181.155 594.5L172.083 698Z" fill="#3C3C3C"/>
<path d="M254.561 496H197.916L220.516 598.262L230.134 691H289.279L280.143 594.753L254.561 496Z" fill="#3C3C3C"/>
<path d="M232.667 719V686.846C248.136 689.185 262.746 692.692 268.117 687.821V681H292.825V696.59C308.294 694.251 313.594 710.556 314.31 719H232.667Z" fill="white"/>
<path d="M171.433 719V687.692C155.595 689.969 140.638 693.385 135.138 688.641V682H109.842V697.179C94.0045 694.903 88.5786 710.778 87.8454 719H171.433Z" fill="white"/>
<path d="M286.997 331.305L269.601 502.165L121.864 505C137.415 419.484 128.065 243.647 146.969 247.667C151.13 254.238 242.055 250.405 286.997 247.667V331.305Z" fill="white"/>
<path d="M161.226 254.332C74.5752 206.443 223.151 99.3588 262.264 38.1058C265.273 33.9295 250.229 25.0199 165.985 22.7926C81.7412 20.5652 98.7982 119.247 92.2717 177.317C87.489 219.872 67.9211 295.42 130.502 294.306C193.084 293.192 170.754 259.436 161.226 254.332Z" fill="#242424"/>
<path d="M343.683 148.192C343.683 204.527 312.959 236.411 183.919 236.411C116.046 236.411 97.8921 195.467 97.8921 139.132C97.8921 82.7975 152.914 37.129 220.787 37.129C288.661 37.129 343.683 91.8572 343.683 148.192Z" fill="#FFCEAF"/>
<path d="M247.12 205.799C220.518 226.132 180.656 232.587 161.951 234.705L184.067 240.746L205.241 238.887L247.12 234.146V205.799Z" fill="#E1AA87"/>
<ellipse cx="192.681" cy="141.498" rx="11.1495" ry="10.4352" fill="black"/>
<ellipse cx="130.568" cy="142.427" rx="11.1495" ry="10.4352" fill="black"/>
<path d="M196.568 287.448C285.052 240.03 227.291 106.874 187.35 46.2235C184.278 42.0883 199.64 33.2664 285.667 31.0609C371.693 28.8554 371.693 132.145 360.94 184.066C349.675 224.5 311.167 305.091 247.262 303.989C183.356 302.886 186.838 292.502 196.568 287.448Z" fill="#242424"/>
<path d="M188.474 45.5982C184.377 27.2192 170.173 -5.21597 191.32 0.713712C215.899 7.60585 196.155 36.4087 188.474 45.5982C199.227 34.1113 242.607 10.839 243.777 24.9219C245.087 40.688 207.42 43.3008 188.474 45.5982Z" fill="#4D4D4D"/>
<path d="M245.28 281.203C241.69 273.473 244.724 264.15 252.18 260.001L280.055 244.49C286.299 241.016 293.99 242.138 298.909 247.241L354.648 305.064C362.381 313.086 359.7 326.62 349.47 331.205L296.529 354.932C288.676 358.452 279.583 355.052 275.954 347.241L245.28 281.203Z" fill="white"/>
<path d="M121.154 174.358C139.15 174.397 153.361 159.182 153.402 140.895C153.442 122.608 139.3 107.331 121.304 107.292C103.308 107.253 89.0973 122.468 89.0565 140.755C89.0157 159.042 103.158 174.319 121.154 174.358Z" stroke="#1C2026" stroke-width="10"/>
<path d="M154.047 143.662C156.319 140.502 166.695 137.234 168.652 145.782" stroke="#1C2026" stroke-width="10" stroke-linecap="round"/>
<path d="M200.046 171.98C218.042 172.019 232.253 156.804 232.294 138.517C232.335 120.231 218.192 104.954 200.196 104.915C182.2 104.875 167.989 120.091 167.949 138.377C167.908 156.664 182.051 171.941 200.046 171.98Z" stroke="#1C2026" stroke-width="10"/>
<path d="M140.776 92.9996C137.108 90.9378 127.746 88.458 119.644 95.033" stroke="black" stroke-width="7" stroke-linecap="round" stroke-linejoin="round"/>
<path d="M201.947 93.9292C198.279 91.8674 188.918 89.3875 180.815 95.9625" stroke="black" stroke-width="7" stroke-linecap="round" stroke-linejoin="round"/>
<path d="M148.741 183.346C151.87 186.143 168.599 188.032 177.95 183.346" stroke="black" stroke-width="8" stroke-linecap="round" stroke-linejoin="round"/>
</svg>
