<svg width="90" height="87" viewBox="0 0 90 87" fill="none" xmlns="http://www.w3.org/2000/svg">
<ellipse cx="45.0002" cy="43.5547" rx="44.8478" ry="42.9002" fill="#20252C"/>
<ellipse cx="2.4003" cy="2.19253" rx="2.4003" ry="2.19253" transform="matrix(1.00147 -0.000370217 0.000390261 0.998454 56.5366 57.6132)" fill="white"/>
<path fill-rule="evenodd" clip-rule="evenodd" d="M21.9547 35.7047L21.9546 35.4977L32.0492 57.3407L32.0508 61.2884L21.9647 61.2921L21.9547 35.7047ZM41.1415 61.285L39.9432 58.8652L25.4662 27.5392L40.3446 42.0447L40.3461 45.8066L46.0288 55.5459L46.0165 24.1218L41.8569 24.1234L41.8569 24.104L52.0092 24.1003L52.0238 61.281L41.1415 61.285Z" fill="white"/>
<path d="M57.2047 49.1258L54.1524 49.1269L54.1571 61.281L43.0094 61.2851L42.9949 24.1044L56.465 24.0994C61.1984 24.0976 64.7156 25.0743 67.0167 27.0292C69.3178 28.9842 70.4692 32.1969 70.471 36.6674C70.4727 41.1379 69.3902 44.3315 67.2233 46.2482C65.0564 48.1649 61.7169 49.1241 57.2047 49.1258ZM59.2637 41.1793C59.6615 40.5006 60.6847 39.0861 60.6841 37.3298C60.6834 35.5735 59.7033 34.1997 59.2606 33.4814C58.818 32.7631 57.0656 32.601 55.7385 32.6015L53.0987 32.6283L53.1024 42.0369L56.0076 42.0613C57.2462 42.0608 58.8658 41.858 59.2637 41.1793Z" fill="white"/>
</svg>
