<svg width="247" height="234" viewBox="0 0 247 234" fill="none" xmlns="http://www.w3.org/2000/svg">
<path d="M146.864 68.4119C115.783 13.7452 37.584 64.3225 55.806 111.108L87.3252 192.034C92.3388 204.906 98.3903 201.222 98.5581 197.217C98.3701 188.849 100.67 174.842 111.371 185.759C122.073 196.675 126.384 185.861 127.201 179.089C127.951 175.1 132.289 168.792 143.643 175.467C154.996 182.143 158.267 174.08 158.483 169.214C158.124 163.856 159.862 154.42 169.686 159.536C179.511 164.652 181.035 158.61 180.569 154.95L146.864 68.4119Z" fill="white"/>
<ellipse cx="6.94519" cy="7.18111" rx="6.94519" ry="7.18111" transform="matrix(0.904044 -0.380906 0.369713 0.949245 67.6545 90.092)" fill="black"/>
<ellipse cx="6.94519" cy="7.18111" rx="6.94519" ry="7.18111" transform="matrix(0.904044 -0.380906 0.369713 0.949245 98.2239 80.3029)" fill="black"/>
<path d="M147.638 70.3964C133.126 37.9857 99.3759 42.4264 85.836 49.7858L76.8314 55.1812C95.7847 47.1955 127.797 55.4219 133.592 67.425L170.181 158.646C171.349 161.558 174.532 162.958 177.317 161.784C180.123 160.602 181.468 157.255 180.32 154.309L147.638 70.3964Z" fill="#C2C2C2"/>
<path d="M151.519 92.5482C104.767 84.4138 91.7112 158.887 127.312 171.093L188.891 192.207C198.686 195.565 199.824 189.918 197.686 187.792C192.936 183.686 186.36 175.177 198.062 173.988C209.765 172.799 206.023 164.643 202.689 160.713C200.867 158.231 199.644 152.332 209.332 148.594C219.02 144.857 216.261 138.74 213.67 136.149C210.502 133.67 206.172 127.82 214.188 124.252C222.204 120.685 219.649 116.681 217.369 115.126L151.519 92.5482Z" fill="white"/>
<ellipse cx="5.4363" cy="5.63181" rx="5.4363" ry="5.63181" transform="matrix(0.337571 -0.968538 0.921016 0.315782 121.869 153.07)" fill="black"/>
<ellipse cx="5.4363" cy="5.63181" rx="5.4363" ry="5.63181" transform="matrix(0.337571 -0.968538 0.921016 0.315782 132.521 128.994)" fill="black"/>
<path d="M153.03 93.0648C127.374 85.7911 112.073 109.158 109.036 121.347L107.294 129.707C112.834 113.813 134.26 97.9266 143.984 100.357L213.962 123.495C216.192 124.232 218.642 122.945 219.456 120.609C220.277 118.256 219.127 115.727 216.89 114.96L153.03 93.0648Z" fill="#C2C2C2"/>
</svg>
