<svg width="46" height="46" viewBox="0 0 46 46" fill="none" xmlns="http://www.w3.org/2000/svg">
<path d="M18.0358 43C17.0558 39.805 15.5778 37.422 13.6008 35.853C10.6358 33.5 5.92477 34.963 4.18477 32.535C2.44477 30.107 5.40377 25.643 6.44177 23.009C7.48077 20.375 2.46177 19.444 3.04777 18.696C3.43777 18.197 5.97477 16.759 10.6568 14.38C11.9868 6.794 16.8998 3 25.3978 3C38.1438 3 42.9998 13.806 42.9998 20.68C42.9998 27.552 37.1198 34.956 28.7438 36.553C27.9948 37.643 29.0748 39.793 31.9838 43" stroke="white" stroke-width="4.667" stroke-linecap="round" stroke-linejoin="round"/>
<path d="M18.4993 13.4999C17.8453 16.0339 18.0393 17.8139 19.0823 18.8389C20.1243 19.8629 21.9003 20.5339 24.4103 20.8489C23.8403 24.1179 24.5353 25.6509 26.4933 25.4489C28.4513 25.2479 29.6283 24.4339 30.0233 23.0089C33.0833 23.8689 34.7423 23.1489 34.9993 20.8489C35.3843 17.3989 33.5243 14.6479 32.7613 14.6479C31.9993 14.6479 30.0233 14.5549 30.0233 13.4999C30.0233 12.4449 27.7153 11.8499 25.6323 11.8499C23.5493 11.8499 24.8023 10.4449 21.9423 10.9999C20.0353 11.3699 18.8873 12.2029 18.4993 13.4999Z" stroke="white" stroke-width="4" stroke-linejoin="round"/>
<path d="M29.5001 24.5C28.4831 25.131 27.0881 26.18 26.5001 27C25.0311 29.05 23.8401 30.298 23.5801 31.608" stroke="white" stroke-width="4" stroke-linecap="round"/>
</svg>
