<svg width="267" height="348" viewBox="0 0 267 348" fill="none" xmlns="http://www.w3.org/2000/svg">
<ellipse cx="136.5" cy="331.5" rx="109.5" ry="16.5" fill="#44362E"/>
<rect x="112.309" y="103.269" width="35.455" height="19.2768" fill="#E1AA87"/>
<rect width="22.5988" height="96.069" rx="11.2994" transform="matrix(-0.35703 -0.934093 -0.945864 0.324564 266.359 117.171)" fill="#FFCEAF"/>
<path d="M176.779 152.779C170.898 157.949 161.993 158.097 155.836 153.199V153.199C148.459 147.332 147.669 136.454 154.228 129.761L166.454 117.285C173.237 110.363 184.695 110.962 190.753 118.555L191.683 119.721C196.946 126.318 196.114 135.783 189.783 141.349L176.779 152.779Z" fill="#DF9B34"/>
<rect width="23.7616" height="100.185" rx="11.8808" transform="matrix(0.214234 -0.976782 -0.976579 -0.21516 97.8379 156.766)" fill="#FFCEAF"/>
<path d="M103.036 255.417L123.329 254.729L119.83 268.498L102.336 266.433L103.036 255.417Z" fill="#E3AC89"/>
<path d="M148.323 320.362L176.51 315.313L172.843 269.416L160.976 227.65H137.323L143.968 272.859L148.323 320.362Z" fill="#3C3C3C"/>
<path d="M108.735 227.65H135.924L125.076 274.585L120.46 317.149H92.0716L96.4568 272.975L108.735 227.65Z" fill="#3C3C3C"/>
<path d="M119.245 330V315.242C111.82 316.316 104.808 317.926 102.23 315.689V312.559H90.3704V319.714C82.9455 318.641 80.4018 326.124 80.058 330H119.245Z" fill="white"/>
<path d="M148.635 330V315.631C156.236 316.676 163.416 318.243 166.055 316.066V313.018H178.197V319.985C185.799 318.94 188.403 326.226 188.755 330H148.635Z" fill="white"/>
<path d="M93.1662 152.059L101.516 230.479L172.426 231.78C164.962 192.531 169.449 111.827 160.376 113.672C158.379 116.688 114.737 114.928 93.1662 113.672V152.059Z" fill="#DF9B34"/>
<path d="M153.532 116.731C195.123 94.751 123.81 45.6025 105.037 17.4892C103.592 15.5724 110.813 11.4832 151.248 10.4609C191.683 9.43856 183.496 54.7305 186.629 81.3831C188.924 100.915 198.316 135.589 168.279 135.078C138.241 134.566 148.959 119.073 153.532 116.731Z" fill="#242424"/>
<path d="M67.5245 67.8726C67.5245 93.7287 82.2712 108.363 144.207 108.363C176.785 108.363 185.498 89.5706 185.498 63.7145C185.498 37.8584 159.089 16.8979 126.511 16.8979C93.9337 16.8979 67.5245 42.0166 67.5245 67.8726Z" fill="#FFCEAF"/>
<path d="M112.307 94.4561C125.076 103.788 144.209 106.751 153.187 107.723L142.571 110.496L132.408 109.642L112.307 107.467V94.4561Z" fill="#E1AA87"/>
<ellipse cx="5.35149" cy="4.78945" rx="5.35149" ry="4.78945" transform="matrix(-1 0 0 1 143.786 60.1538)" fill="black"/>
<ellipse cx="5.35149" cy="4.78945" rx="5.35149" ry="4.78945" transform="matrix(-1 0 0 1 173.6 60.5806)" fill="black"/>
<path d="M136.528 130.122C94.0576 108.358 121.781 47.2437 140.952 19.4068C142.427 17.5088 135.053 13.4598 93.7627 12.4476C52.4719 11.4353 52.4719 58.8424 57.6332 82.6724C63.0404 101.23 81.5229 138.22 112.196 137.714C142.869 137.207 141.198 132.441 136.528 130.122Z" fill="#242424"/>
<path d="M140.455 20.9282C142.421 12.4928 149.239 -2.39398 139.089 0.327573C127.292 3.49086 136.769 16.7105 140.455 20.9282C135.294 15.6561 114.473 4.97477 113.911 11.4384C113.282 18.6746 131.361 19.8738 140.455 20.9282Z" fill="#4D4D4D"/>
<path d="M113.024 149.475C120.236 144.917 122.533 135.547 118.246 128.177L117.754 127.33C114.197 121.216 107.014 118.119 100.091 119.714L81.9473 123.893C70.9204 126.434 65.9934 139.166 72.4626 148.403L76.5626 154.257C81.5089 161.32 91.2034 163.267 98.4887 158.663L113.024 149.475Z" fill="#DF9B34"/>
<path d="M172.764 79.7308C164.449 79.7481 157.706 72.9958 157.686 64.6664C157.667 56.337 164.378 49.5567 172.693 49.5394C181.009 49.5221 187.751 56.2744 187.771 64.6038C187.79 72.9332 181.079 79.7135 172.764 79.7308Z" stroke="#1C2026" stroke-width="4"/>
<path d="M156.979 65.9367C155.889 64.4866 150.909 62.9865 149.969 66.9099" stroke="#1C2026" stroke-width="4" stroke-linecap="round"/>
<path d="M134.902 78.639C126.586 78.6563 119.844 71.904 119.824 63.5746C119.805 55.2452 126.516 48.4649 134.831 48.4476C143.146 48.4303 149.889 55.1826 149.908 63.512C149.928 71.8414 143.217 78.6217 134.902 78.639Z" stroke="#1C2026" stroke-width="4"/>
<path d="M162.846 38.746C164.607 37.7997 169.1 36.6615 172.989 39.6793" stroke="black" stroke-width="4" stroke-linecap="round" stroke-linejoin="round"/>
<path d="M133.096 37.6157C134.857 36.6693 139.35 35.5312 143.239 38.5489" stroke="black" stroke-width="4" stroke-linecap="round" stroke-linejoin="round"/>
<path d="M159.526 84.1502C158.024 85.4341 149.995 86.301 145.506 84.1502" stroke="black" stroke-width="4" stroke-linecap="round" stroke-linejoin="round"/>
</svg>
