<svg width="816" height="822" viewBox="0 0 816 822" fill="none" xmlns="http://www.w3.org/2000/svg">
<path d="M53 817C290.676 700.39 758.332 459.107 727.552 426.859C689.078 386.549 259.863 607.533 167.924 552.107C75.9847 496.681 735.047 80.6266 640.61 14.4034C546.173 -51.8198 252.867 257.702 132.447 136.053" stroke="#CC79FF" stroke-width="10"/>
<path d="M211.575 244.182C103.575 307.349 -80.0248 443.382 49.5752 482.182C211.575 459.682 227.075 464.182 191.575 408.682C156.075 353.182 -3.4248 302.682 77.5752 211.182C158.575 119.682 394.075 107.682 429.575 244.182C465.075 380.682 716.575 482.182 589.575 550.682C462.575 619.182 115.575 475.182 191.575 606.682C267.575 738.182 503.075 849.682 429.575 728.182C370.775 630.982 259.742 365.015 211.575 244.182Z" stroke="#79EFFF" stroke-width="10"/>
<path d="M443.23 252.69C340.397 178.857 132.93 57.7899 125.73 164.19C116.73 297.19 85.2302 422.69 186.73 409.69C288.23 396.69 500.731 461.19 343.73 618.19C186.73 775.19 738.73 756.69 709.23 618.19C679.73 479.69 578.23 385.69 692.73 282.19C807.23 178.69 417.23 -39.5196 365.73 66.19C324.53 150.758 400.23 225.76 443.23 252.69Z" stroke="#FF7979" stroke-width="10"/>
<rect x="2.81416" y="9.60561" width="43.4802" height="192.896" rx="21.7401" transform="matrix(-0.469958 0.882689 0.87198 0.489541 493.771 320.419)" fill="#FFCEAF" stroke="black" stroke-width="14"/>
<path d="M438.713 353.643L448.41 317.78C449.784 312.697 455.219 309.867 460.178 311.65L534.878 338.508C540.027 340.36 542.337 346.33 539.772 351.161L519.732 388.917C517.508 393.107 512.408 394.861 508.075 392.926L443.719 364.175C439.682 362.372 437.56 357.908 438.713 353.643Z" fill="#17FF21" stroke="black" stroke-width="14"/>
<path d="M318.749 735L323.364 621H378.749L353.364 735H318.749Z" fill="#FFCEAF" stroke="black" stroke-width="12" stroke-linecap="round" stroke-linejoin="round"/>
<path d="M327.317 626.5L372.75 625L364.917 655L325.75 650.5L327.317 626.5Z" fill="#E3AC89"/>
<path d="M477.75 735L473.365 621H420.75L444.865 735H477.75Z" fill="#FFCEAF" stroke="black" stroke-width="12" stroke-linecap="round" stroke-linejoin="round"/>
<path d="M469.233 625H426.75L432.819 659L470.75 651.273L469.233 625Z" fill="#E3AC89"/>
<path d="M425.89 737L487.75 726L479.703 626L453.659 535H401.75L416.335 633.5L425.89 737Z" fill="#3C3C3C" stroke="black" stroke-width="12" stroke-linecap="round" stroke-linejoin="round"/>
<path d="M340.23 535H399.75L376.003 637.262L365.897 730H303.75L313.35 633.753L340.23 535Z" fill="#3C3C3C" stroke="black" stroke-width="12" stroke-linecap="round" stroke-linejoin="round"/>
<path d="M355.749 763V730.846C339.454 733.185 324.065 736.692 318.407 731.821V725H292.381V740.59C276.086 738.251 270.503 754.556 269.749 763H355.749Z" fill="white" stroke="black" stroke-width="12" stroke-linecap="round" stroke-linejoin="round"/>
<path d="M441.75 766V734.692C458.234 736.969 473.803 740.385 479.526 735.641V729H505.855V744.179C522.339 741.903 527.987 757.778 528.75 766H441.75Z" fill="white" stroke="black" stroke-width="12" stroke-linecap="round" stroke-linejoin="round"/>
<path d="M306.975 376.183L327.354 552H479.266C483.507 473.136 478.125 283.417 457.768 287.67C453.286 294.624 355.372 290.568 306.975 287.67V376.183Z" fill="#17FF21" stroke="black" stroke-width="12" stroke-linejoin="round"/>
<path d="M310.696 405.563L327.439 551.419" stroke="black" stroke-width="12" stroke-linecap="square"/>
<path d="M476.115 463.092V458.592H485.115V463.092H476.115ZM485.115 547.351C485.115 549.836 483.101 551.851 480.615 551.851C478.13 551.851 476.115 549.836 476.115 547.351H485.115ZM485.115 463.092V547.351H476.115V463.092H485.115Z" fill="black"/>
<path d="M438.282 311.615C531.162 260.095 371.906 144.892 329.981 78.9947C326.756 74.5017 342.881 64.9166 433.181 62.5203C523.481 60.1241 505.198 166.288 512.194 228.761C517.32 274.543 538.295 355.818 471.215 354.62C404.135 353.422 428.07 317.106 438.282 311.615Z" fill="#242424" stroke="black" stroke-width="3" stroke-linecap="round"/>
<path d="M247.71 197.428C247.71 212.16 249.716 224.905 254.581 235.785C259.409 246.583 267.169 255.81 279.139 263.385C303.38 278.724 344.939 287.336 413.958 287.336C449.275 287.336 470.604 276.703 483.348 259.734C496.321 242.458 501.169 217.638 501.169 187.682C501.169 130.653 445.324 82.9443 374.439 82.9443C304.128 82.9443 247.71 139.893 247.71 197.428Z" fill="#FFCEAF" stroke="black" stroke-width="10"/>
<path d="M350.435 251.302C378.949 273.176 417.229 281.299 437.278 283.578L419.352 284.981H396.247L350.435 283.201V251.302Z" fill="#E1AA87"/>
<path d="M445.247 226.604C436.217 231.593 427.188 231.593 418.158 226.604" stroke="black" stroke-width="10" stroke-linecap="round"/>
<path d="M473.929 133.425C471.733 131.448 459.768 128.679 455.816 133.425" stroke="black" stroke-width="10" stroke-linecap="round"/>
<path d="M400.401 347.242C305.556 296.229 367.469 152.977 410.281 87.7281C413.574 83.2793 397.108 73.7885 304.897 71.4158C212.687 69.0431 212.687 180.165 224.213 236.022C236.288 279.521 277.564 366.224 346.063 365.037C414.562 363.851 410.83 352.68 400.401 347.242Z" fill="#242424" stroke="black" stroke-width="10" stroke-linecap="round"/>
<path d="M487.101 222.505C464.231 222.505 444.875 205.257 444.875 183.01C444.875 160.764 464.231 143.516 487.101 143.516C509.97 143.516 529.326 160.764 529.326 183.01C529.326 205.257 509.97 222.505 487.101 222.505Z" stroke="black" stroke-width="12"/>
<path d="M445.247 189.557C442.228 185.842 423.98 181.024 421.345 191.054" stroke="black" stroke-width="10" stroke-linecap="round"/>
<path d="M381.933 219.511C359.063 219.511 339.707 202.263 339.707 180.017C339.707 157.77 359.063 140.522 381.933 140.522C404.802 140.522 424.158 157.77 424.158 180.017C424.158 202.263 404.802 219.511 381.933 219.511Z" stroke="black" stroke-width="12"/>
<path d="M410.987 133.425C408.792 131.448 396.826 128.679 392.875 133.425" stroke="black" stroke-width="12" stroke-linecap="round"/>
<path d="M409.076 87.0555C413.467 67.283 428.693 32.3885 406.026 38.7678C379.68 46.1825 400.843 77.1693 409.076 87.0555C397.55 74.6977 351.052 49.6608 349.798 64.8114C348.394 81.773 388.768 84.5839 409.076 87.0555Z" fill="#4D4D4D"/>
<path d="M409.076 87.0555C413.467 67.283 428.693 32.3885 406.026 38.7678C379.68 46.1825 400.843 77.1693 409.076 87.0555ZM409.076 87.0555C397.55 74.6977 351.052 49.6608 349.798 64.8114C348.394 81.773 388.768 84.5839 409.076 87.0555Z" stroke="black" stroke-width="10"/>
<ellipse cx="20.6444" cy="21.5056" rx="20.6444" ry="21.5056" transform="matrix(-0.687725 -0.725971 -0.724117 0.689678 672.055 431.59)" fill="#FFCEAF"/>
<rect x="6.49938" y="7.46713" width="43" height="204" rx="21.5" transform="matrix(-0.0691249 0.997608 0.997608 0.0691249 256.44 358.467)" fill="#FFCEAF" stroke="black" stroke-width="14"/>
<ellipse cx="21.5" cy="23.5" rx="21.5" ry="23.5" transform="matrix(0.999339 -0.036357 -0.036357 -0.999339 422.226 423.683)" fill="#FFCEAF"/>
<path d="M251.163 336.885L235.809 372.465C234.267 376.039 235.196 380.205 238.112 382.788L299.957 437.57C304.765 441.83 312.347 439.829 314.422 433.753L336.386 369.438C337.955 364.841 335.598 359.822 331.059 358.095L262.605 332.05C258.109 330.339 253.069 332.469 251.163 336.885Z" fill="#17FF21" stroke="black" stroke-width="14"/>
<path d="M457 191.226C457 197.427 462.351 202.282 468.951 202.282C475.552 202.282 480.902 197.427 480.902 191.226C480.902 185.026 475.552 180 468.951 180C462.351 180 457 185.026 457 191.226Z" fill="black"/>
<path d="M390 185.226C390 191.427 395.351 196.282 401.951 196.282C408.552 196.282 413.902 191.427 413.902 185.226C413.902 179.026 408.552 174 401.951 174C395.351 174 390 179.026 390 185.226Z" fill="black"/>
<path d="M467.291 423.623C470.95 423.804 474.377 425.628 476.819 428.694C479.261 431.761 480.517 435.818 480.311 439.973C480.106 444.129 478.455 448.042 475.723 450.853C472.99 453.663 469.399 455.14 465.741 454.959C462.082 454.778 458.655 452.954 456.213 449.888C453.771 446.821 452.515 442.764 452.72 438.609C452.926 434.453 454.576 430.54 457.309 427.729C460.041 424.919 463.632 423.442 467.291 423.623ZM492.815 466.77C496.474 466.951 499.901 468.775 502.343 471.842C504.785 474.908 506.041 478.965 505.836 483.121C505.63 487.276 503.98 491.19 501.247 494C498.514 496.81 494.924 498.287 491.265 498.106C487.606 497.926 484.179 496.101 481.737 493.035C479.295 489.968 478.039 485.911 478.244 481.756C478.45 477.6 480.101 473.687 482.833 470.876C485.566 468.066 489.156 466.589 492.815 466.77ZM538.801 469.045C542.459 469.226 545.887 471.05 548.329 474.116C550.77 477.183 552.027 481.24 551.821 485.395C551.616 489.551 549.965 493.464 547.232 496.275C544.5 499.085 540.909 500.562 537.25 500.381C533.592 500.2 530.164 498.376 527.722 495.31C525.281 492.243 524.024 488.186 524.23 484.031C524.435 479.875 526.086 475.962 528.819 473.151C531.551 470.341 535.142 468.864 538.801 469.045ZM568.459 428.627C572.118 428.808 575.545 430.633 577.987 433.699C580.429 436.765 581.685 440.823 581.479 444.978C581.274 449.134 579.623 453.047 576.891 455.857C574.158 458.668 570.567 460.145 566.909 459.964C563.25 459.783 559.822 457.959 557.381 454.892C554.939 451.826 553.682 447.769 553.888 443.613C554.094 439.458 555.744 435.544 558.477 432.734C561.209 429.923 564.8 428.446 568.459 428.627ZM513.224 520.135C535.177 521.221 556.721 512.358 573.116 495.496C589.512 478.633 599.415 455.153 600.649 430.22C601.882 405.287 594.344 380.943 579.693 362.545C565.042 344.147 544.478 333.201 522.525 332.115C518.867 331.934 515.276 333.411 512.543 336.222C509.811 339.032 508.16 342.945 507.955 347.101C507.753 351.175 508.952 354.899 511.025 357.724C513.001 360.649 514.199 364.373 514.003 368.342C513.797 372.498 512.147 376.411 509.414 379.222C506.682 382.032 503.091 383.509 499.432 383.328L483.153 382.523C470.957 381.92 458.988 386.844 449.88 396.212C440.772 405.58 435.27 418.624 434.584 432.476C432.3 478.645 467.515 517.874 513.224 520.135Z" fill="#147D51"/>
<g clip-path="url(#clip0_187_126)">
<path fill-rule="evenodd" clip-rule="evenodd" d="M697.524 443.009C692.632 451.389 684.561 457.571 675.087 460.197C665.613 462.822 655.511 461.675 647.004 457.009C638.497 452.342 632.281 444.538 629.725 435.312C627.169 426.087 628.481 416.197 633.373 407.818L686.217 317.298C689.236 312.126 691.008 309.091 693.154 306.281C695.669 302.968 698.541 299.933 701.734 297.224C704.434 294.932 707.405 292.965 712.446 289.633L735.581 274.343L741.148 270.657C743.363 269.191 745.942 268.352 748.598 268.234C751.254 268.115 753.881 268.722 756.185 269.986C758.488 271.249 760.377 273.12 761.64 275.388C762.903 277.656 763.489 280.232 763.333 282.827L761.328 316.441C760.978 322.354 760.768 325.835 760.133 329.267C759.372 333.309 758.174 337.256 756.542 341.06C755.165 344.273 753.388 347.317 750.368 352.489L697.524 443.009ZM739.076 285.917L719.353 298.965C713.862 302.598 711.531 304.148 709.45 305.917C706.925 308.072 704.636 310.482 702.628 313.11C700.986 315.277 699.576 317.659 696.289 323.289L654.119 395.526C662.794 396.064 671.209 398.499 678.742 402.653C686.29 406.777 692.77 412.517 697.707 419.45L739.878 347.213C743.167 341.591 744.557 339.198 745.618 336.712C746.909 333.693 747.864 330.55 748.468 327.34C748.96 324.7 749.131 321.965 749.517 315.531L750.897 292.408L739.076 285.917ZM690.943 431.059C690.316 429.833 689.391 428.185 688.081 426.333C684.127 420.733 678.911 416.101 672.826 412.787C666.765 409.437 659.986 407.487 653 407.082C650.679 406.949 648.746 407.029 647.339 407.139L643.651 413.456C640.355 419.149 639.483 425.855 641.228 432.107C642.972 438.358 647.19 443.645 652.958 446.809C658.726 449.973 665.573 450.756 672 448.987C678.426 447.218 683.909 443.041 687.246 437.371L690.943 431.059Z" fill="#0FA958"/>
</g>
<defs>
<clipPath id="clip0_187_126">
<rect width="190" height="185" fill="white" transform="translate(815.503 431.282) rotate(164.512)"/>
</clipPath>
</defs>
</svg>
