<svg width="370" height="348" viewBox="0 0 370 348" fill="none" xmlns="http://www.w3.org/2000/svg">
<ellipse cx="109.75" cy="16.5" rx="109.75" ry="16.5" transform="matrix(-1 0 0 1 219.5 315)" fill="#33412A"/>
<rect width="35.536" height="19.2768" transform="matrix(-1 0 0 1 133.998 103.269)" fill="#E1AA87"/>
<rect width="22.6054" height="96.2656" rx="11.3027" transform="matrix(0.992605 0.121388 -0.0855847 0.996331 50.7383 43)" fill="#FFCEAF"/>
<path d="M62.6726 159.607C68.5584 164.769 77.4808 164.907 83.6454 160.015V160.015C91.0334 154.152 91.8396 143.274 85.2741 136.589L72.9859 124.079C66.1972 117.167 54.7279 117.768 48.6621 125.354L47.7102 126.545C42.44 133.136 43.2702 142.591 49.6072 148.148L62.6726 159.607Z" fill="#ADD160"/>
<path d="M143.291 255.417L122.951 254.729L126.458 268.498L143.992 266.433L143.291 255.417Z" fill="#E3AC89"/>
<path d="M97.9001 320.362L69.6484 315.313L73.3234 269.416L85.218 227.65H108.925L102.264 272.859L97.9001 320.362Z" fill="#3C3C3C"/>
<path d="M137.579 227.65H110.328L121.201 274.585L125.827 317.149H154.281L149.885 272.975L137.579 227.65Z" fill="#3C3C3C"/>
<path d="M127.047 330V315.242C134.489 316.316 141.517 317.926 144.101 315.689V312.559H155.988V319.714C163.429 318.641 165.979 326.124 166.324 330H127.047Z" fill="white"/>
<path d="M97.5879 330V315.631C89.9688 316.676 82.773 318.243 80.1275 316.066V313.018H67.9581V319.985C60.3391 318.94 57.7288 326.226 57.3761 330H97.5879Z" fill="white"/>
<path d="M153.183 152.059L144.814 230.479L73.7422 231.78C81.2235 192.531 76.7254 111.827 85.8195 113.672C87.8213 116.688 131.563 114.928 153.183 113.672V152.059Z" fill="#ADD160"/>
<path d="M92.6797 116.731C50.9943 94.751 122.47 45.6025 141.286 17.4892C142.734 15.5724 135.497 11.4832 94.9692 10.4609C54.4417 9.43856 62.6473 54.7305 59.5076 81.3831C57.2067 100.915 47.7932 135.589 77.8993 135.078C108.005 134.566 97.2632 119.073 92.6797 116.731Z" fill="#242424"/>
<path d="M178.884 67.8726C178.884 93.7287 164.104 108.363 102.026 108.363C69.3738 108.363 60.6406 89.5706 60.6406 63.7145C60.6406 37.8584 87.1103 16.8979 119.762 16.8979C152.414 16.8979 178.884 42.0166 178.884 67.8726Z" fill="#FFCEAF"/>
<path d="M133.996 94.4561C121.198 103.788 102.022 106.751 93.0234 107.723L103.663 110.496L113.849 109.642L133.996 107.467V94.4561Z" fill="#E1AA87"/>
<ellipse cx="107.811" cy="64.9433" rx="5.36372" ry="4.78945" fill="black"/>
<ellipse cx="77.9301" cy="65.37" rx="5.36372" ry="4.78945" fill="black"/>
<path d="M109.724 130.122C152.291 108.358 124.504 47.2437 105.289 19.4068C103.811 17.5088 111.202 13.4598 152.587 12.4476C193.972 11.4353 193.972 58.8424 188.799 82.6724C183.379 101.23 164.855 138.22 134.111 137.714C103.368 137.207 105.043 132.441 109.724 130.122Z" fill="#242424"/>
<path d="M105.787 20.9282C103.816 12.4928 96.9825 -2.39398 107.156 0.327573C118.98 3.49086 109.482 16.7105 105.787 20.9282C110.96 15.6561 131.828 4.97477 132.391 11.4384C133.021 18.6746 114.901 19.8738 105.787 20.9282Z" fill="#4D4D4D"/>
<path d="M73.4065 79.7303C81.7339 79.7476 88.4943 72.9996 88.5138 64.6659C88.5333 56.3322 81.8045 49.5562 73.4771 49.5389C65.1496 49.5216 58.3893 56.2696 58.3698 64.6033C58.3503 72.937 65.079 79.713 73.4065 79.7303Z" stroke="#1C2026" stroke-width="4"/>
<path d="M89.2269 65.9363C90.3196 64.4861 95.3113 62.986 96.2528 66.9094" stroke="#1C2026" stroke-width="4" stroke-linecap="round"/>
<path d="M111.354 78.6385C119.681 78.6558 126.442 71.9078 126.461 63.5741C126.481 55.2404 119.752 48.4644 111.424 48.4471C103.097 48.4298 96.3365 55.1778 96.317 63.5115C96.2975 71.8452 103.026 78.6213 111.354 78.6385Z" stroke="#1C2026" stroke-width="4"/>
<path d="M83.3452 38.746C81.5806 37.7997 77.077 36.6615 73.179 39.6793" stroke="black" stroke-width="4" stroke-linecap="round" stroke-linejoin="round"/>
<path d="M113.162 37.6157C111.397 36.6693 106.893 35.5312 102.995 38.5489" stroke="black" stroke-width="4" stroke-linecap="round" stroke-linejoin="round"/>
<path d="M84.4984 86.6749C87.9976 99.675 100.999 77.175 102.225 88.8252" stroke="black" stroke-width="4" stroke-linecap="round" stroke-linejoin="round"/>
<rect width="23.8153" height="100.187" rx="11.9076" transform="matrix(0.949975 -0.312325 0.312768 0.949829 130.5 41.438)" fill="#FFCEAF"/>
<path d="M172.97 155.457C169.273 163.146 160.234 166.497 152.426 163.073L151.476 162.656C145.002 159.817 141.103 153.032 141.889 145.971L143.95 127.427C145.202 116.172 157.277 109.819 167.191 115.2L173.54 118.645C181.119 122.758 184.165 132.175 180.43 139.943L172.97 155.457Z" fill="#ADD160"/>
<path d="M322.623 188.348C328.255 141.229 253.191 132.16 242.899 168.36L225.097 230.976C222.265 240.936 227.965 241.772 229.974 239.524C233.821 234.562 241.967 227.542 243.778 239.164C245.589 250.787 253.534 246.616 257.281 243.077C259.663 241.125 265.488 239.59 269.737 249.065C273.985 258.54 279.946 255.459 282.395 252.733C284.702 249.439 290.313 244.802 294.303 252.617C298.293 260.432 302.154 257.667 303.586 255.307L322.623 188.348Z" fill="white"/>
<ellipse cx="5.4363" cy="5.63181" rx="5.4363" ry="5.63181" transform="matrix(0.985148 0.285488 -0.266262 0.936533 260.607 161.965)" fill="black"/>
<ellipse cx="5.4363" cy="5.63181" rx="5.4363" ry="5.63181" transform="matrix(0.985148 0.285488 -0.266262 0.936533 285.217 171.319)" fill="black"/>
<path d="M322.187 189.885C328.084 163.877 303.935 149.843 291.601 147.459L283.161 146.166C299.327 150.851 316.332 171.4 314.424 181.24L295.047 252.352C294.429 254.617 295.845 256.996 298.221 257.684C300.614 258.378 303.079 257.095 303.726 254.82L322.187 189.885Z" fill="#C2C2C2"/>
<rect x="175" y="67" width="165" height="59" rx="10" fill="#20252C"/>
<path d="M206.36 110.4C204.227 110.4 202.613 109.8 201.52 108.6C200.427 107.373 199.88 105.627 199.88 103.36V101.76H204.04V103.68C204.04 105.493 204.8 106.4 206.32 106.4C207.067 106.4 207.627 106.187 208 105.76C208.4 105.307 208.6 104.587 208.6 103.6C208.6 102.427 208.333 101.4 207.8 100.52C207.267 99.6133 206.28 98.5333 204.84 97.28C203.027 95.68 201.76 94.24 201.04 92.96C200.32 91.6533 199.96 90.1867 199.96 88.56C199.96 86.3467 200.52 84.64 201.64 83.44C202.76 82.2133 204.387 81.6 206.52 81.6C208.627 81.6 210.213 82.2133 211.28 83.44C212.373 84.64 212.92 86.3733 212.92 88.64V89.8H208.76V88.36C208.76 87.4 208.573 86.7067 208.2 86.28C207.827 85.8267 207.28 85.6 206.56 85.6C205.093 85.6 204.36 86.4933 204.36 88.28C204.36 89.2933 204.627 90.24 205.16 91.12C205.72 92 206.72 93.0667 208.16 94.32C210 95.92 211.267 97.3733 211.96 98.68C212.653 99.9867 213 101.52 213 103.28C213 105.573 212.427 107.333 211.28 108.56C210.16 109.787 208.52 110.4 206.36 110.4ZM221.883 110.4C219.723 110.4 218.069 109.787 216.923 108.56C215.776 107.333 215.203 105.6 215.203 103.36V88.64C215.203 86.4 215.776 84.6667 216.923 83.44C218.069 82.2133 219.723 81.6 221.883 81.6C224.043 81.6 225.696 82.2133 226.843 83.44C227.989 84.6667 228.563 86.4 228.563 88.64V103.36C228.563 105.6 227.989 107.333 226.843 108.56C225.696 109.787 224.043 110.4 221.883 110.4ZM221.883 106.4C223.403 106.4 224.163 105.48 224.163 103.64V88.36C224.163 86.52 223.403 85.6 221.883 85.6C220.363 85.6 219.603 86.52 219.603 88.36V103.64C219.603 105.48 220.363 106.4 221.883 106.4ZM231.538 82H235.938V106H243.178V110H231.538V82ZM251.688 110.4C249.555 110.4 247.928 109.8 246.808 108.6C245.688 107.373 245.128 105.627 245.128 103.36V82H249.528V103.68C249.528 104.64 249.715 105.333 250.088 105.76C250.488 106.187 251.048 106.4 251.768 106.4C252.488 106.4 253.035 106.187 253.408 105.76C253.808 105.333 254.008 104.64 254.008 103.68V82H258.248V103.36C258.248 105.627 257.688 107.373 256.568 108.6C255.448 109.8 253.822 110.4 251.688 110.4ZM264.822 86H260.222V82H273.822V86H269.222V110H264.822V86ZM275.953 82H280.353V110H275.953V82ZM290.008 110.4C287.848 110.4 286.194 109.787 285.048 108.56C283.901 107.333 283.328 105.6 283.328 103.36V88.64C283.328 86.4 283.901 84.6667 285.048 83.44C286.194 82.2133 287.848 81.6 290.008 81.6C292.168 81.6 293.821 82.2133 294.968 83.44C296.114 84.6667 296.688 86.4 296.688 88.64V103.36C296.688 105.6 296.114 107.333 294.968 108.56C293.821 109.787 292.168 110.4 290.008 110.4ZM290.008 106.4C291.528 106.4 292.288 105.48 292.288 103.64V88.36C292.288 86.52 291.528 85.6 290.008 85.6C288.488 85.6 287.728 86.52 287.728 88.36V103.64C287.728 105.48 288.488 106.4 290.008 106.4ZM299.663 82H305.183L309.463 98.76H309.543V82H313.463V110H308.943L303.663 89.56H303.583V110H299.663V82Z" fill="white"/>
<path d="M251.637 190.4C222.028 215.539 207.189 149.342 199.241 124.326C199.097 123.872 199.296 123.405 199.713 123.177C208.711 118.26 224.692 111.982 221.845 123.572C218.924 135.46 219.103 154.157 242.77 182.103C242.83 182.173 242.901 182.237 242.978 182.288L251.557 188.041C251.834 188.226 252 188.538 252 188.871V189.632C252 189.922 251.858 190.212 251.637 190.4Z" fill="#20252C"/>
</svg>
