<svg width="32" height="55" viewBox="0 0 32 55" fill="none" xmlns="http://www.w3.org/2000/svg">
<path d="M26.6404 41.5217C30.1434 37.0972 30.2667 30.3664 29.8098 26.8235C29.7479 26.3436 29.3318 26 28.8479 26H5.60366C4.94167 26 4.36917 26.6527 4.30633 27.3117C4.09498 29.5281 3.07636 33.5802 2.31662 36.3093C2.1528 36.8978 2.54378 37.4972 3.14903 37.5797L4.94474 37.8244C5.44026 37.892 5.8097 38.3152 5.8097 38.8153V41.8365C5.97902 43.1346 7.13039 45.7827 10.3813 45.9904C13.5156 46.1906 14.8557 48.1766 15.1754 49.2495C15.1983 49.3263 15.2069 49.4058 15.2069 49.4859V52C15.2069 52.5523 15.6547 53 16.2069 53H26.0734C26.6525 53 27.1105 52.5097 27.0711 51.9319L26.4098 42.2426C26.392 41.9823 26.4784 41.7263 26.6404 41.5217Z" stroke="white" stroke-width="3"/>
<path d="M10 31V35" stroke="white" stroke-width="3" stroke-linecap="round"/>
<circle cx="4.5" cy="16.5" r="4.5" fill="white"/>
<circle cx="26" cy="23" r="4" fill="white"/>
<circle cx="22" cy="8" r="3" fill="white"/>
<circle cx="9" cy="2" r="2" fill="white"/>
<path d="M7 42C9.5 42.5 14.8 42.8 16 40" stroke="white" stroke-width="3" stroke-linecap="round"/>
</svg>
