<svg width="41" height="22" viewBox="0 0 41 22" fill="none" xmlns="http://www.w3.org/2000/svg">
<path d="M16 6C16 9.31371 13.3137 11 10 11C6.68629 11 4 9.31371 4 6C4 2.68629 6.68629 0 10 0C13.3137 0 16 2.68629 16 6ZM7.40137 6C7.40137 7.43518 8.56482 8.59863 10 8.59863C11.4352 8.59863 12.5986 7.43518 12.5986 6C12.5986 4.56482 11.4352 3.40137 10 3.40137C8.56482 3.40137 7.40137 4.56482 7.40137 6Z" fill="white"/>
<path d="M2.11725 20C1.62092 17.5714 2.42086 14 10.0586 14C17.5045 14 18.5 16 18 20" stroke="white" stroke-width="3" stroke-linecap="round"/>
<path d="M37 6C37 9.31371 34.3137 11 31 11C27.6863 11 25 9.31371 25 6C25 2.68629 27.6863 0 31 0C34.3137 0 37 2.68629 37 6ZM28.4014 6C28.4014 7.43518 29.5648 8.59863 31 8.59863C32.4352 8.59863 33.5986 7.43518 33.5986 6C33.5986 4.56482 32.4352 3.40137 31 3.40137C29.5648 3.40137 28.4014 4.56482 28.4014 6Z" fill="white"/>
<path d="M23.1173 20C22.6209 17.5714 23.4209 14 31.0586 14C38.5045 14 39.5 16 39 20" stroke="white" stroke-width="3" stroke-linecap="round"/>
</svg>
