<svg width="80" height="79" viewBox="0 0 80 79" fill="none" xmlns="http://www.w3.org/2000/svg">
<path d="M65.3631 22.2C65.3631 34.4607 53.7807 40.7 39.4931 40.7C25.2055 40.7 13.623 34.4607 13.623 22.2C13.623 9.93927 25.2055 0 39.4931 0C53.7807 0 65.3631 9.93927 65.3631 22.2ZM28.2887 22.2C28.2887 27.5101 33.3051 31.8149 39.4931 31.8149C45.6811 31.8149 50.6975 27.5101 50.6975 22.2C50.6975 16.8898 45.6811 12.5851 39.4931 12.5851C33.3051 12.5851 28.2887 16.8898 28.2887 22.2Z" fill="white"/>
<path d="M5.50556 73.9998C3.36554 65.0141 6.8146 51.7998 39.7459 51.7998C71.8505 51.7998 76.1426 59.1998 73.9868 73.9998" stroke="white" stroke-width="10" stroke-linecap="round"/>
</svg>
