<svg width="181" height="113" viewBox="0 0 181 113" fill="none" xmlns="http://www.w3.org/2000/svg">
<path d="M44.9784 14.4C44.9784 22.353 37.3074 26.4001 27.8447 26.4001C18.382 26.4001 10.7109 22.353 10.7109 14.4C10.7109 6.44712 18.382 0 27.8447 0C37.3074 0 44.9784 6.44712 44.9784 14.4ZM20.424 14.4C20.424 17.8445 23.7463 20.6368 27.8447 20.6368C31.943 20.6368 35.2654 17.8445 35.2654 14.4C35.2654 10.9556 31.943 8.16332 27.8447 8.16332C23.7463 8.16332 20.424 10.9556 20.424 14.4Z" fill="white"/>
<path d="M5.33483 48.0001C3.9175 42.1716 6.20181 33.6001 28.0122 33.6001C49.2752 33.6001 52.1178 38.4001 50.69 48.0001" stroke="white" stroke-width="10" stroke-linecap="round"/>
<path d="M109.978 14.4C109.978 22.353 102.307 26.4001 92.8447 26.4001C83.382 26.4001 75.7109 22.353 75.7109 14.4C75.7109 6.44712 83.382 0 92.8447 0C102.307 0 109.978 6.44712 109.978 14.4ZM85.424 14.4C85.424 17.8445 88.7463 20.6368 92.8447 20.6368C96.943 20.6368 100.265 17.8445 100.265 14.4C100.265 10.9556 96.943 8.16332 92.8447 8.16332C88.7463 8.16332 85.424 10.9556 85.424 14.4Z" fill="white"/>
<path d="M70.3348 48.0001C68.9175 42.1716 71.2018 33.6001 93.0122 33.6001C114.275 33.6001 117.118 38.4001 115.69 48.0001" stroke="white" stroke-width="10" stroke-linecap="round"/>
<path d="M169.978 14.4C169.978 22.353 162.307 26.4001 152.845 26.4001C143.382 26.4001 135.711 22.353 135.711 14.4C135.711 6.44712 143.382 0 152.845 0C162.307 0 169.978 6.44712 169.978 14.4ZM145.424 14.4C145.424 17.8445 148.746 20.6368 152.845 20.6368C156.943 20.6368 160.265 17.8445 160.265 14.4C160.265 10.9556 156.943 8.16332 152.845 8.16332C148.746 8.16332 145.424 10.9556 145.424 14.4Z" fill="white"/>
<path d="M130.335 48.0001C128.917 42.1716 131.202 33.6001 153.012 33.6001C174.275 33.6001 177.118 38.4001 175.69 48.0001" stroke="white" stroke-width="10" stroke-linecap="round"/>
<path d="M73.9784 74.4C73.9784 82.353 66.3074 86.4001 56.8447 86.4001C47.382 86.4001 39.7109 82.353 39.7109 74.4C39.7109 66.4471 47.382 60 56.8447 60C66.3074 60 73.9784 66.4471 73.9784 74.4ZM49.424 74.4C49.424 77.8445 52.7463 80.6368 56.8447 80.6368C60.943 80.6368 64.2654 77.8445 64.2654 74.4C64.2654 70.9556 60.943 68.1633 56.8447 68.1633C52.7463 68.1633 49.424 70.9556 49.424 74.4Z" fill="white"/>
<path d="M34.3348 108C32.9175 102.172 35.2018 93.6001 57.0122 93.6001C78.2752 93.6001 81.1178 98.4001 79.69 108" stroke="white" stroke-width="10" stroke-linecap="round"/>
<path d="M135.978 74.4C135.978 82.353 128.307 86.4001 118.845 86.4001C109.382 86.4001 101.711 82.353 101.711 74.4C101.711 66.4471 109.382 60 118.845 60C128.307 60 135.978 66.4471 135.978 74.4ZM111.424 74.4C111.424 77.8445 114.746 80.6368 118.845 80.6368C122.943 80.6368 126.265 77.8445 126.265 74.4C126.265 70.9556 122.943 68.1633 118.845 68.1633C114.746 68.1633 111.424 70.9556 111.424 74.4Z" fill="white"/>
<path d="M96.3348 108C94.9175 102.172 97.2018 93.6001 119.012 93.6001C140.275 93.6001 143.118 98.4001 141.69 108" stroke="white" stroke-width="10" stroke-linecap="round"/>
</svg>
